<svg xmlns="http://www.w3.org/2000/svg" xmlns:xlink="http://www.w3.org/1999/xlink" width="500" zoomAndPan="magnify" viewBox="0 0 375 374.999991" height="500" preserveAspectRatio="xMidYMid meet" version="1.0"><defs><g/><clipPath id="id1"><path d="M 72.339844 173.101562 L 317.589844 173.101562 L 317.589844 209.851562 L 72.339844 209.851562 Z M 72.339844 173.101562 " clip-rule="nonzero"/></clipPath></defs><rect x="-37.5" width="450" fill="#ffffff" y="-37.499999" height="449.999989" fill-opacity="1"/><rect x="-37.5" width="450" fill="#ffffff" y="-37.499999" height="449.999989" fill-opacity="1"/><rect x="-37.5" width="450" fill="#ffffff" y="-37.499999" height="449.999989" fill-opacity="1"/><rect x="-37.5" width="450" fill="#ffffff" y="-37.499999" height="449.999989" fill-opacity="1"/><g fill="#523e27" fill-opacity="1"><g transform="translate(112.786131, 242.228194)"><g><path d="M 149 -2.546875 C 149.5625 -2.546875 149.84375 -2.117188 149.84375 -1.265625 C 149.84375 -0.421875 149.5625 0 149 0 C 146.3125 0 142.140625 -0.140625 136.484375 -0.421875 C 130.816406 -0.703125 126.640625 -0.84375 123.953125 -0.84375 C 120.703125 -0.84375 116.671875 -0.703125 111.859375 -0.421875 C 107.328125 -0.140625 103.789062 0 101.25 0 C 100.675781 0 100.390625 -0.421875 100.390625 -1.265625 C 100.390625 -2.117188 100.675781 -2.546875 101.25 -2.546875 C 106.34375 -2.546875 109.984375 -3.003906 112.171875 -3.921875 C 114.367188 -4.847656 115.46875 -6.515625 115.46875 -8.921875 C 115.46875 -11.035156 114.476562 -14.21875 112.5 -18.46875 L 94.234375 -56.671875 L 43.515625 -56.671875 L 30.984375 -27.59375 C 29.148438 -23.34375 28.234375 -19.453125 28.234375 -15.921875 C 28.234375 -7.003906 35.09375 -2.546875 48.8125 -2.546875 C 49.519531 -2.546875 49.875 -2.117188 49.875 -1.265625 C 49.875 -0.421875 49.519531 0 48.8125 0 C 46.269531 0 42.59375 -0.140625 37.78125 -0.421875 C 32.40625 -0.703125 27.734375 -0.84375 23.765625 -0.84375 C 20.234375 -0.84375 15.921875 -0.703125 10.828125 -0.421875 C 6.578125 -0.140625 2.96875 0 0 0 C -0.707031 0 -1.0625 -0.421875 -1.0625 -1.265625 C -1.0625 -2.117188 -0.707031 -2.546875 0 -2.546875 C 3.957031 -2.546875 7.316406 -3.285156 10.078125 -4.765625 C 12.835938 -6.253906 15.488281 -8.910156 18.03125 -12.734375 C 20.582031 -16.554688 23.414062 -22.144531 26.53125 -29.5 L 71.3125 -134.359375 C 71.59375 -134.773438 72.160156 -134.984375 73.015625 -134.984375 C 73.859375 -134.984375 74.351562 -134.773438 74.5 -134.359375 L 125.015625 -29.078125 C 129.828125 -18.742188 133.929688 -11.738281 137.328125 -8.0625 C 140.722656 -4.382812 144.613281 -2.546875 149 -2.546875 Z M 45.421875 -61.125 L 92.109375 -61.125 L 67.5 -112.5 Z M 45.421875 -61.125 "/></g></g></g><g clip-path="url(#id1)"><path fill="#e8cfc1" d="M 72.375 173.101562 L 317.554688 173.101562 L 317.554688 209.851562 L 72.375 209.851562 L 72.375 173.101562 " fill-opacity="1" fill-rule="nonzero"/></g><g fill="#523e27" fill-opacity="1"><g transform="translate(47.282922, 208.317825)"><g><path d="M 31.082031 -7.269531 C 32.191406 -9.148438 32.914062 -8.691406 34.480469 -8.332031 C 36.355469 -7.609375 38.113281 -6.933594 39.703125 -6.355469 C 40.207031 -6.164062 40.546875 -5.753906 40.617188 -5.226562 C 41.027344 -2.261719 41.652344 -0.699219 42.617188 -0.386719 C 42.785156 -0.3125 42.953125 -0.335938 43.097656 -0.410156 C 43.242188 -0.480469 43.363281 -0.625 43.410156 -0.769531 C 43.507812 -1.109375 43.339844 -1.46875 43 -1.589844 C 42.59375 -1.734375 42.28125 -2.695312 42.039062 -4.164062 C 41.964844 -4.476562 42.085938 -4.792969 42.328125 -4.984375 C 42.542969 -5.175781 42.882812 -5.25 43.171875 -5.152344 C 44.808594 -4.550781 46.542969 -4.1875 48.300781 -4.09375 C 48.441406 -4.09375 48.613281 -4.164062 48.730469 -4.285156 C 48.851562 -4.40625 48.902344 -4.574219 48.902344 -4.742188 C 48.902344 -4.910156 48.828125 -5.082031 48.707031 -5.175781 C 48.585938 -5.296875 48.417969 -5.371094 48.25 -5.371094 C 46.300781 -5.515625 44.398438 -5.972656 42.570312 -6.695312 C 42.039062 -6.863281 41.652344 -7.34375 41.605469 -7.898438 C 41.21875 -12.929688 41.171875 -19.695312 41.148438 -23.476562 C 41.125 -28.75 41.074219 -30.792969 40.835938 -31.371094 C 40.738281 -31.636719 40.496094 -31.804688 40.234375 -31.78125 C 39.945312 -31.757812 39.726562 -31.566406 39.65625 -31.300781 C 38.234375 -26.171875 36.476562 -21.140625 34.382812 -16.253906 C 33.683594 -14.664062 33.011719 -13.21875 32.3125 -11.871094 C 32 -11.242188 31.226562 -10.957031 30.578125 -11.195312 C 22.679688 -14.230469 13.652344 -17.480469 6.742188 -18.007812 C 4.070312 -18.203125 2.335938 -17.722656 1.589844 -16.589844 C 0.964844 -15.625 1.082031 -14.351562 1.925781 -12.785156 C 4.574219 -7.945312 14.785156 -0.242188 21.933594 -0.242188 C 25.304688 -0.242188 28.410156 -3.203125 31.082031 -7.269531 Z M 5.5625 -16.78125 C 5.898438 -16.78125 6.261719 -16.78125 6.644531 -16.757812 C 13.21875 -16.253906 21.863281 -13.195312 29.519531 -10.257812 C 29.902344 -10.113281 30.21875 -9.773438 30.335938 -9.390625 C 30.480469 -8.980469 30.410156 -8.546875 30.191406 -8.1875 C 27.375 -3.78125 24.582031 -1.515625 21.933594 -1.515625 C 15.769531 -1.515625 5.753906 -8.402344 3.035156 -13.386719 C 2.625 -14.15625 2.214844 -15.214844 2.648438 -15.890625 C 3.007812 -16.46875 4.046875 -16.78125 5.5625 -16.78125 Z M 39.390625 -26.027344 C 39.558594 -26.53125 39.871094 -26.4375 39.871094 -25.882812 C 39.871094 -25.113281 39.871094 -24.292969 39.894531 -23.476562 C 39.921875 -17.550781 40.015625 -12.832031 40.234375 -9.246094 C 40.28125 -8.835938 40.089844 -8.476562 39.777344 -8.234375 C 39.460938 -7.992188 39.054688 -7.945312 38.691406 -8.089844 C 37.175781 -8.667969 35.539062 -9.292969 33.851562 -9.945312 L 32.914062 -10.304688 C 35.539062 -15.335938 37.703125 -20.609375 39.390625 -26.027344 Z M 39.390625 -26.027344 "/></g></g></g><g fill="#523e27" fill-opacity="1"><g transform="translate(97.448413, 208.317825)"><g><path d="M 16.757812 -6.332031 C 16.492188 -6.574219 16.082031 -6.550781 15.867188 -6.285156 C 13.964844 -4.308594 10.882812 -4.117188 8.765625 -5.828125 C 8.257812 -6.1875 7.558594 -6.164062 7.101562 -5.730469 C 6.839844 -5.488281 6.550781 -5.226562 6.261719 -4.910156 C 5.34375 -3.875 5.175781 -4.742188 5.175781 -5.320312 C 5.175781 -5.828125 5.082031 -6.355469 4.910156 -6.839844 C 4.816406 -7.078125 4.574219 -7.246094 4.308594 -7.246094 C 4.046875 -7.222656 3.828125 -7.078125 3.730469 -6.8125 C 3.058594 -4.9375 1.613281 -2.191406 0.601562 -2 C 0.53125 -1.972656 0.335938 -1.949219 0.046875 -2.261719 C -0.0976562 -2.890625 0 -3.5625 0.3125 -4.140625 C 1.035156 -6.089844 2.816406 -7.464844 4.886719 -7.65625 C 5.25 -7.679688 5.515625 -7.992188 5.488281 -8.332031 C 5.464844 -8.691406 5.152344 -8.957031 4.816406 -8.933594 C 2.238281 -8.691406 0.0234375 -7.007812 -0.890625 -4.574219 C -1.300781 -3.515625 -1.539062 -2.117188 -0.890625 -1.421875 C -0.457031 -0.890625 0.191406 -0.648438 0.84375 -0.769531 C 2.046875 -1.011719 3.128906 -2.601562 3.902344 -4.046875 C 3.851562 -3.46875 3.78125 -2.816406 3.683594 -2.144531 C 3.660156 -2 3.613281 -1.878906 3.539062 -1.78125 C 0.722656 1.78125 -1.828125 6.089844 -1.878906 8.8125 C -1.949219 9.535156 -1.683594 10.257812 -1.203125 10.785156 C -0.964844 11.027344 -0.675781 11.148438 -0.359375 11.148438 C -0.0976562 11.148438 0.167969 11.074219 0.386719 10.929688 C 1.972656 9.871094 3.996094 3.683594 4.792969 -1.226562 C 4.816406 -1.324219 4.863281 -1.421875 4.9375 -1.515625 C 5.777344 -2.550781 6.667969 -3.539062 7.609375 -4.476562 C 7.824219 -4.695312 8.164062 -4.71875 8.402344 -4.550781 C 11.050781 -2.769531 14.566406 -3.152344 16.78125 -5.441406 C 17 -5.707031 17 -6.089844 16.757812 -6.332031 Z M 0.722656 8.378906 C 0.167969 9.488281 -0.0234375 9.96875 -0.3125 9.871094 C -0.601562 9.800781 -0.625 9.316406 -0.601562 8.835938 C -0.554688 6.980469 2.671875 0.699219 3.128906 0.890625 C 3.585938 1.082031 1.636719 6.476562 0.722656 8.378906 Z M 0.722656 8.378906 "/></g></g></g><g fill="#523e27" fill-opacity="1"><g transform="translate(113.311685, 208.317825)"><g><path d="M 20.128906 -5.828125 C 19.886719 -6.089844 19.476562 -6.117188 19.214844 -5.875 C 19.140625 -5.800781 11.992188 0.625 7.558594 -2.289062 C 5.800781 -3.441406 5.371094 -6.234375 5.371094 -6.261719 C 5.34375 -6.550781 5.128906 -6.765625 4.839844 -6.8125 C 4.574219 -6.839844 4.285156 -6.695312 4.164062 -6.453125 C 3.035156 -3.949219 1.035156 -0.769531 0.480469 -1.132812 C 0.433594 -1.132812 0.335938 -1.226562 0.265625 -1.394531 C -0.0234375 -2.191406 0.0703125 -3.058594 0.480469 -3.804688 C 1.394531 -5.683594 3.082031 -7.03125 5.105469 -7.535156 C 5.320312 -7.585938 5.488281 -7.753906 5.5625 -7.96875 C 5.632812 -8.1875 5.5625 -8.425781 5.417969 -8.59375 C 5.25 -8.738281 5.03125 -8.8125 4.816406 -8.765625 C 2.40625 -8.1875 0.410156 -6.550781 -0.675781 -4.332031 C -1.253906 -3.25 -1.324219 -1.949219 -0.867188 -0.820312 C -0.648438 -0.265625 -0.121094 0.121094 0.480469 0.121094 L 0.503906 0.121094 C 1.683594 0.0976562 3.152344 -1.371094 4.164062 -2.960938 C 4.285156 -3.152344 4.503906 -3.25 4.71875 -3.226562 C 4.9375 -3.226562 5.128906 -3.105469 5.226562 -2.914062 C 5.632812 -2.238281 6.1875 -1.660156 6.863281 -1.253906 C 12.109375 2.238281 19.742188 -4.648438 20.082031 -4.9375 C 20.199219 -5.054688 20.273438 -5.226562 20.273438 -5.371094 C 20.296875 -5.539062 20.226562 -5.707031 20.128906 -5.828125 Z M 20.128906 -5.828125 "/></g></g></g><g fill="#523e27" fill-opacity="1"><g transform="translate(132.761647, 208.317825)"><g><path d="M 16.515625 -6.550781 C 16.277344 -6.789062 15.867188 -6.789062 15.625 -6.523438 C 15.578125 -6.476562 9.054688 0.0976562 4.71875 -1.539062 C 2.792969 -2.289062 1.972656 -4.527344 1.660156 -6.742188 C 2.09375 -7.800781 2.816406 -9.558594 3.492188 -11.53125 C 3.5625 -11.773438 3.636719 -11.796875 3.925781 -11.820312 C 7.175781 -12.0625 10.402344 -12.183594 12.304688 -12.183594 C 12.664062 -12.183594 12.929688 -12.472656 12.929688 -12.808594 C 12.929688 -13.171875 12.664062 -13.433594 12.304688 -13.433594 C 10.472656 -13.433594 7.464844 -13.289062 4.382812 -13.121094 C 4.261719 -13.097656 4.046875 -13.171875 4.214844 -13.605469 C 5.371094 -16.902344 6.1875 -20.25 5.683594 -21.261719 C 5.175781 -22.269531 4.503906 -22.296875 4.164062 -22.222656 C 2.382812 -21.886719 1.082031 -17.261719 0.503906 -13.484375 C 0.457031 -13.144531 0.289062 -12.855469 -0.0234375 -12.832031 C -3.804688 -12.542969 -6.910156 -12.328125 -6.957031 -12.328125 C -7.320312 -12.304688 -7.585938 -12.015625 -7.558594 -11.652344 C -7.558594 -11.316406 -7.269531 -11.027344 -6.910156 -11.050781 L -6.863281 -11.050781 C -6.789062 -11.050781 -3.875 -11.269531 -0.242188 -11.53125 C -0.121094 -11.558594 0 -11.53125 0.0976562 -11.4375 C 0.191406 -11.363281 0.265625 -11.242188 0.265625 -11.125 C -0.0976562 -5.394531 1.347656 -1.46875 4.261719 -0.359375 C 4.886719 -0.144531 5.539062 -0.0234375 6.210938 -0.0234375 C 10.980469 -0.0234375 16.277344 -5.394531 16.542969 -5.632812 C 16.660156 -5.753906 16.710938 -5.921875 16.710938 -6.089844 C 16.710938 -6.261719 16.636719 -6.429688 16.515625 -6.550781 Z M 1.78125 -13.53125 C 2.335938 -17.191406 3.441406 -20.082031 4.09375 -20.828125 C 4.164062 -20.875 4.261719 -20.898438 4.359375 -20.875 C 4.429688 -20.851562 4.503906 -20.800781 4.550781 -20.707031 C 4.839844 -20.082031 4.019531 -17.023438 2.792969 -13.386719 C 2.746094 -13.171875 2.578125 -13 2.335938 -12.976562 C 2.214844 -12.953125 2.09375 -12.953125 1.949219 -12.953125 C 1.710938 -12.953125 1.757812 -13.339844 1.78125 -13.507812 Z M 1.492188 -9.75 C 1.253906 -9.75 1.347656 -11.4375 1.566406 -11.675781 C 1.757812 -11.796875 2 -11.820312 2.191406 -11.703125 C 2.40625 -11.507812 1.757812 -9.75 1.492188 -9.75 Z M 1.492188 -9.75 "/></g></g></g><g fill="#523e27" fill-opacity="1"><g transform="translate(148.143478, 208.317825)"><g><path d="M 18.996094 -5.753906 C 18.757812 -6.019531 18.371094 -6.042969 18.105469 -5.800781 C 18.058594 -5.777344 13.097656 -1.445312 9.460938 -2.023438 C 8.378906 -2.191406 7.441406 -2.839844 6.910156 -3.804688 C 6.453125 -4.648438 5.609375 -5.175781 4.671875 -5.273438 C 3.492188 -5.34375 2.191406 -4.648438 0.820312 -3.203125 C 0.746094 -3.128906 0.625 -3.105469 0.53125 -3.152344 C 0.433594 -3.203125 0.386719 -3.296875 0.410156 -3.417969 C 0.480469 -3.875 0.699219 -5.03125 0.792969 -5.464844 C 0.792969 -5.394531 0.964844 -5.730469 0.964844 -5.753906 C 3.007812 -8.546875 9.125 -17.40625 6.742188 -20.25 C 6.429688 -20.683594 5.851562 -20.875 5.320312 -20.730469 C 4.839844 -20.585938 3.371094 -20.128906 1.109375 -12.085938 C 0.554688 -10.136719 0.046875 -8.042969 -0.359375 -6.066406 L -0.53125 -5.851562 C -0.699219 -5.632812 -0.699219 -5.34375 -0.554688 -5.105469 C -0.914062 -3.324219 -1.15625 -1.683594 -1.277344 -0.433594 C -1.300781 -0.144531 -1.132812 0.121094 -0.867188 0.214844 C -0.601562 0.3125 -0.289062 0.214844 -0.121094 -0.0234375 C 2.335938 -3.585938 3.902344 -4.046875 4.597656 -4.019531 C 5.105469 -3.972656 5.5625 -3.660156 5.800781 -3.203125 C 6.523438 -1.902344 7.800781 -0.988281 9.292969 -0.769531 C 13.484375 -0.121094 18.707031 -4.671875 18.949219 -4.863281 C 19.191406 -5.105469 19.214844 -5.488281 18.996094 -5.753906 Z M 5.683594 -19.527344 C 5.730469 -19.527344 5.753906 -19.453125 5.777344 -19.429688 C 6.933594 -18.128906 2.144531 -8.449219 1.539062 -8.835938 C 0.964844 -9.199219 4.671875 -19.527344 5.683594 -19.527344 Z M 5.683594 -19.527344 "/></g></g></g><g fill="#523e27" fill-opacity="1"><g transform="translate(166.341703, 208.317825)"><g><path d="M 20.128906 -5.828125 C 19.886719 -6.089844 19.476562 -6.117188 19.214844 -5.875 C 19.140625 -5.800781 11.992188 0.625 7.558594 -2.289062 C 5.800781 -3.441406 5.371094 -6.234375 5.371094 -6.261719 C 5.34375 -6.550781 5.128906 -6.765625 4.839844 -6.8125 C 4.574219 -6.839844 4.285156 -6.695312 4.164062 -6.453125 C 3.035156 -3.949219 1.035156 -0.769531 0.480469 -1.132812 C 0.433594 -1.132812 0.335938 -1.226562 0.265625 -1.394531 C -0.0234375 -2.191406 0.0703125 -3.058594 0.480469 -3.804688 C 1.394531 -5.683594 3.082031 -7.03125 5.105469 -7.535156 C 5.320312 -7.585938 5.488281 -7.753906 5.5625 -7.96875 C 5.632812 -8.1875 5.5625 -8.425781 5.417969 -8.59375 C 5.25 -8.738281 5.03125 -8.8125 4.816406 -8.765625 C 2.40625 -8.1875 0.410156 -6.550781 -0.675781 -4.332031 C -1.253906 -3.25 -1.324219 -1.949219 -0.867188 -0.820312 C -0.648438 -0.265625 -0.121094 0.121094 0.480469 0.121094 L 0.503906 0.121094 C 1.683594 0.0976562 3.152344 -1.371094 4.164062 -2.960938 C 4.285156 -3.152344 4.503906 -3.25 4.71875 -3.226562 C 4.9375 -3.226562 5.128906 -3.105469 5.226562 -2.914062 C 5.632812 -2.238281 6.1875 -1.660156 6.863281 -1.253906 C 12.109375 2.238281 19.742188 -4.648438 20.082031 -4.9375 C 20.199219 -5.054688 20.273438 -5.226562 20.273438 -5.371094 C 20.296875 -5.539062 20.226562 -5.707031 20.128906 -5.828125 Z M 20.128906 -5.828125 "/></g></g></g><g fill="#523e27" fill-opacity="1"><g transform="translate(185.791665, 208.317825)"><g/></g></g><g fill="#523e27" fill-opacity="1"><g transform="translate(194.746357, 208.317825)"><g><path d="M 21.910156 -13.074219 C 21.550781 -13.050781 20.199219 -12.976562 18.539062 -12.855469 C 18.347656 -12.855469 18.152344 -12.929688 18.035156 -13.097656 C 17.914062 -13.265625 17.914062 -13.460938 17.984375 -13.652344 C 20.152344 -18.804688 21.621094 -24.171875 20.25 -27.328125 C 19.621094 -28.796875 18.25 -29.832031 16.636719 -30.046875 C 9.679688 -31.324219 3.828125 -25.691406 1.878906 -19.742188 C 0.410156 -15.3125 1.347656 -11.53125 4.285156 -10.089844 C 4.597656 -9.945312 4.984375 -10.0625 5.128906 -10.378906 C 5.273438 -10.691406 5.152344 -11.074219 4.839844 -11.21875 C 2.023438 -12.617188 2.070312 -16.324219 3.082031 -19.359375 C 4.863281 -24.777344 10.136719 -29.953125 16.421875 -28.796875 C 17.601562 -28.652344 18.636719 -27.90625 19.09375 -26.820312 C 20.417969 -23.8125 18.585938 -18.25 16.324219 -12.976562 C 16.179688 -12.664062 15.84375 -12.640625 15.625 -12.640625 C 13.699219 -12.542969 11.796875 -12.28125 9.917969 -11.820312 C 9.605469 -11.703125 9.460938 -11.316406 9.582031 -11.003906 C 9.726562 -10.691406 10.089844 -10.523438 10.425781 -10.667969 C 11.773438 -10.980469 13.171875 -11.171875 14.566406 -11.269531 C 14.785156 -11.292969 14.976562 -11.195312 15.097656 -11.027344 C 15.214844 -10.859375 15.242188 -10.640625 15.144531 -10.449219 C 12.566406 -5.175781 9.824219 -0.820312 9.773438 -0.722656 C 9.605469 -0.433594 9.679688 -0.046875 9.96875 0.121094 C 10.257812 0.3125 10.640625 0.242188 10.835938 -0.046875 C 13.074219 -3.636719 15.097656 -7.34375 16.878906 -11.171875 C 16.972656 -11.363281 17.167969 -11.484375 17.359375 -11.507812 C 18.996094 -11.628906 20.632812 -11.75 21.984375 -11.820312 C 22.152344 -11.820312 22.296875 -11.894531 22.414062 -12.039062 C 22.535156 -12.160156 22.585938 -12.328125 22.585938 -12.496094 C 22.535156 -12.832031 22.246094 -13.074219 21.910156 -13.074219 Z M 21.910156 -13.074219 "/></g></g></g><g fill="#523e27" fill-opacity="1"><g transform="translate(215.448045, 208.317825)"><g><path d="M 20.875 -6.765625 C 20.753906 -6.886719 20.585938 -6.933594 20.417969 -6.933594 C 20.25 -6.933594 20.105469 -6.863281 19.984375 -6.742188 C 17.816406 -4.453125 12.953125 -1.109375 9.390625 -1.109375 L 9.34375 -1.109375 C 8.355469 -1.058594 7.414062 -1.445312 6.742188 -2.144531 C 5.875 -3.082031 6.476562 -5.632812 6.765625 -6.453125 C 6.886719 -6.765625 6.742188 -7.101562 6.453125 -7.222656 C 6.1875 -7.367188 5.828125 -7.296875 5.65625 -7.03125 C 3.804688 -4.332031 1.15625 -1.710938 0.289062 -2.214844 C 0 -2.40625 0.433594 -4.261719 1.613281 -6.355469 C 1.757812 -6.644531 1.660156 -7.007812 1.371094 -7.175781 C 1.082031 -7.34375 0.699219 -7.269531 0.53125 -6.980469 C -0.289062 -5.5625 -2 -2.117188 -0.359375 -1.132812 C 0.9375 -0.359375 2.695312 -1.613281 4.164062 -3.128906 C 4.308594 -3.296875 4.527344 -3.347656 4.71875 -3.273438 C 4.910156 -3.226562 5.054688 -3.058594 5.105469 -2.839844 C 5.175781 -2.261719 5.417969 -1.734375 5.800781 -1.277344 C 6.71875 -0.3125 7.992188 0.214844 9.316406 0.167969 L 9.390625 0.167969 C 13.363281 0.167969 18.515625 -3.347656 20.898438 -5.851562 C 21.019531 -5.996094 21.066406 -6.140625 21.066406 -6.308594 C 21.066406 -6.476562 20.996094 -6.644531 20.875 -6.765625 Z M 20.875 -6.765625 "/></g></g></g><g fill="#523e27" fill-opacity="1"><g transform="translate(235.355371, 208.317825)"><g><path d="M 16.566406 -6.164062 C 16.445312 -6.285156 16.277344 -6.355469 16.109375 -6.355469 C 15.9375 -6.355469 15.769531 -6.285156 15.648438 -6.164062 C 15.601562 -6.117188 9.269531 0.121094 4.71875 -1.253906 C 3.105469 -1.734375 2.214844 -3.273438 1.710938 -4.910156 C 1.566406 -5.441406 1.613281 -6.019531 1.855469 -6.523438 C 3.539062 -9.945312 7.679688 -18.902344 5.632812 -21.089844 C 5.152344 -21.695312 4.359375 -21.886719 3.660156 -21.597656 C 1.226562 -20.539062 -0.386719 -13.433594 -0.0976562 -8.257812 C -0.046875 -7.464844 0.046875 -6.667969 0.191406 -5.875 C 0.191406 -5.777344 0.191406 -5.707031 0.242188 -5.632812 C 0.867188 -2.601562 2.289062 -0.648438 4.359375 -0.046875 C 4.9375 0.121094 5.515625 0.214844 6.089844 0.214844 C 10.980469 0.214844 16.300781 -5.03125 16.542969 -5.273438 C 16.660156 -5.394531 16.734375 -5.539062 16.734375 -5.707031 C 16.734375 -5.898438 16.683594 -6.042969 16.566406 -6.164062 Z M 1.226562 -8.621094 C 0.480469 -12.640625 2.960938 -19.9375 4.164062 -20.441406 C 4.214844 -20.464844 4.261719 -20.488281 4.308594 -20.488281 C 4.40625 -20.488281 4.527344 -20.441406 4.695312 -20.25 C 5.65625 -19.238281 2.914062 -10.523438 1.636719 -8.476562 C 1.515625 -8.257812 1.277344 -8.378906 1.226562 -8.621094 Z M 1.226562 -8.621094 "/></g></g></g><g fill="#523e27" fill-opacity="1"><g transform="translate(251.218643, 208.317825)"><g><path d="M 20.296875 -5.996094 C 20.054688 -6.261719 19.648438 -6.285156 19.40625 -6.042969 C 19.335938 -5.996094 12.398438 0.191406 2.695312 -1.566406 C 1.058594 -1.855469 0.214844 -2.480469 0.214844 -3.394531 C 0.191406 -5.082031 2.816406 -7.535156 4.550781 -7.875 C 5.082031 -8.042969 5.65625 -7.945312 6.140625 -7.632812 C 6.476562 -7.296875 6.667969 -6.8125 6.667969 -6.308594 C 6.667969 -5.972656 6.933594 -5.683594 7.269531 -5.683594 C 7.632812 -5.683594 7.898438 -5.945312 7.921875 -6.285156 C 7.945312 -7.152344 7.585938 -7.992188 6.957031 -8.59375 C 6.1875 -9.171875 5.226562 -9.367188 4.308594 -9.101562 C 2.214844 -8.714844 -1.058594 -5.921875 -1.035156 -3.371094 C -1.035156 -2.457031 -0.578125 -0.867188 2.480469 -0.3125 C 3.707031 -0.0976562 4.960938 0.0234375 6.234375 0.0234375 C 11.339844 -0.0234375 16.300781 -1.828125 20.25 -5.105469 C 20.371094 -5.226562 20.441406 -5.394531 20.464844 -5.539062 C 20.464844 -5.707031 20.394531 -5.875 20.296875 -5.996094 Z M 20.296875 -5.996094 "/></g></g></g><g fill="#523e27" fill-opacity="1"><g transform="translate(270.500095, 208.317825)"><g><path d="M 18.996094 -5.753906 C 18.757812 -6.019531 18.371094 -6.042969 18.105469 -5.800781 C 18.058594 -5.777344 13.097656 -1.445312 9.460938 -2.023438 C 8.378906 -2.191406 7.441406 -2.839844 6.910156 -3.804688 C 6.453125 -4.648438 5.609375 -5.175781 4.671875 -5.273438 C 3.492188 -5.34375 2.191406 -4.648438 0.820312 -3.203125 C 0.746094 -3.128906 0.625 -3.105469 0.53125 -3.152344 C 0.433594 -3.203125 0.386719 -3.296875 0.410156 -3.417969 C 0.480469 -3.875 0.699219 -5.03125 0.792969 -5.464844 C 0.792969 -5.394531 0.964844 -5.730469 0.964844 -5.753906 C 3.007812 -8.546875 9.125 -17.40625 6.742188 -20.25 C 6.429688 -20.683594 5.851562 -20.875 5.320312 -20.730469 C 4.839844 -20.585938 3.371094 -20.128906 1.109375 -12.085938 C 0.554688 -10.136719 0.046875 -8.042969 -0.359375 -6.066406 L -0.53125 -5.851562 C -0.699219 -5.632812 -0.699219 -5.34375 -0.554688 -5.105469 C -0.914062 -3.324219 -1.15625 -1.683594 -1.277344 -0.433594 C -1.300781 -0.144531 -1.132812 0.121094 -0.867188 0.214844 C -0.601562 0.3125 -0.289062 0.214844 -0.121094 -0.0234375 C 2.335938 -3.585938 3.902344 -4.046875 4.597656 -4.019531 C 5.105469 -3.972656 5.5625 -3.660156 5.800781 -3.203125 C 6.523438 -1.902344 7.800781 -0.988281 9.292969 -0.769531 C 13.484375 -0.121094 18.707031 -4.671875 18.949219 -4.863281 C 19.191406 -5.105469 19.214844 -5.488281 18.996094 -5.753906 Z M 5.683594 -19.527344 C 5.730469 -19.527344 5.753906 -19.453125 5.777344 -19.429688 C 6.933594 -18.128906 2.144531 -8.449219 1.539062 -8.835938 C 0.964844 -9.199219 4.671875 -19.527344 5.683594 -19.527344 Z M 5.683594 -19.527344 "/></g></g></g><g fill="#523e27" fill-opacity="1"><g transform="translate(288.69832, 208.317825)"><g><path d="M 20.199219 -6.1875 C 20.082031 -6.308594 19.9375 -6.40625 19.765625 -6.40625 C 19.597656 -6.429688 19.429688 -6.378906 19.308594 -6.285156 C 19.214844 -6.210938 9.945312 1.15625 2.214844 -2.023438 C 0.648438 -2.671875 0.578125 -3.515625 0.625 -3.972656 C 0.625 -4.046875 0.648438 -4.117188 0.722656 -4.164062 C 0.769531 -4.214844 0.867188 -4.214844 0.9375 -4.1875 C 2.503906 -4.09375 4.070312 -4.503906 5.417969 -5.34375 C 6.574219 -6.089844 6.765625 -6.910156 6.695312 -7.441406 C 6.644531 -8.304688 5.945312 -9.003906 5.054688 -9.027344 C 3.152344 -9.125 -0.0234375 -6.863281 -0.554688 -4.453125 C -0.769531 -3.5625 -0.746094 -1.878906 1.734375 -0.867188 C 3.25 -0.242188 4.839844 0.046875 6.453125 0.046875 C 13.363281 0.046875 19.765625 -5.03125 20.105469 -5.296875 C 20.226562 -5.394531 20.320312 -5.5625 20.320312 -5.707031 C 20.34375 -5.875 20.296875 -6.042969 20.199219 -6.1875 Z M 1.492188 -5.65625 C 2.433594 -6.957031 3.996094 -7.824219 4.984375 -7.753906 C 5.25 -7.753906 5.394531 -7.65625 5.441406 -7.296875 C 5.464844 -7.054688 5.199219 -6.71875 4.71875 -6.40625 C 3.730469 -5.753906 0.769531 -4.695312 1.492188 -5.65625 Z M 1.492188 -5.65625 "/></g></g></g><g fill="#523e27" fill-opacity="1"><g transform="translate(307.979772, 208.317825)"><g><path d="M 20.753906 -6.332031 C 20.632812 -6.453125 20.488281 -6.523438 20.320312 -6.523438 C 20.152344 -6.523438 19.984375 -6.453125 19.863281 -6.332031 C 15.699219 -2.261719 8.304688 -1.394531 6.71875 -2.335938 C 5.632812 -2.960938 5.753906 -3.707031 6.523438 -5.199219 C 6.886719 -5.921875 7.296875 -6.765625 6.597656 -7.269531 C 5.945312 -7.753906 5.320312 -7.441406 4.765625 -7.152344 C 3.972656 -6.695312 3.082031 -6.453125 2.144531 -6.453125 C 1.925781 -6.453125 1.734375 -6.839844 1.78125 -6.980469 C 3.128906 -9.945312 2.527344 -10.496094 2.3125 -10.714844 C 1.949219 -11.074219 1.394531 -11.050781 0.722656 -10.640625 C -0.386719 -9.847656 -0.867188 -8.425781 -0.480469 -7.101562 C -0.386719 -6.742188 -0.214844 -6.40625 0.0234375 -6.117188 C 0 -5.851562 0.121094 -5.609375 0.359375 -5.488281 C 0.503906 -5.417969 0.675781 -5.417969 0.84375 -5.464844 C 1.253906 -5.273438 1.710938 -5.175781 2.167969 -5.175781 C 3.152344 -5.152344 4.117188 -5.371094 4.984375 -5.851562 C 5.320312 -6.019531 5.441406 -5.875 5.394531 -5.777344 C 4.816406 -4.648438 3.78125 -2.578125 6.089844 -1.226562 C 6.910156 -0.84375 7.824219 -0.675781 8.738281 -0.746094 C 12.109375 -0.746094 17.40625 -2.191406 20.730469 -5.441406 C 20.851562 -5.539062 20.921875 -5.707031 20.921875 -5.875 C 20.945312 -6.042969 20.875 -6.210938 20.753906 -6.332031 Z M 0.699219 -7.65625 C 0.554688 -8.355469 0.792969 -9.078125 1.347656 -9.535156 C 1.179688 -8.882812 0.964844 -8.257812 0.699219 -7.632812 Z M 0.699219 -7.65625 "/></g></g></g><g fill="#523e27" fill-opacity="1"><g transform="translate(94.875767, 266.11882)"><g><path d="M 13.0625 -0.1875 C 13.09375 -0.1875 13.109375 -0.15625 13.109375 -0.09375 C 13.109375 -0.03125 13.09375 0 13.0625 0 C 12.71875 0 12.441406 -0.00390625 12.234375 -0.015625 L 11.140625 -0.03125 L 10.0625 -0.015625 C 9.894531 -0.00390625 9.65625 0 9.34375 0 C 9.320312 0 9.3125 -0.03125 9.3125 -0.09375 C 9.3125 -0.15625 9.320312 -0.1875 9.34375 -0.1875 C 9.707031 -0.1875 9.972656 -0.21875 10.140625 -0.28125 C 10.316406 -0.34375 10.429688 -0.445312 10.484375 -0.59375 C 10.546875 -0.738281 10.566406 -0.972656 10.546875 -1.296875 L 10.234375 -8.421875 L 6.65625 -0.109375 C 6.632812 -0.0664062 6.59375 -0.046875 6.53125 -0.046875 C 6.476562 -0.046875 6.429688 -0.0664062 6.390625 -0.109375 L 2.4375 -8.390625 L 2.296875 -1.796875 C 2.285156 -1.222656 2.382812 -0.8125 2.59375 -0.5625 C 2.800781 -0.3125 3.148438 -0.1875 3.640625 -0.1875 C 3.671875 -0.1875 3.6875 -0.15625 3.6875 -0.09375 C 3.6875 -0.03125 3.671875 0 3.640625 0 C 3.347656 0 3.117188 -0.00390625 2.953125 -0.015625 L 2.09375 -0.03125 L 1.234375 -0.015625 C 1.085938 -0.00390625 0.875 0 0.59375 0 C 0.5625 0 0.546875 -0.03125 0.546875 -0.09375 C 0.546875 -0.15625 0.5625 -0.1875 0.59375 -0.1875 C 1.03125 -0.1875 1.351562 -0.3125 1.5625 -0.5625 C 1.78125 -0.820312 1.894531 -1.234375 1.90625 -1.796875 L 2.046875 -9.078125 C 1.722656 -9.566406 1.273438 -9.8125 0.703125 -9.8125 C 0.671875 -9.8125 0.65625 -9.84375 0.65625 -9.90625 C 0.65625 -9.96875 0.671875 -10 0.703125 -10 L 1.328125 -9.984375 C 1.441406 -9.972656 1.597656 -9.96875 1.796875 -9.96875 C 2.003906 -9.96875 2.179688 -9.972656 2.328125 -9.984375 C 2.472656 -9.992188 2.585938 -10 2.671875 -10 C 2.804688 -10 2.914062 -9.953125 3 -9.859375 C 3.09375 -9.765625 3.226562 -9.535156 3.40625 -9.171875 L 6.96875 -1.8125 L 10.375 -9.59375 C 10.488281 -9.863281 10.644531 -10 10.84375 -10 C 10.894531 -10 10.972656 -9.992188 11.078125 -9.984375 C 11.191406 -9.972656 11.332031 -9.96875 11.5 -9.96875 L 12.296875 -9.984375 C 12.421875 -9.992188 12.601562 -10 12.84375 -10 C 12.863281 -10 12.875 -9.96875 12.875 -9.90625 C 12.875 -9.84375 12.863281 -9.8125 12.84375 -9.8125 C 12.3125 -9.8125 11.929688 -9.726562 11.703125 -9.5625 C 11.472656 -9.394531 11.363281 -9.097656 11.375 -8.671875 L 11.71875 -1.296875 C 11.738281 -0.960938 11.78125 -0.722656 11.84375 -0.578125 C 11.90625 -0.429688 12.023438 -0.328125 12.203125 -0.265625 C 12.378906 -0.210938 12.664062 -0.1875 13.0625 -0.1875 Z M 13.0625 -0.1875 "/></g></g></g><g fill="#523e27" fill-opacity="1"><g transform="translate(108.296539, 266.11882)"><g><path d="M 7.65625 -2.40625 C 7.65625 -2.4375 7.6875 -2.445312 7.75 -2.4375 C 7.820312 -2.4375 7.859375 -2.421875 7.859375 -2.390625 C 7.765625 -1.691406 7.71875 -0.972656 7.71875 -0.234375 C 7.71875 -0.148438 7.695312 -0.0859375 7.65625 -0.046875 C 7.613281 -0.015625 7.546875 0 7.453125 0 L 0.6875 0 C 0.664062 0 0.65625 -0.03125 0.65625 -0.09375 C 0.65625 -0.15625 0.664062 -0.1875 0.6875 -0.1875 C 1.082031 -0.1875 1.367188 -0.210938 1.546875 -0.265625 C 1.734375 -0.328125 1.859375 -0.429688 1.921875 -0.578125 C 1.984375 -0.734375 2.015625 -0.972656 2.015625 -1.296875 L 2.015625 -8.703125 C 2.015625 -9.023438 1.984375 -9.257812 1.921875 -9.40625 C 1.859375 -9.550781 1.734375 -9.65625 1.546875 -9.71875 C 1.367188 -9.78125 1.082031 -9.8125 0.6875 -9.8125 C 0.664062 -9.8125 0.65625 -9.84375 0.65625 -9.90625 C 0.65625 -9.96875 0.664062 -10 0.6875 -10 L 7.1875 -10 C 7.28125 -10 7.328125 -9.953125 7.328125 -9.859375 L 7.359375 -7.859375 C 7.359375 -7.828125 7.328125 -7.8125 7.265625 -7.8125 C 7.210938 -7.8125 7.1875 -7.828125 7.1875 -7.859375 C 7.125 -8.429688 6.925781 -8.867188 6.59375 -9.171875 C 6.257812 -9.484375 5.828125 -9.640625 5.296875 -9.640625 L 4.421875 -9.640625 C 3.910156 -9.640625 3.578125 -9.570312 3.421875 -9.4375 C 3.265625 -9.300781 3.1875 -9.035156 3.1875 -8.640625 L 3.1875 -5.375 L 5.03125 -5.375 C 5.5625 -5.375 5.945312 -5.460938 6.1875 -5.640625 C 6.425781 -5.828125 6.546875 -6.125 6.546875 -6.53125 C 6.546875 -6.550781 6.578125 -6.5625 6.640625 -6.5625 C 6.703125 -6.5625 6.734375 -6.550781 6.734375 -6.53125 L 6.71875 -5.203125 C 6.71875 -4.890625 6.722656 -4.65625 6.734375 -4.5 L 6.75 -3.703125 C 6.75 -3.671875 6.71875 -3.65625 6.65625 -3.65625 C 6.59375 -3.65625 6.5625 -3.671875 6.5625 -3.703125 C 6.5625 -4.171875 6.4375 -4.507812 6.1875 -4.71875 C 5.945312 -4.925781 5.546875 -5.03125 4.984375 -5.03125 L 3.1875 -5.03125 L 3.1875 -1.359375 C 3.1875 -1.078125 3.21875 -0.867188 3.28125 -0.734375 C 3.34375 -0.597656 3.453125 -0.5 3.609375 -0.4375 C 3.773438 -0.382812 4.023438 -0.359375 4.359375 -0.359375 L 5.484375 -0.359375 C 6.054688 -0.359375 6.523438 -0.535156 6.890625 -0.890625 C 7.265625 -1.242188 7.519531 -1.75 7.65625 -2.40625 Z M 7.65625 -2.40625 "/></g></g></g><g fill="#523e27" fill-opacity="1"><g transform="translate(116.934459, 266.11882)"><g><path d="M 11.3125 -10 C 11.34375 -10 11.359375 -9.96875 11.359375 -9.90625 C 11.359375 -9.84375 11.34375 -9.8125 11.3125 -9.8125 C 10.875 -9.8125 10.550781 -9.679688 10.34375 -9.421875 C 10.132812 -9.160156 10.03125 -8.75 10.03125 -8.1875 L 10.03125 0.1875 C 10.03125 0.21875 10.003906 0.238281 9.953125 0.25 C 9.898438 0.257812 9.863281 0.253906 9.84375 0.234375 L 2.390625 -8.6875 L 2.34375 -8.75 L 2.34375 -1.796875 C 2.34375 -1.234375 2.441406 -0.820312 2.640625 -0.5625 C 2.835938 -0.3125 3.148438 -0.1875 3.578125 -0.1875 C 3.609375 -0.1875 3.625 -0.15625 3.625 -0.09375 C 3.625 -0.03125 3.609375 0 3.578125 0 C 3.328125 0 3.125 -0.00390625 2.96875 -0.015625 L 2.15625 -0.03125 L 1.3125 -0.015625 C 1.15625 -0.00390625 0.925781 0 0.625 0 C 0.601562 0 0.59375 -0.03125 0.59375 -0.09375 C 0.59375 -0.15625 0.601562 -0.1875 0.625 -0.1875 C 1.082031 -0.1875 1.414062 -0.3125 1.625 -0.5625 C 1.832031 -0.820312 1.9375 -1.234375 1.9375 -1.796875 L 1.9375 -9.171875 C 1.5 -9.597656 1.054688 -9.8125 0.609375 -9.8125 C 0.578125 -9.8125 0.5625 -9.84375 0.5625 -9.90625 C 0.5625 -9.96875 0.578125 -10 0.609375 -10 L 1.203125 -9.984375 C 1.328125 -9.972656 1.507812 -9.96875 1.75 -9.96875 L 2.5 -9.984375 C 2.582031 -9.992188 2.691406 -10 2.828125 -10 C 2.910156 -10 2.972656 -9.976562 3.015625 -9.9375 C 3.054688 -9.90625 3.117188 -9.828125 3.203125 -9.703125 C 3.328125 -9.503906 3.453125 -9.328125 3.578125 -9.171875 L 9.625 -1.84375 L 9.625 -8.1875 C 9.625 -8.75 9.53125 -9.160156 9.34375 -9.421875 C 9.15625 -9.679688 8.84375 -9.8125 8.40625 -9.8125 C 8.382812 -9.8125 8.375 -9.84375 8.375 -9.90625 C 8.375 -9.96875 8.382812 -10 8.40625 -10 L 9.03125 -9.984375 C 9.363281 -9.960938 9.632812 -9.953125 9.84375 -9.953125 C 10.039062 -9.953125 10.3125 -9.960938 10.65625 -9.984375 Z M 11.3125 -10 "/></g></g></g><g fill="#523e27" fill-opacity="1"><g transform="translate(128.579657, 266.11882)"><g><path d="M 3.109375 -9.703125 C 2.441406 -9.703125 1.929688 -9.519531 1.578125 -9.15625 C 1.222656 -8.800781 0.960938 -8.21875 0.796875 -7.40625 C 0.785156 -7.375 0.75 -7.359375 0.6875 -7.359375 C 0.632812 -7.367188 0.609375 -7.382812 0.609375 -7.40625 C 0.648438 -7.707031 0.695312 -8.1875 0.75 -8.84375 C 0.800781 -9.507812 0.828125 -10.015625 0.828125 -10.359375 C 0.828125 -10.410156 0.859375 -10.4375 0.921875 -10.4375 C 0.992188 -10.4375 1.03125 -10.410156 1.03125 -10.359375 C 1.03125 -10.117188 1.316406 -10 1.890625 -10 C 2.804688 -9.96875 3.878906 -9.953125 5.109375 -9.953125 C 5.734375 -9.953125 6.398438 -9.960938 7.109375 -9.984375 L 8.1875 -10 C 8.570312 -10 8.859375 -10.023438 9.046875 -10.078125 C 9.234375 -10.128906 9.351562 -10.238281 9.40625 -10.40625 C 9.414062 -10.445312 9.445312 -10.46875 9.5 -10.46875 C 9.550781 -10.46875 9.578125 -10.445312 9.578125 -10.40625 C 9.546875 -10.09375 9.515625 -9.613281 9.484375 -8.96875 C 9.453125 -8.320312 9.4375 -7.800781 9.4375 -7.40625 C 9.4375 -7.382812 9.40625 -7.375 9.34375 -7.375 C 9.289062 -7.375 9.257812 -7.382812 9.25 -7.40625 C 9.207031 -8.226562 9.015625 -8.816406 8.671875 -9.171875 C 8.335938 -9.523438 7.820312 -9.703125 7.125 -9.703125 C 6.695312 -9.703125 6.390625 -9.675781 6.203125 -9.625 C 6.015625 -9.582031 5.882812 -9.492188 5.8125 -9.359375 C 5.75 -9.222656 5.71875 -8.992188 5.71875 -8.671875 L 5.71875 -1.296875 C 5.71875 -0.960938 5.75 -0.722656 5.8125 -0.578125 C 5.882812 -0.429688 6.023438 -0.328125 6.234375 -0.265625 C 6.441406 -0.210938 6.773438 -0.1875 7.234375 -0.1875 C 7.253906 -0.1875 7.265625 -0.15625 7.265625 -0.09375 C 7.265625 -0.03125 7.253906 0 7.234375 0 C 6.867188 0 6.582031 -0.00390625 6.375 -0.015625 L 5.109375 -0.03125 L 3.890625 -0.015625 C 3.671875 -0.00390625 3.367188 0 2.984375 0 C 2.960938 0 2.953125 -0.03125 2.953125 -0.09375 C 2.953125 -0.15625 2.960938 -0.1875 2.984375 -0.1875 C 3.429688 -0.1875 3.757812 -0.210938 3.96875 -0.265625 C 4.1875 -0.328125 4.332031 -0.429688 4.40625 -0.578125 C 4.488281 -0.734375 4.53125 -0.972656 4.53125 -1.296875 L 4.53125 -8.703125 C 4.53125 -9.015625 4.492188 -9.234375 4.421875 -9.359375 C 4.347656 -9.492188 4.21875 -9.582031 4.03125 -9.625 C 3.851562 -9.675781 3.546875 -9.703125 3.109375 -9.703125 Z M 3.109375 -9.703125 "/></g></g></g><g fill="#523e27" fill-opacity="1"><g transform="translate(138.753213, 266.11882)"><g><path d="M 5.859375 0.1875 C 4.867188 0.1875 3.984375 -0.0390625 3.203125 -0.5 C 2.429688 -0.96875 1.832031 -1.597656 1.40625 -2.390625 C 0.988281 -3.179688 0.78125 -4.046875 0.78125 -4.984375 C 0.78125 -6.085938 1.054688 -7.03125 1.609375 -7.8125 C 2.171875 -8.59375 2.882812 -9.179688 3.75 -9.578125 C 4.625 -9.972656 5.515625 -10.171875 6.421875 -10.171875 C 7.429688 -10.171875 8.316406 -9.929688 9.078125 -9.453125 C 9.847656 -8.984375 10.4375 -8.359375 10.84375 -7.578125 C 11.257812 -6.804688 11.46875 -5.984375 11.46875 -5.109375 C 11.46875 -4.128906 11.210938 -3.234375 10.703125 -2.421875 C 10.191406 -1.617188 9.503906 -0.984375 8.640625 -0.515625 C 7.785156 -0.046875 6.859375 0.1875 5.859375 0.1875 Z M 6.421875 -0.15625 C 7.117188 -0.15625 7.75 -0.332031 8.3125 -0.6875 C 8.875 -1.039062 9.316406 -1.554688 9.640625 -2.234375 C 9.960938 -2.910156 10.125 -3.71875 10.125 -4.65625 C 10.125 -5.644531 9.945312 -6.53125 9.59375 -7.3125 C 9.238281 -8.09375 8.726562 -8.703125 8.0625 -9.140625 C 7.40625 -9.578125 6.640625 -9.796875 5.765625 -9.796875 C 4.617188 -9.796875 3.722656 -9.414062 3.078125 -8.65625 C 2.441406 -7.90625 2.125 -6.867188 2.125 -5.546875 C 2.125 -4.546875 2.304688 -3.632812 2.671875 -2.8125 C 3.035156 -1.988281 3.539062 -1.335938 4.1875 -0.859375 C 4.84375 -0.390625 5.585938 -0.15625 6.421875 -0.15625 Z M 6.421875 -0.15625 "/></g></g></g><g fill="#523e27" fill-opacity="1"><g transform="translate(151.006264, 266.11882)"><g><path d="M 10.984375 -0.1875 C 11.023438 -0.1875 11.046875 -0.15625 11.046875 -0.09375 C 11.046875 -0.03125 11.023438 0 10.984375 0 L 8.796875 0 C 8.546875 0 8.0625 -0.429688 7.34375 -1.296875 C 6.632812 -2.171875 5.769531 -3.382812 4.75 -4.9375 C 4.457031 -4.882812 4.191406 -4.859375 3.953125 -4.859375 C 3.898438 -4.859375 3.648438 -4.875 3.203125 -4.90625 L 3.203125 -1.296875 C 3.203125 -0.960938 3.234375 -0.722656 3.296875 -0.578125 C 3.359375 -0.429688 3.476562 -0.328125 3.65625 -0.265625 C 3.84375 -0.210938 4.132812 -0.1875 4.53125 -0.1875 C 4.5625 -0.1875 4.578125 -0.15625 4.578125 -0.09375 C 4.578125 -0.03125 4.5625 0 4.53125 0 C 4.1875 0 3.925781 -0.00390625 3.75 -0.015625 L 2.609375 -0.03125 L 1.5 -0.015625 C 1.300781 -0.00390625 1.03125 0 0.6875 0 C 0.664062 0 0.65625 -0.03125 0.65625 -0.09375 C 0.65625 -0.15625 0.664062 -0.1875 0.6875 -0.1875 C 1.082031 -0.1875 1.367188 -0.210938 1.546875 -0.265625 C 1.734375 -0.328125 1.859375 -0.429688 1.921875 -0.578125 C 1.992188 -0.734375 2.03125 -0.972656 2.03125 -1.296875 L 2.03125 -8.703125 C 2.03125 -9.023438 2 -9.257812 1.9375 -9.40625 C 1.875 -9.550781 1.75 -9.65625 1.5625 -9.71875 C 1.382812 -9.78125 1.101562 -9.8125 0.71875 -9.8125 C 0.6875 -9.8125 0.671875 -9.84375 0.671875 -9.90625 C 0.671875 -9.96875 0.6875 -10 0.71875 -10 L 1.5 -9.984375 C 1.945312 -9.960938 2.316406 -9.953125 2.609375 -9.953125 C 2.828125 -9.953125 3.035156 -9.957031 3.234375 -9.96875 C 3.441406 -9.976562 3.625 -9.988281 3.78125 -10 C 4.175781 -10.03125 4.539062 -10.046875 4.875 -10.046875 C 5.726562 -10.046875 6.390625 -9.851562 6.859375 -9.46875 C 7.335938 -9.09375 7.578125 -8.585938 7.578125 -7.953125 C 7.578125 -7.378906 7.410156 -6.859375 7.078125 -6.390625 C 6.742188 -5.921875 6.300781 -5.550781 5.75 -5.28125 C 6.644531 -3.988281 7.390625 -2.976562 7.984375 -2.25 C 8.585938 -1.53125 9.125 -1.003906 9.59375 -0.671875 C 10.070312 -0.347656 10.535156 -0.1875 10.984375 -0.1875 Z M 3.203125 -5.296875 C 3.492188 -5.265625 3.804688 -5.25 4.140625 -5.25 C 4.941406 -5.25 5.515625 -5.425781 5.859375 -5.78125 C 6.203125 -6.132812 6.375 -6.691406 6.375 -7.453125 C 6.375 -8.296875 6.195312 -8.894531 5.84375 -9.25 C 5.488281 -9.613281 4.976562 -9.796875 4.3125 -9.796875 C 3.90625 -9.796875 3.617188 -9.71875 3.453125 -9.5625 C 3.285156 -9.40625 3.203125 -9.109375 3.203125 -8.671875 Z M 3.203125 -5.296875 "/></g></g></g><g fill="#523e27" fill-opacity="1"><g transform="translate(161.851658, 266.11882)"><g><path d="M 11.234375 -0.1875 C 11.273438 -0.1875 11.296875 -0.15625 11.296875 -0.09375 C 11.296875 -0.03125 11.273438 0 11.234375 0 C 11.023438 0 10.707031 -0.0078125 10.28125 -0.03125 C 9.851562 -0.0507812 9.539062 -0.0625 9.34375 -0.0625 C 9.09375 -0.0625 8.789062 -0.0507812 8.4375 -0.03125 C 8.09375 -0.0078125 7.820312 0 7.625 0 C 7.582031 0 7.5625 -0.03125 7.5625 -0.09375 C 7.5625 -0.15625 7.582031 -0.1875 7.625 -0.1875 C 8.007812 -0.1875 8.285156 -0.222656 8.453125 -0.296875 C 8.617188 -0.367188 8.703125 -0.492188 8.703125 -0.671875 C 8.703125 -0.828125 8.628906 -1.066406 8.484375 -1.390625 L 7.109375 -4.265625 L 3.28125 -4.265625 L 2.34375 -2.078125 C 2.195312 -1.753906 2.125 -1.460938 2.125 -1.203125 C 2.125 -0.523438 2.644531 -0.1875 3.6875 -0.1875 C 3.738281 -0.1875 3.765625 -0.15625 3.765625 -0.09375 C 3.765625 -0.03125 3.738281 0 3.6875 0 C 3.488281 0 3.207031 -0.0078125 2.84375 -0.03125 C 2.4375 -0.0507812 2.085938 -0.0625 1.796875 -0.0625 C 1.523438 -0.0625 1.195312 -0.0507812 0.8125 -0.03125 C 0.5 -0.0078125 0.226562 0 0 0 C -0.0507812 0 -0.078125 -0.03125 -0.078125 -0.09375 C -0.078125 -0.15625 -0.0507812 -0.1875 0 -0.1875 C 0.300781 -0.1875 0.554688 -0.242188 0.765625 -0.359375 C 0.972656 -0.472656 1.171875 -0.671875 1.359375 -0.953125 C 1.546875 -1.242188 1.757812 -1.664062 2 -2.21875 L 5.375 -10.125 C 5.394531 -10.15625 5.4375 -10.171875 5.5 -10.171875 C 5.5625 -10.171875 5.597656 -10.15625 5.609375 -10.125 L 9.421875 -2.1875 C 9.785156 -1.414062 10.09375 -0.890625 10.34375 -0.609375 C 10.601562 -0.328125 10.898438 -0.1875 11.234375 -0.1875 Z M 3.421875 -4.609375 L 6.9375 -4.609375 L 5.09375 -8.484375 Z M 3.421875 -4.609375 "/></g></g></g><g fill="#523e27" fill-opacity="1"><g transform="translate(173.112952, 266.11882)"><g/></g></g><g fill="#523e27" fill-opacity="1"><g transform="translate(176.856051, 266.11882)"><g><path d="M 7.65625 -2.40625 C 7.65625 -2.4375 7.6875 -2.445312 7.75 -2.4375 C 7.820312 -2.4375 7.859375 -2.421875 7.859375 -2.390625 C 7.765625 -1.691406 7.71875 -0.972656 7.71875 -0.234375 C 7.71875 -0.148438 7.695312 -0.0859375 7.65625 -0.046875 C 7.613281 -0.015625 7.546875 0 7.453125 0 L 0.6875 0 C 0.664062 0 0.65625 -0.03125 0.65625 -0.09375 C 0.65625 -0.15625 0.664062 -0.1875 0.6875 -0.1875 C 1.082031 -0.1875 1.367188 -0.210938 1.546875 -0.265625 C 1.734375 -0.328125 1.859375 -0.429688 1.921875 -0.578125 C 1.984375 -0.734375 2.015625 -0.972656 2.015625 -1.296875 L 2.015625 -8.703125 C 2.015625 -9.023438 1.984375 -9.257812 1.921875 -9.40625 C 1.859375 -9.550781 1.734375 -9.65625 1.546875 -9.71875 C 1.367188 -9.78125 1.082031 -9.8125 0.6875 -9.8125 C 0.664062 -9.8125 0.65625 -9.84375 0.65625 -9.90625 C 0.65625 -9.96875 0.664062 -10 0.6875 -10 L 7.1875 -10 C 7.28125 -10 7.328125 -9.953125 7.328125 -9.859375 L 7.359375 -7.859375 C 7.359375 -7.828125 7.328125 -7.8125 7.265625 -7.8125 C 7.210938 -7.8125 7.1875 -7.828125 7.1875 -7.859375 C 7.125 -8.429688 6.925781 -8.867188 6.59375 -9.171875 C 6.257812 -9.484375 5.828125 -9.640625 5.296875 -9.640625 L 4.421875 -9.640625 C 3.910156 -9.640625 3.578125 -9.570312 3.421875 -9.4375 C 3.265625 -9.300781 3.1875 -9.035156 3.1875 -8.640625 L 3.1875 -5.375 L 5.03125 -5.375 C 5.5625 -5.375 5.945312 -5.460938 6.1875 -5.640625 C 6.425781 -5.828125 6.546875 -6.125 6.546875 -6.53125 C 6.546875 -6.550781 6.578125 -6.5625 6.640625 -6.5625 C 6.703125 -6.5625 6.734375 -6.550781 6.734375 -6.53125 L 6.71875 -5.203125 C 6.71875 -4.890625 6.722656 -4.65625 6.734375 -4.5 L 6.75 -3.703125 C 6.75 -3.671875 6.71875 -3.65625 6.65625 -3.65625 C 6.59375 -3.65625 6.5625 -3.671875 6.5625 -3.703125 C 6.5625 -4.171875 6.4375 -4.507812 6.1875 -4.71875 C 5.945312 -4.925781 5.546875 -5.03125 4.984375 -5.03125 L 3.1875 -5.03125 L 3.1875 -1.359375 C 3.1875 -1.078125 3.21875 -0.867188 3.28125 -0.734375 C 3.34375 -0.597656 3.453125 -0.5 3.609375 -0.4375 C 3.773438 -0.382812 4.023438 -0.359375 4.359375 -0.359375 L 5.484375 -0.359375 C 6.054688 -0.359375 6.523438 -0.535156 6.890625 -0.890625 C 7.265625 -1.242188 7.519531 -1.75 7.65625 -2.40625 Z M 7.65625 -2.40625 "/></g></g></g><g fill="#523e27" fill-opacity="1"><g transform="translate(185.493971, 266.11882)"><g/></g></g><g fill="#523e27" fill-opacity="1"><g transform="translate(189.23707, 266.11882)"><g><path d="M 3.109375 -9.703125 C 2.441406 -9.703125 1.929688 -9.519531 1.578125 -9.15625 C 1.222656 -8.800781 0.960938 -8.21875 0.796875 -7.40625 C 0.785156 -7.375 0.75 -7.359375 0.6875 -7.359375 C 0.632812 -7.367188 0.609375 -7.382812 0.609375 -7.40625 C 0.648438 -7.707031 0.695312 -8.1875 0.75 -8.84375 C 0.800781 -9.507812 0.828125 -10.015625 0.828125 -10.359375 C 0.828125 -10.410156 0.859375 -10.4375 0.921875 -10.4375 C 0.992188 -10.4375 1.03125 -10.410156 1.03125 -10.359375 C 1.03125 -10.117188 1.316406 -10 1.890625 -10 C 2.804688 -9.96875 3.878906 -9.953125 5.109375 -9.953125 C 5.734375 -9.953125 6.398438 -9.960938 7.109375 -9.984375 L 8.1875 -10 C 8.570312 -10 8.859375 -10.023438 9.046875 -10.078125 C 9.234375 -10.128906 9.351562 -10.238281 9.40625 -10.40625 C 9.414062 -10.445312 9.445312 -10.46875 9.5 -10.46875 C 9.550781 -10.46875 9.578125 -10.445312 9.578125 -10.40625 C 9.546875 -10.09375 9.515625 -9.613281 9.484375 -8.96875 C 9.453125 -8.320312 9.4375 -7.800781 9.4375 -7.40625 C 9.4375 -7.382812 9.40625 -7.375 9.34375 -7.375 C 9.289062 -7.375 9.257812 -7.382812 9.25 -7.40625 C 9.207031 -8.226562 9.015625 -8.816406 8.671875 -9.171875 C 8.335938 -9.523438 7.820312 -9.703125 7.125 -9.703125 C 6.695312 -9.703125 6.390625 -9.675781 6.203125 -9.625 C 6.015625 -9.582031 5.882812 -9.492188 5.8125 -9.359375 C 5.75 -9.222656 5.71875 -8.992188 5.71875 -8.671875 L 5.71875 -1.296875 C 5.71875 -0.960938 5.75 -0.722656 5.8125 -0.578125 C 5.882812 -0.429688 6.023438 -0.328125 6.234375 -0.265625 C 6.441406 -0.210938 6.773438 -0.1875 7.234375 -0.1875 C 7.253906 -0.1875 7.265625 -0.15625 7.265625 -0.09375 C 7.265625 -0.03125 7.253906 0 7.234375 0 C 6.867188 0 6.582031 -0.00390625 6.375 -0.015625 L 5.109375 -0.03125 L 3.890625 -0.015625 C 3.671875 -0.00390625 3.367188 0 2.984375 0 C 2.960938 0 2.953125 -0.03125 2.953125 -0.09375 C 2.953125 -0.15625 2.960938 -0.1875 2.984375 -0.1875 C 3.429688 -0.1875 3.757812 -0.210938 3.96875 -0.265625 C 4.1875 -0.328125 4.332031 -0.429688 4.40625 -0.578125 C 4.488281 -0.734375 4.53125 -0.972656 4.53125 -1.296875 L 4.53125 -8.703125 C 4.53125 -9.015625 4.492188 -9.234375 4.421875 -9.359375 C 4.347656 -9.492188 4.21875 -9.582031 4.03125 -9.625 C 3.851562 -9.675781 3.546875 -9.703125 3.109375 -9.703125 Z M 3.109375 -9.703125 "/></g></g></g><g fill="#523e27" fill-opacity="1"><g transform="translate(199.410627, 266.11882)"><g><path d="M 7.65625 -2.40625 C 7.65625 -2.4375 7.6875 -2.445312 7.75 -2.4375 C 7.820312 -2.4375 7.859375 -2.421875 7.859375 -2.390625 C 7.765625 -1.691406 7.71875 -0.972656 7.71875 -0.234375 C 7.71875 -0.148438 7.695312 -0.0859375 7.65625 -0.046875 C 7.613281 -0.015625 7.546875 0 7.453125 0 L 0.6875 0 C 0.664062 0 0.65625 -0.03125 0.65625 -0.09375 C 0.65625 -0.15625 0.664062 -0.1875 0.6875 -0.1875 C 1.082031 -0.1875 1.367188 -0.210938 1.546875 -0.265625 C 1.734375 -0.328125 1.859375 -0.429688 1.921875 -0.578125 C 1.984375 -0.734375 2.015625 -0.972656 2.015625 -1.296875 L 2.015625 -8.703125 C 2.015625 -9.023438 1.984375 -9.257812 1.921875 -9.40625 C 1.859375 -9.550781 1.734375 -9.65625 1.546875 -9.71875 C 1.367188 -9.78125 1.082031 -9.8125 0.6875 -9.8125 C 0.664062 -9.8125 0.65625 -9.84375 0.65625 -9.90625 C 0.65625 -9.96875 0.664062 -10 0.6875 -10 L 7.1875 -10 C 7.28125 -10 7.328125 -9.953125 7.328125 -9.859375 L 7.359375 -7.859375 C 7.359375 -7.828125 7.328125 -7.8125 7.265625 -7.8125 C 7.210938 -7.8125 7.1875 -7.828125 7.1875 -7.859375 C 7.125 -8.429688 6.925781 -8.867188 6.59375 -9.171875 C 6.257812 -9.484375 5.828125 -9.640625 5.296875 -9.640625 L 4.421875 -9.640625 C 3.910156 -9.640625 3.578125 -9.570312 3.421875 -9.4375 C 3.265625 -9.300781 3.1875 -9.035156 3.1875 -8.640625 L 3.1875 -5.375 L 5.03125 -5.375 C 5.5625 -5.375 5.945312 -5.460938 6.1875 -5.640625 C 6.425781 -5.828125 6.546875 -6.125 6.546875 -6.53125 C 6.546875 -6.550781 6.578125 -6.5625 6.640625 -6.5625 C 6.703125 -6.5625 6.734375 -6.550781 6.734375 -6.53125 L 6.71875 -5.203125 C 6.71875 -4.890625 6.722656 -4.65625 6.734375 -4.5 L 6.75 -3.703125 C 6.75 -3.671875 6.71875 -3.65625 6.65625 -3.65625 C 6.59375 -3.65625 6.5625 -3.671875 6.5625 -3.703125 C 6.5625 -4.171875 6.4375 -4.507812 6.1875 -4.71875 C 5.945312 -4.925781 5.546875 -5.03125 4.984375 -5.03125 L 3.1875 -5.03125 L 3.1875 -1.359375 C 3.1875 -1.078125 3.21875 -0.867188 3.28125 -0.734375 C 3.34375 -0.597656 3.453125 -0.5 3.609375 -0.4375 C 3.773438 -0.382812 4.023438 -0.359375 4.359375 -0.359375 L 5.484375 -0.359375 C 6.054688 -0.359375 6.523438 -0.535156 6.890625 -0.890625 C 7.265625 -1.242188 7.519531 -1.75 7.65625 -2.40625 Z M 7.65625 -2.40625 "/></g></g></g><g fill="#523e27" fill-opacity="1"><g transform="translate(208.048546, 266.11882)"><g><path d="M 10.984375 -0.1875 C 11.023438 -0.1875 11.046875 -0.15625 11.046875 -0.09375 C 11.046875 -0.03125 11.023438 0 10.984375 0 L 8.796875 0 C 8.546875 0 8.0625 -0.429688 7.34375 -1.296875 C 6.632812 -2.171875 5.769531 -3.382812 4.75 -4.9375 C 4.457031 -4.882812 4.191406 -4.859375 3.953125 -4.859375 C 3.898438 -4.859375 3.648438 -4.875 3.203125 -4.90625 L 3.203125 -1.296875 C 3.203125 -0.960938 3.234375 -0.722656 3.296875 -0.578125 C 3.359375 -0.429688 3.476562 -0.328125 3.65625 -0.265625 C 3.84375 -0.210938 4.132812 -0.1875 4.53125 -0.1875 C 4.5625 -0.1875 4.578125 -0.15625 4.578125 -0.09375 C 4.578125 -0.03125 4.5625 0 4.53125 0 C 4.1875 0 3.925781 -0.00390625 3.75 -0.015625 L 2.609375 -0.03125 L 1.5 -0.015625 C 1.300781 -0.00390625 1.03125 0 0.6875 0 C 0.664062 0 0.65625 -0.03125 0.65625 -0.09375 C 0.65625 -0.15625 0.664062 -0.1875 0.6875 -0.1875 C 1.082031 -0.1875 1.367188 -0.210938 1.546875 -0.265625 C 1.734375 -0.328125 1.859375 -0.429688 1.921875 -0.578125 C 1.992188 -0.734375 2.03125 -0.972656 2.03125 -1.296875 L 2.03125 -8.703125 C 2.03125 -9.023438 2 -9.257812 1.9375 -9.40625 C 1.875 -9.550781 1.75 -9.65625 1.5625 -9.71875 C 1.382812 -9.78125 1.101562 -9.8125 0.71875 -9.8125 C 0.6875 -9.8125 0.671875 -9.84375 0.671875 -9.90625 C 0.671875 -9.96875 0.6875 -10 0.71875 -10 L 1.5 -9.984375 C 1.945312 -9.960938 2.316406 -9.953125 2.609375 -9.953125 C 2.828125 -9.953125 3.035156 -9.957031 3.234375 -9.96875 C 3.441406 -9.976562 3.625 -9.988281 3.78125 -10 C 4.175781 -10.03125 4.539062 -10.046875 4.875 -10.046875 C 5.726562 -10.046875 6.390625 -9.851562 6.859375 -9.46875 C 7.335938 -9.09375 7.578125 -8.585938 7.578125 -7.953125 C 7.578125 -7.378906 7.410156 -6.859375 7.078125 -6.390625 C 6.742188 -5.921875 6.300781 -5.550781 5.75 -5.28125 C 6.644531 -3.988281 7.390625 -2.976562 7.984375 -2.25 C 8.585938 -1.53125 9.125 -1.003906 9.59375 -0.671875 C 10.070312 -0.347656 10.535156 -0.1875 10.984375 -0.1875 Z M 3.203125 -5.296875 C 3.492188 -5.265625 3.804688 -5.25 4.140625 -5.25 C 4.941406 -5.25 5.515625 -5.425781 5.859375 -5.78125 C 6.203125 -6.132812 6.375 -6.691406 6.375 -7.453125 C 6.375 -8.296875 6.195312 -8.894531 5.84375 -9.25 C 5.488281 -9.613281 4.976562 -9.796875 4.3125 -9.796875 C 3.90625 -9.796875 3.617188 -9.71875 3.453125 -9.5625 C 3.285156 -9.40625 3.203125 -9.109375 3.203125 -8.671875 Z M 3.203125 -5.296875 "/></g></g></g><g fill="#523e27" fill-opacity="1"><g transform="translate(218.89394, 266.11882)"><g><path d="M 11.234375 -0.1875 C 11.273438 -0.1875 11.296875 -0.15625 11.296875 -0.09375 C 11.296875 -0.03125 11.273438 0 11.234375 0 C 11.023438 0 10.707031 -0.0078125 10.28125 -0.03125 C 9.851562 -0.0507812 9.539062 -0.0625 9.34375 -0.0625 C 9.09375 -0.0625 8.789062 -0.0507812 8.4375 -0.03125 C 8.09375 -0.0078125 7.820312 0 7.625 0 C 7.582031 0 7.5625 -0.03125 7.5625 -0.09375 C 7.5625 -0.15625 7.582031 -0.1875 7.625 -0.1875 C 8.007812 -0.1875 8.285156 -0.222656 8.453125 -0.296875 C 8.617188 -0.367188 8.703125 -0.492188 8.703125 -0.671875 C 8.703125 -0.828125 8.628906 -1.066406 8.484375 -1.390625 L 7.109375 -4.265625 L 3.28125 -4.265625 L 2.34375 -2.078125 C 2.195312 -1.753906 2.125 -1.460938 2.125 -1.203125 C 2.125 -0.523438 2.644531 -0.1875 3.6875 -0.1875 C 3.738281 -0.1875 3.765625 -0.15625 3.765625 -0.09375 C 3.765625 -0.03125 3.738281 0 3.6875 0 C 3.488281 0 3.207031 -0.0078125 2.84375 -0.03125 C 2.4375 -0.0507812 2.085938 -0.0625 1.796875 -0.0625 C 1.523438 -0.0625 1.195312 -0.0507812 0.8125 -0.03125 C 0.5 -0.0078125 0.226562 0 0 0 C -0.0507812 0 -0.078125 -0.03125 -0.078125 -0.09375 C -0.078125 -0.15625 -0.0507812 -0.1875 0 -0.1875 C 0.300781 -0.1875 0.554688 -0.242188 0.765625 -0.359375 C 0.972656 -0.472656 1.171875 -0.671875 1.359375 -0.953125 C 1.546875 -1.242188 1.757812 -1.664062 2 -2.21875 L 5.375 -10.125 C 5.394531 -10.15625 5.4375 -10.171875 5.5 -10.171875 C 5.5625 -10.171875 5.597656 -10.15625 5.609375 -10.125 L 9.421875 -2.1875 C 9.785156 -1.414062 10.09375 -0.890625 10.34375 -0.609375 C 10.601562 -0.328125 10.898438 -0.1875 11.234375 -0.1875 Z M 3.421875 -4.609375 L 6.9375 -4.609375 L 5.09375 -8.484375 Z M 3.421875 -4.609375 "/></g></g></g><g fill="#523e27" fill-opacity="1"><g transform="translate(230.155234, 266.11882)"><g><path d="M 3.140625 -1.359375 C 3.140625 -1.015625 3.179688 -0.765625 3.265625 -0.609375 C 3.347656 -0.460938 3.515625 -0.351562 3.765625 -0.28125 C 4.023438 -0.21875 4.425781 -0.1875 4.96875 -0.1875 C 5.007812 -0.1875 5.03125 -0.15625 5.03125 -0.09375 C 5.03125 -0.03125 5.007812 0 4.96875 0 C 4.53125 0 4.191406 -0.00390625 3.953125 -0.015625 L 2.5625 -0.03125 L 1.46875 -0.015625 C 1.28125 -0.00390625 1.007812 0 0.65625 0 C 0.625 0 0.609375 -0.03125 0.609375 -0.09375 C 0.609375 -0.15625 0.625 -0.1875 0.65625 -0.1875 C 1.039062 -0.1875 1.320312 -0.210938 1.5 -0.265625 C 1.6875 -0.328125 1.8125 -0.429688 1.875 -0.578125 C 1.9375 -0.734375 1.96875 -0.972656 1.96875 -1.296875 L 1.96875 -8.703125 C 1.96875 -9.023438 1.9375 -9.257812 1.875 -9.40625 C 1.8125 -9.550781 1.6875 -9.65625 1.5 -9.71875 C 1.320312 -9.78125 1.039062 -9.8125 0.65625 -9.8125 C 0.625 -9.8125 0.609375 -9.84375 0.609375 -9.90625 C 0.609375 -9.96875 0.625 -10 0.65625 -10 L 1.46875 -9.984375 C 1.914062 -9.960938 2.273438 -9.953125 2.546875 -9.953125 C 2.796875 -9.953125 3.097656 -9.96875 3.453125 -10 C 3.578125 -10 3.773438 -10.003906 4.046875 -10.015625 C 4.328125 -10.035156 4.566406 -10.046875 4.765625 -10.046875 C 5.753906 -10.046875 6.550781 -9.820312 7.15625 -9.375 C 7.757812 -8.9375 8.0625 -8.269531 8.0625 -7.375 C 8.0625 -6.6875 7.890625 -6.097656 7.546875 -5.609375 C 7.203125 -5.128906 6.757812 -4.769531 6.21875 -4.53125 C 5.675781 -4.300781 5.117188 -4.1875 4.546875 -4.1875 C 4.234375 -4.1875 3.972656 -4.210938 3.765625 -4.265625 C 3.742188 -4.265625 3.734375 -4.296875 3.734375 -4.359375 C 3.734375 -4.390625 3.738281 -4.421875 3.75 -4.453125 C 3.769531 -4.484375 3.789062 -4.492188 3.8125 -4.484375 C 3.96875 -4.441406 4.15625 -4.421875 4.375 -4.421875 C 5.03125 -4.421875 5.585938 -4.648438 6.046875 -5.109375 C 6.503906 -5.566406 6.734375 -6.226562 6.734375 -7.09375 C 6.734375 -7.9375 6.515625 -8.597656 6.078125 -9.078125 C 5.640625 -9.554688 5.066406 -9.796875 4.359375 -9.796875 C 4.003906 -9.796875 3.742188 -9.769531 3.578125 -9.71875 C 3.421875 -9.664062 3.304688 -9.5625 3.234375 -9.40625 C 3.171875 -9.257812 3.140625 -9.015625 3.140625 -8.671875 Z M 3.140625 -1.359375 "/></g></g></g><g fill="#523e27" fill-opacity="1"><g transform="translate(238.857149, 266.11882)"><g><path d="M 7.65625 -2.40625 C 7.65625 -2.4375 7.6875 -2.445312 7.75 -2.4375 C 7.820312 -2.4375 7.859375 -2.421875 7.859375 -2.390625 C 7.765625 -1.691406 7.71875 -0.972656 7.71875 -0.234375 C 7.71875 -0.148438 7.695312 -0.0859375 7.65625 -0.046875 C 7.613281 -0.015625 7.546875 0 7.453125 0 L 0.6875 0 C 0.664062 0 0.65625 -0.03125 0.65625 -0.09375 C 0.65625 -0.15625 0.664062 -0.1875 0.6875 -0.1875 C 1.082031 -0.1875 1.367188 -0.210938 1.546875 -0.265625 C 1.734375 -0.328125 1.859375 -0.429688 1.921875 -0.578125 C 1.984375 -0.734375 2.015625 -0.972656 2.015625 -1.296875 L 2.015625 -8.703125 C 2.015625 -9.023438 1.984375 -9.257812 1.921875 -9.40625 C 1.859375 -9.550781 1.734375 -9.65625 1.546875 -9.71875 C 1.367188 -9.78125 1.082031 -9.8125 0.6875 -9.8125 C 0.664062 -9.8125 0.65625 -9.84375 0.65625 -9.90625 C 0.65625 -9.96875 0.664062 -10 0.6875 -10 L 7.1875 -10 C 7.28125 -10 7.328125 -9.953125 7.328125 -9.859375 L 7.359375 -7.859375 C 7.359375 -7.828125 7.328125 -7.8125 7.265625 -7.8125 C 7.210938 -7.8125 7.1875 -7.828125 7.1875 -7.859375 C 7.125 -8.429688 6.925781 -8.867188 6.59375 -9.171875 C 6.257812 -9.484375 5.828125 -9.640625 5.296875 -9.640625 L 4.421875 -9.640625 C 3.910156 -9.640625 3.578125 -9.570312 3.421875 -9.4375 C 3.265625 -9.300781 3.1875 -9.035156 3.1875 -8.640625 L 3.1875 -5.375 L 5.03125 -5.375 C 5.5625 -5.375 5.945312 -5.460938 6.1875 -5.640625 C 6.425781 -5.828125 6.546875 -6.125 6.546875 -6.53125 C 6.546875 -6.550781 6.578125 -6.5625 6.640625 -6.5625 C 6.703125 -6.5625 6.734375 -6.550781 6.734375 -6.53125 L 6.71875 -5.203125 C 6.71875 -4.890625 6.722656 -4.65625 6.734375 -4.5 L 6.75 -3.703125 C 6.75 -3.671875 6.71875 -3.65625 6.65625 -3.65625 C 6.59375 -3.65625 6.5625 -3.671875 6.5625 -3.703125 C 6.5625 -4.171875 6.4375 -4.507812 6.1875 -4.71875 C 5.945312 -4.925781 5.546875 -5.03125 4.984375 -5.03125 L 3.1875 -5.03125 L 3.1875 -1.359375 C 3.1875 -1.078125 3.21875 -0.867188 3.28125 -0.734375 C 3.34375 -0.597656 3.453125 -0.5 3.609375 -0.4375 C 3.773438 -0.382812 4.023438 -0.359375 4.359375 -0.359375 L 5.484375 -0.359375 C 6.054688 -0.359375 6.523438 -0.535156 6.890625 -0.890625 C 7.265625 -1.242188 7.519531 -1.75 7.65625 -2.40625 Z M 7.65625 -2.40625 "/></g></g></g><g fill="#523e27" fill-opacity="1"><g transform="translate(247.495069, 266.11882)"><g><path d="M 9.15625 -8.1875 C 9.15625 -8.71875 9.035156 -9.117188 8.796875 -9.390625 C 8.554688 -9.671875 8.207031 -9.8125 7.75 -9.8125 C 7.71875 -9.8125 7.703125 -9.84375 7.703125 -9.90625 C 7.703125 -9.96875 7.71875 -10 7.75 -10 L 8.453125 -9.984375 C 8.804688 -9.960938 9.109375 -9.953125 9.359375 -9.953125 C 9.554688 -9.953125 9.828125 -9.960938 10.171875 -9.984375 L 10.84375 -10 C 10.863281 -10 10.875 -9.96875 10.875 -9.90625 C 10.875 -9.84375 10.863281 -9.8125 10.84375 -9.8125 C 10.414062 -9.8125 10.09375 -9.671875 9.875 -9.390625 C 9.664062 -9.117188 9.5625 -8.71875 9.5625 -8.1875 L 9.5625 -3.65625 C 9.5625 -2.457031 9.210938 -1.515625 8.515625 -0.828125 C 7.828125 -0.140625 6.90625 0.203125 5.75 0.203125 C 4.957031 0.203125 4.265625 0.0507812 3.671875 -0.25 C 3.078125 -0.5625 2.613281 -1.003906 2.28125 -1.578125 C 1.957031 -2.148438 1.796875 -2.816406 1.796875 -3.578125 L 1.796875 -8.703125 C 1.796875 -9.023438 1.757812 -9.257812 1.6875 -9.40625 C 1.625 -9.550781 1.503906 -9.65625 1.328125 -9.71875 C 1.148438 -9.78125 0.863281 -9.8125 0.46875 -9.8125 C 0.445312 -9.8125 0.4375 -9.84375 0.4375 -9.90625 C 0.4375 -9.96875 0.445312 -10 0.46875 -10 L 1.265625 -9.984375 C 1.734375 -9.960938 2.101562 -9.953125 2.375 -9.953125 C 2.664062 -9.953125 3.046875 -9.960938 3.515625 -9.984375 L 4.265625 -10 C 4.296875 -10 4.3125 -9.96875 4.3125 -9.90625 C 4.3125 -9.84375 4.296875 -9.8125 4.265625 -9.8125 C 3.890625 -9.8125 3.609375 -9.773438 3.421875 -9.703125 C 3.242188 -9.640625 3.117188 -9.53125 3.046875 -9.375 C 2.984375 -9.226562 2.953125 -8.992188 2.953125 -8.671875 L 2.953125 -4.140625 C 2.953125 -2.878906 3.226562 -1.921875 3.78125 -1.265625 C 4.34375 -0.609375 5.128906 -0.28125 6.140625 -0.28125 C 7.085938 -0.28125 7.828125 -0.578125 8.359375 -1.171875 C 8.890625 -1.765625 9.15625 -2.585938 9.15625 -3.640625 Z M 9.15625 -8.1875 "/></g></g></g><g fill="#523e27" fill-opacity="1"><g transform="translate(258.676381, 266.11882)"><g><path d="M 3.109375 -9.703125 C 2.441406 -9.703125 1.929688 -9.519531 1.578125 -9.15625 C 1.222656 -8.800781 0.960938 -8.21875 0.796875 -7.40625 C 0.785156 -7.375 0.75 -7.359375 0.6875 -7.359375 C 0.632812 -7.367188 0.609375 -7.382812 0.609375 -7.40625 C 0.648438 -7.707031 0.695312 -8.1875 0.75 -8.84375 C 0.800781 -9.507812 0.828125 -10.015625 0.828125 -10.359375 C 0.828125 -10.410156 0.859375 -10.4375 0.921875 -10.4375 C 0.992188 -10.4375 1.03125 -10.410156 1.03125 -10.359375 C 1.03125 -10.117188 1.316406 -10 1.890625 -10 C 2.804688 -9.96875 3.878906 -9.953125 5.109375 -9.953125 C 5.734375 -9.953125 6.398438 -9.960938 7.109375 -9.984375 L 8.1875 -10 C 8.570312 -10 8.859375 -10.023438 9.046875 -10.078125 C 9.234375 -10.128906 9.351562 -10.238281 9.40625 -10.40625 C 9.414062 -10.445312 9.445312 -10.46875 9.5 -10.46875 C 9.550781 -10.46875 9.578125 -10.445312 9.578125 -10.40625 C 9.546875 -10.09375 9.515625 -9.613281 9.484375 -8.96875 C 9.453125 -8.320312 9.4375 -7.800781 9.4375 -7.40625 C 9.4375 -7.382812 9.40625 -7.375 9.34375 -7.375 C 9.289062 -7.375 9.257812 -7.382812 9.25 -7.40625 C 9.207031 -8.226562 9.015625 -8.816406 8.671875 -9.171875 C 8.335938 -9.523438 7.820312 -9.703125 7.125 -9.703125 C 6.695312 -9.703125 6.390625 -9.675781 6.203125 -9.625 C 6.015625 -9.582031 5.882812 -9.492188 5.8125 -9.359375 C 5.75 -9.222656 5.71875 -8.992188 5.71875 -8.671875 L 5.71875 -1.296875 C 5.71875 -0.960938 5.75 -0.722656 5.8125 -0.578125 C 5.882812 -0.429688 6.023438 -0.328125 6.234375 -0.265625 C 6.441406 -0.210938 6.773438 -0.1875 7.234375 -0.1875 C 7.253906 -0.1875 7.265625 -0.15625 7.265625 -0.09375 C 7.265625 -0.03125 7.253906 0 7.234375 0 C 6.867188 0 6.582031 -0.00390625 6.375 -0.015625 L 5.109375 -0.03125 L 3.890625 -0.015625 C 3.671875 -0.00390625 3.367188 0 2.984375 0 C 2.960938 0 2.953125 -0.03125 2.953125 -0.09375 C 2.953125 -0.15625 2.960938 -0.1875 2.984375 -0.1875 C 3.429688 -0.1875 3.757812 -0.210938 3.96875 -0.265625 C 4.1875 -0.328125 4.332031 -0.429688 4.40625 -0.578125 C 4.488281 -0.734375 4.53125 -0.972656 4.53125 -1.296875 L 4.53125 -8.703125 C 4.53125 -9.015625 4.492188 -9.234375 4.421875 -9.359375 C 4.347656 -9.492188 4.21875 -9.582031 4.03125 -9.625 C 3.851562 -9.675781 3.546875 -9.703125 3.109375 -9.703125 Z M 3.109375 -9.703125 "/></g></g></g><g fill="#523e27" fill-opacity="1"><g transform="translate(268.849938, 266.11882)"><g><path d="M 11.234375 -0.1875 C 11.273438 -0.1875 11.296875 -0.15625 11.296875 -0.09375 C 11.296875 -0.03125 11.273438 0 11.234375 0 C 11.023438 0 10.707031 -0.0078125 10.28125 -0.03125 C 9.851562 -0.0507812 9.539062 -0.0625 9.34375 -0.0625 C 9.09375 -0.0625 8.789062 -0.0507812 8.4375 -0.03125 C 8.09375 -0.0078125 7.820312 0 7.625 0 C 7.582031 0 7.5625 -0.03125 7.5625 -0.09375 C 7.5625 -0.15625 7.582031 -0.1875 7.625 -0.1875 C 8.007812 -0.1875 8.285156 -0.222656 8.453125 -0.296875 C 8.617188 -0.367188 8.703125 -0.492188 8.703125 -0.671875 C 8.703125 -0.828125 8.628906 -1.066406 8.484375 -1.390625 L 7.109375 -4.265625 L 3.28125 -4.265625 L 2.34375 -2.078125 C 2.195312 -1.753906 2.125 -1.460938 2.125 -1.203125 C 2.125 -0.523438 2.644531 -0.1875 3.6875 -0.1875 C 3.738281 -0.1875 3.765625 -0.15625 3.765625 -0.09375 C 3.765625 -0.03125 3.738281 0 3.6875 0 C 3.488281 0 3.207031 -0.0078125 2.84375 -0.03125 C 2.4375 -0.0507812 2.085938 -0.0625 1.796875 -0.0625 C 1.523438 -0.0625 1.195312 -0.0507812 0.8125 -0.03125 C 0.5 -0.0078125 0.226562 0 0 0 C -0.0507812 0 -0.078125 -0.03125 -0.078125 -0.09375 C -0.078125 -0.15625 -0.0507812 -0.1875 0 -0.1875 C 0.300781 -0.1875 0.554688 -0.242188 0.765625 -0.359375 C 0.972656 -0.472656 1.171875 -0.671875 1.359375 -0.953125 C 1.546875 -1.242188 1.757812 -1.664062 2 -2.21875 L 5.375 -10.125 C 5.394531 -10.15625 5.4375 -10.171875 5.5 -10.171875 C 5.5625 -10.171875 5.597656 -10.15625 5.609375 -10.125 L 9.421875 -2.1875 C 9.785156 -1.414062 10.09375 -0.890625 10.34375 -0.609375 C 10.601562 -0.328125 10.898438 -0.1875 11.234375 -0.1875 Z M 3.421875 -4.609375 L 6.9375 -4.609375 L 5.09375 -8.484375 Z M 3.421875 -4.609375 "/></g></g></g></svg>