<svg width="85" height="90" viewBox="0 0 85 90" fill="none" xmlns="http://www.w3.org/2000/svg">
<path d="M0 16.875C0 13.7689 2.71886 11.25 6.07143 11.25H78.9286C82.2868 11.25 85 13.7689 85 16.875C85 19.9863 82.2868 22.5 78.9286 22.5H6.07143C2.71886 22.5 0 19.9863 0 16.875ZM0 45C0 41.8887 2.71886 39.375 6.07143 39.375H78.9286C82.2868 39.375 85 41.8887 85 45C85 48.1113 82.2868 50.625 78.9286 50.625H6.07143C2.71886 50.625 0 48.1113 0 45ZM78.9286 78.75H6.07143C2.71886 78.75 0 76.2363 0 73.125C0 70.0137 2.71886 67.5 6.07143 67.5H78.9286C82.2868 67.5 85 70.0137 85 73.125C85 76.2363 82.2868 78.75 78.9286 78.75Z" fill="#8F7241"/>
</svg>
