<svg width="630" height="599" viewBox="0 0 630 599" fill="none" xmlns="http://www.w3.org/2000/svg">
<path d="M844.786 588.094C847.953 588.094 849.536 590.002 849.536 593.784C849.536 597.53 847.953 599.404 844.786 599.404C829.656 599.404 806.171 598.779 774.328 597.53C742.42 596.282 718.912 595.657 703.783 595.657C685.487 595.657 662.793 596.282 635.701 597.53C610.192 598.779 590.268 599.404 575.974 599.404C572.742 599.404 571.136 597.53 571.136 593.784C571.136 590.002 572.742 588.094 575.974 588.094C604.65 588.094 625.145 586.065 637.46 581.989C649.818 577.878 656.02 570.471 656.02 559.786C656.02 550.402 650.434 536.265 639.307 517.393L536.479 347.75H250.955L180.41 476.873C170.074 495.745 164.929 513.021 164.929 528.702C164.929 568.303 203.544 588.094 280.774 588.094C284.755 588.094 286.756 590.002 286.756 593.784C286.756 597.53 284.755 599.404 280.774 599.404C266.459 599.404 245.766 598.779 218.673 597.53C188.414 596.282 162.114 595.657 139.771 595.657C119.892 595.657 95.6146 596.282 66.939 597.53C43.0134 598.779 22.6942 599.404 5.98141 599.404C2.00113 599.404 0 597.53 0 593.784C0 590.002 2.00113 588.094 5.98141 588.094C28.2578 588.094 47.1696 584.816 62.7168 578.242C78.2421 571.633 93.1736 559.838 107.489 542.856C121.849 525.892 137.792 501.07 155.341 468.408L407.439 2.77534C409.023 0.936675 412.211 0 417.027 0C421.777 0 424.548 0.936675 425.384 2.77534L709.764 470.281C736.857 516.178 759.947 547.279 779.078 563.602C798.188 579.942 820.091 588.094 844.786 588.094ZM261.687 327.976H524.517L385.977 99.8428L261.687 327.976Z" fill="#523E27" fill-opacity="0.12"/>
</svg>
