<svg width="30" height="30" viewBox="0 0 30 30" fill="none" xmlns="http://www.w3.org/2000/svg">
<path d="M25.5067 4.44805C22.7009 1.65898 18.9643 0.125 14.9933 0.125C6.79687 0.125 0.127232 6.73906 0.127232 14.8672C0.127232 17.4637 0.810268 20.0004 2.10938 22.2383L0 29.875L7.8817 27.823C10.0513 28.9984 12.4955 29.616 14.9866 29.616H14.9933C23.183 29.616 30 23.002 30 14.8738C30 10.9359 28.3125 7.23711 25.5067 4.44805ZM14.9933 27.1324C12.7701 27.1324 10.5937 26.5414 8.69866 25.4258L8.25 25.1602L3.57589 26.3754L4.82143 21.8531L4.52679 21.3883C3.28795 19.4359 2.63839 17.1848 2.63839 14.8672C2.63839 8.11367 8.18303 2.61523 15 2.61523C18.3013 2.61523 21.4018 3.89023 23.7321 6.20781C26.0625 8.52539 27.4955 11.6 27.4888 14.8738C27.4888 21.634 21.8036 27.1324 14.9933 27.1324ZM21.7701 17.9551C21.4018 17.7691 19.5737 16.8793 19.2321 16.7598C18.8906 16.6336 18.6429 16.5738 18.3951 16.9457C18.1473 17.3176 17.4375 18.141 17.2165 18.3934C17.0022 18.6391 16.7812 18.6723 16.4129 18.4863C14.2299 17.4039 12.7969 16.5539 11.3571 14.1035C10.9754 13.4527 11.7388 13.4992 12.4487 12.0914C12.5692 11.8457 12.5089 11.6332 12.4152 11.4473C12.3214 11.2613 11.5781 9.44844 11.2701 8.71133C10.9688 7.99414 10.6607 8.09375 10.433 8.08047C10.2188 8.06719 9.97098 8.06719 9.72321 8.06719C9.47545 8.06719 9.07366 8.16016 8.73214 8.52539C8.39062 8.89727 7.43304 9.78711 7.43304 11.6C7.43304 13.4129 8.76562 15.166 8.94643 15.4117C9.13393 15.6574 11.5647 19.3762 15.2946 20.9766C17.6518 21.9859 18.5759 22.0723 19.7545 21.8996C20.471 21.7934 21.9509 21.0098 22.2589 20.1465C22.567 19.2832 22.567 18.5461 22.4732 18.3934C22.3862 18.2273 22.1384 18.1344 21.7701 17.9551Z" fill="#FDF4F4"/>
</svg>
