<svg width="30" height="30" viewBox="0 0 30 30" fill="none" xmlns="http://www.w3.org/2000/svg">
<path d="M15.0067 7.36318C10.7478 7.36318 7.3125 10.7698 7.3125 14.9933C7.3125 19.2167 10.7478 22.6233 15.0067 22.6233C19.2656 22.6233 22.7009 19.2167 22.7009 14.9933C22.7009 10.7698 19.2656 7.36318 15.0067 7.36318ZM15.0067 19.9538C12.2545 19.9538 10.0045 17.7292 10.0045 14.9933C10.0045 12.2573 12.2478 10.0327 15.0067 10.0327C17.7656 10.0327 20.0089 12.2573 20.0089 14.9933C20.0089 17.7292 17.7589 19.9538 15.0067 19.9538ZM24.8103 7.05107C24.8103 8.04053 24.0067 8.83076 23.0156 8.83076C22.0179 8.83076 21.221 8.03389 21.221 7.05107C21.221 6.06826 22.0246 5.27139 23.0156 5.27139C24.0067 5.27139 24.8103 6.06826 24.8103 7.05107ZM29.9063 8.85732C29.7924 6.47334 29.2433 4.36162 27.4821 2.62178C25.7277 0.881933 23.5982 0.337402 21.1942 0.217871C18.7165 0.078418 11.2902 0.078418 8.8125 0.217871C6.41518 0.330762 4.28572 0.875293 2.52456 2.61514C0.763395 4.35498 0.220984 6.4667 0.100449 8.85068C-0.0401764 11.3077 -0.0401764 18.6722 0.100449 21.1292C0.214288 23.5132 0.763395 25.6249 2.52456 27.3647C4.28572 29.1046 6.40848 29.6491 8.8125 29.7687C11.2902 29.9081 18.7165 29.9081 21.1942 29.7687C23.5982 29.6558 25.7277 29.1112 27.4821 27.3647C29.2366 25.6249 29.7857 23.5132 29.9063 21.1292C30.0469 18.6722 30.0469 11.3144 29.9063 8.85732ZM26.7054 23.7655C26.183 25.0671 25.1719 26.0698 23.8527 26.5944C21.8772 27.3714 17.1897 27.1921 15.0067 27.1921C12.8237 27.1921 8.12947 27.3647 6.16072 26.5944C4.84822 26.0765 3.83706 25.0737 3.30804 23.7655C2.52456 21.8065 2.70536 17.1581 2.70536 14.9933C2.70536 12.8284 2.53125 8.17334 3.30804 6.221C3.83036 4.91943 4.84152 3.9167 6.16072 3.39209C8.13616 2.61514 12.8237 2.79443 15.0067 2.79443C17.1897 2.79443 21.8839 2.62178 23.8527 3.39209C25.1652 3.91006 26.1763 4.91279 26.7054 6.221C27.4888 8.17998 27.308 12.8284 27.308 14.9933C27.308 17.1581 27.4888 21.8132 26.7054 23.7655Z" fill="#FDF4F4"/>
</svg>
