<svg width="30" height="34" viewBox="0 0 30 34" fill="none" xmlns="http://www.w3.org/2000/svg">
<g clip-path="url(#clip0_3_157)">
<path d="M15.0067 9.36328C10.7478 9.36328 7.31252 12.7699 7.31252 16.9934C7.31252 21.2168 10.7478 24.6234 15.0067 24.6234C19.2656 24.6234 22.7009 21.2168 22.7009 16.9934C22.7009 12.7699 19.2656 9.36328 15.0067 9.36328ZM15.0067 21.9539C12.2545 21.9539 10.0045 19.7293 10.0045 16.9934C10.0045 14.2574 12.2478 12.0328 15.0067 12.0328C17.7656 12.0328 20.0089 14.2574 20.0089 16.9934C20.0089 19.7293 17.7589 21.9539 15.0067 21.9539ZM24.8103 9.05117C24.8103 10.0406 24.0067 10.8309 23.0156 10.8309C22.0179 10.8309 21.221 10.034 21.221 9.05117C21.221 8.06836 22.0246 7.27149 23.0156 7.27149C24.0067 7.27149 24.8103 8.06836 24.8103 9.05117ZM29.9063 10.8574C29.7924 8.47344 29.2433 6.36172 27.4822 4.62188C25.7277 2.88203 23.5982 2.3375 21.1942 2.21797C18.7165 2.07852 11.2902 2.07852 8.81252 2.21797C6.4152 2.33086 4.28573 2.87539 2.52457 4.61524C0.763411 6.35508 0.221 8.4668 0.100464 10.8508C-0.0401611 13.3078 -0.0401611 20.6723 0.100464 23.1293C0.214303 25.5133 0.763411 27.625 2.52457 29.3648C4.28573 31.1047 6.4085 31.6492 8.81252 31.7688C11.2902 31.9082 18.7165 31.9082 21.1942 31.7688C23.5982 31.6559 25.7277 31.1113 27.4822 29.3648C29.2366 27.625 29.7857 25.5133 29.9063 23.1293C30.0469 20.6723 30.0469 13.3145 29.9063 10.8574ZM26.7054 25.7656C26.1831 27.0672 25.1719 28.0699 23.8527 28.5945C21.8773 29.3715 17.1898 29.1922 15.0067 29.1922C12.8237 29.1922 8.12948 29.3648 6.16073 28.5945C4.84823 28.0766 3.83707 27.0738 3.30805 25.7656C2.52457 23.8066 2.70537 19.1582 2.70537 16.9934C2.70537 14.8285 2.53127 10.1734 3.30805 8.2211C3.83037 6.91953 4.84154 5.9168 6.16073 5.39219C8.13618 4.61524 12.8237 4.79453 15.0067 4.79453C17.1898 4.79453 21.8839 4.62188 23.8527 5.39219C25.1652 5.91016 26.1764 6.91289 26.7054 8.2211C27.4889 10.1801 27.3081 14.8285 27.3081 16.9934C27.3081 19.1582 27.4889 23.8133 26.7054 25.7656Z" fill="#8F7241"/>
</g>
<defs>
<clipPath id="clip0_3_157">
<rect width="30" height="34" fill="white"/>
</clipPath>
</defs>
</svg>
