<svg width="162" height="133" viewBox="0 0 162 133" fill="none" xmlns="http://www.w3.org/2000/svg">
<path d="M70.9241 10.6758L126.265 67.5105L71.7704 123.476L16.4263 66.6413L70.9241 10.6758Z" fill="url(#paint0_linear_27_302)"/>
<path d="M79.8763 3L144.515 69.3833" stroke="#8F7241" stroke-width="6"/>
<path d="M142.405 67.1079L81.1459 130.021" stroke="url(#paint1_linear_27_302)" stroke-width="6"/>
<path d="M160.966 65.8457C159.566 65.0628 158.166 64.283 156.766 63.5001C154.55 62.2634 152.335 61.0235 150.119 59.7868C149.609 59.5023 149.102 59.2179 148.588 58.9335C147.667 58.419 146.488 59.0613 146.488 60.1575C146.488 61.7201 146.488 63.2796 146.488 64.8423C146.488 65.1107 146.488 65.3823 146.488 65.6508C146.472 65.6508 146.46 65.6508 146.444 65.6508C145.153 65.6508 112.72 65.6508 111.892 65.6508C111.73 64.9861 111.457 64.347 111.061 63.8005C110.336 62.7907 109.415 62.0653 108.261 61.6307C106.148 60.8317 103.534 61.5412 102.103 63.3148C101.534 64.021 101.135 64.8007 100.917 65.6508C99.4985 65.6508 96.0321 65.6476 95.7147 65.6476C95.5529 64.9829 95.2791 64.347 94.8839 63.8005C94.1589 62.7907 93.2378 62.0653 92.0834 61.6307C89.9675 60.8317 87.3568 61.5412 85.9254 63.3148C85.356 64.021 84.9577 64.8007 84.7399 65.6508C84.3509 65.6508 80.8845 65.6508 79.5403 65.6508C79.3785 64.9861 79.1015 64.347 78.7095 63.8005C77.9844 62.7907 77.0603 62.0653 75.909 61.6307C73.793 60.8317 71.1792 61.5412 69.7478 63.3148C69.1784 64.021 68.7832 64.8007 68.5623 65.6508C67.3985 65.6508 63.9321 65.6444 63.3627 65.6412C63.1978 64.9797 62.924 64.347 62.535 63.8005C61.81 62.7907 60.8858 62.0653 59.7345 61.6307C57.6186 60.8317 55.0048 61.5412 53.5734 63.3148C53.004 64.021 52.6088 64.8007 52.3878 65.6508C51.4201 65.6508 47.9537 65.6508 47.1914 65.6508C47.0264 64.9861 46.7526 64.347 46.3574 63.8005C45.6355 62.7907 44.7114 62.0653 43.5569 61.6307C41.4441 60.8317 38.8303 61.5412 37.3989 63.3148C36.8295 64.021 36.4312 64.8007 36.2134 65.6508C35.3763 65.6508 15.2127 65.6508 14.133 65.6508C12.8479 64.9318 11.5627 64.2191 10.2807 63.5001C8.06211 62.2634 5.84971 61.0235 3.6342 59.7868C3.12077 59.5023 2.61357 59.2179 2.10326 58.9335C1.46225 58.5724 0.550535 58.7514 0.189581 59.4448C-0.158926 60.1095 0.00599292 61.0043 0.693672 61.3878C2.09392 62.1707 3.49417 62.9505 4.89443 63.7334C6.88901 64.8487 8.88048 65.9608 10.8751 67.076C10.206 67.4499 9.53704 67.8238 8.86803 68.1945C6.65252 69.4312 4.44012 70.668 2.2215 71.9079C1.71119 72.1923 1.20087 72.4767 0.693672 72.7611C0.0495567 73.119 -0.208713 74.0745 0.189581 74.7041C0.609656 75.3656 1.41558 75.5989 2.10326 75.2154C3.50351 74.4324 4.90376 73.6527 6.30401 72.8698C8.52263 71.6299 10.735 70.3931 12.9505 69.1564C13.3457 68.9359 13.7409 68.7154 14.133 68.4949C14.8953 68.4949 34.866 68.4949 36.1947 68.4949C36.3347 69.0414 36.5494 69.5655 36.8295 70.0384C37.3958 70.9875 38.2453 71.8024 39.241 72.2658C40.4079 72.8059 41.6401 72.956 42.8972 72.7036C45.0163 72.2818 46.6437 70.5529 47.1789 68.4949C47.6332 68.4949 52.2229 68.4949 52.3754 68.4949C52.5123 69.0414 52.727 69.5655 53.0071 70.0352C53.5734 70.9843 54.4229 71.7992 55.4186 72.2626C56.5855 72.8027 57.8177 72.9529 59.0748 72.7036C61.1939 72.2786 62.8213 70.5497 63.3565 68.4917C63.7454 68.4917 67.2087 68.4917 68.553 68.4917C68.6899 69.0382 68.9046 69.5623 69.1846 70.0352C69.751 70.9843 70.6036 71.7992 71.5993 72.2626C72.7631 72.8027 73.9953 72.9529 75.2524 72.7036C77.3714 72.2786 79.002 70.5497 79.534 68.4917C80.7009 68.4917 84.1642 68.4981 84.7337 68.5013C84.8706 69.0446 85.0822 69.5655 85.3622 70.0352C85.9316 70.9843 86.7811 71.7992 87.7769 72.2626C88.9406 72.8027 90.1728 72.9529 91.4331 72.7036C93.549 72.2786 95.1795 70.5497 95.7116 68.4917C95.7894 68.4917 100.547 68.4917 100.908 68.4917C101.045 69.0382 101.263 69.5623 101.543 70.0352C102.109 70.9843 102.959 71.7992 103.954 72.2626C105.118 72.8027 106.35 72.9529 107.611 72.7036C109.727 72.2786 111.357 70.5497 111.892 68.4917C112.123 68.4917 146.239 68.4917 146.494 68.4949C146.494 69.7572 146.494 71.0259 146.494 72.2882C146.494 72.8538 146.494 73.4194 146.494 73.985C146.494 73.9914 146.494 73.9946 146.494 74.0042C146.491 74.2503 146.553 74.4932 146.684 74.7009C146.724 74.7648 146.768 74.8223 146.815 74.8734C146.824 74.8894 146.836 74.9054 146.849 74.915C146.855 74.9214 146.858 74.9278 146.864 74.931C147.12 75.2282 147.49 75.4231 147.894 75.4039C147.953 75.4007 148.009 75.3943 148.065 75.3847C148.246 75.3624 148.43 75.308 148.601 75.209C150.001 74.426 151.401 73.6463 152.801 72.8634C155.02 71.6235 157.232 70.3867 159.448 69.15C159.961 68.8656 160.469 68.5812 160.979 68.2968C161.875 67.7951 161.875 66.3538 160.966 65.8457ZM60.5373 68.1913C60.4471 68.3863 60.3475 68.5812 60.2261 68.757C60.2044 68.7953 60.1795 68.8305 60.1546 68.8624C60.0706 68.9583 59.9928 69.0478 59.9056 69.1372C59.8216 69.2235 59.7345 69.3034 59.6411 69.3833C59.6038 69.4121 59.5696 69.4376 59.5322 69.4632C59.3549 69.5846 59.1651 69.6869 58.9752 69.7796C58.7419 69.8659 58.5054 69.9298 58.2627 69.9745C58.0044 70.0001 57.7461 70.0001 57.4879 69.9745C57.2452 69.9298 57.0087 69.8659 56.7784 69.7796C56.5855 69.6869 56.3957 69.5846 56.2183 69.4632C56.181 69.4408 56.1467 69.4185 56.1156 69.3929C56.0223 69.3098 55.932 69.2299 55.8418 69.1404C55.7578 69.0542 55.68 68.9647 55.6022 68.8752C55.5742 68.8369 55.5493 68.7985 55.5213 68.7602C55.403 68.5812 55.3035 68.3895 55.2132 68.1945C55.1292 67.9612 55.0639 67.7184 55.0203 67.4723C54.9954 67.2103 54.9954 66.9482 55.0203 66.683C55.0639 66.4369 55.1292 66.1972 55.2132 65.964C55.3035 65.7658 55.403 65.5741 55.5213 65.3951C55.5462 65.36 55.568 65.3248 55.596 65.2929C55.6769 65.197 55.7547 65.1043 55.8418 65.0148C55.9289 64.9318 56.016 64.8487 56.1063 64.7688C56.1436 64.7432 56.1779 64.7177 56.2183 64.6889C56.3957 64.5675 56.5824 64.4684 56.7784 64.3757C57.0087 64.2894 57.2452 64.2223 57.4879 64.1808C57.7461 64.1552 58.0044 64.1552 58.2627 64.1808C58.5054 64.2223 58.7419 64.2894 58.9752 64.3757C59.1651 64.4684 59.3549 64.5675 59.5353 64.6889C59.5696 64.7145 59.6038 64.7368 59.638 64.7624C59.7314 64.8455 59.8216 64.9254 59.9087 65.0148C59.9928 65.0979 60.0706 65.1874 60.1515 65.2801C60.1763 65.3184 60.2044 65.3536 60.2292 65.3919C60.3506 65.5741 60.4471 65.7626 60.5404 65.9608C60.6244 66.1972 60.6867 66.4369 60.7302 66.6862C60.7396 66.8012 60.7489 66.9131 60.7489 67.0249C60.7489 67.0441 60.7489 67.0601 60.7489 67.0792C60.7489 67.2103 60.7396 67.3413 60.7302 67.4691C60.6836 67.7152 60.6213 67.9548 60.5373 68.1913ZM93.0823 67.4659C93.0387 67.712 92.9734 67.9548 92.8893 68.1913C92.7991 68.3863 92.6995 68.5812 92.5782 68.757C92.5564 68.7953 92.5315 68.8305 92.5066 68.8624C92.4257 68.9583 92.3448 69.0478 92.2577 69.1372C92.1737 69.2235 92.0865 69.3034 91.9963 69.3833C91.9589 69.4121 91.9216 69.4376 91.8843 69.4632C91.7069 69.5846 91.5202 69.6869 91.3273 69.7796C91.097 69.8659 90.8605 69.9298 90.6178 69.9745C90.3564 70.0001 90.1013 70.0001 89.8399 69.9745C89.5972 69.9298 89.3607 69.8659 89.1304 69.7796C88.9375 69.6869 88.7477 69.5846 88.5734 69.4632C88.5392 69.4408 88.5019 69.4185 88.4708 69.3929C88.3774 69.3098 88.2872 69.2299 88.2001 69.1404C88.116 69.0542 88.0351 68.9647 87.9573 68.8752C87.9293 68.8369 87.9044 68.7985 87.8764 68.7602C87.7582 68.5812 87.6586 68.3895 87.5684 68.1945C87.4844 67.9612 87.419 67.7184 87.3755 67.4723C87.3537 67.2103 87.3537 66.9482 87.3755 66.683C87.419 66.4369 87.4844 66.1972 87.5684 65.964C87.6586 65.7658 87.7582 65.5741 87.8764 65.3951C87.9013 65.36 87.9262 65.3248 87.948 65.2929C88.0289 65.197 88.1098 65.1043 88.1969 65.0148C88.281 64.9318 88.3681 64.8487 88.4583 64.7688C88.4957 64.7432 88.533 64.7177 88.5703 64.6889C88.7477 64.5675 88.9344 64.4684 89.1273 64.3757C89.3576 64.2894 89.5941 64.2223 89.8368 64.1808C90.0982 64.1552 90.3533 64.1552 90.6147 64.1808C90.8574 64.2223 91.0939 64.2894 91.3242 64.3757C91.5171 64.4684 91.7069 64.5675 91.8843 64.6889C91.9185 64.7145 91.9558 64.7368 91.987 64.7624C92.0803 64.8455 92.1705 64.9254 92.2577 65.0148C92.3417 65.0979 92.4226 65.1874 92.5004 65.2801C92.5284 65.3184 92.5533 65.3536 92.5782 65.3919C92.6995 65.5741 92.7991 65.7626 92.8893 65.9608C92.9734 66.1972 93.0387 66.4369 93.0823 66.6862C93.0916 66.8012 93.0978 66.9131 93.1009 67.0249C93.1009 67.0441 93.1009 67.0601 93.1009 67.076C93.0978 67.2071 93.0916 67.3381 93.0823 67.4659ZM155.356 68.1945C153.33 69.3258 151.305 70.457 149.282 71.5851C149.282 70.8277 149.282 70.0672 149.282 69.3066C149.282 67.0601 149.282 64.8103 149.282 62.5638C149.979 62.9568 150.679 63.3467 151.379 63.7366C153.371 64.8487 155.365 65.964 157.357 67.0792C156.694 67.4467 156.025 67.8206 155.356 68.1945Z" fill="url(#paint2_linear_27_302)"/>
<path d="M35.8464 103.957L44.0239 83.377L52.2014 103.957H49.2142L48.6167 102.321H39.456L38.8336 103.957H35.8464ZM40.4393 99.7131H47.6085L44.0239 90.2796L40.4393 99.7131Z" fill="#29231B"/>
<path d="M69.1884 92.721C68.9395 93.5647 68.5598 94.3253 68.0557 94.9963C67.5579 95.6706 66.9418 96.2427 66.2136 96.7092C66.1794 96.754 66.1327 96.7827 66.0767 96.7987C66.0176 96.8179 65.9709 96.8434 65.9398 96.8754L69.4622 104.008H66.3754L63.2887 97.8085C63.0708 97.8437 62.853 97.8724 62.629 97.898C62.4112 97.9172 62.1747 97.9236 61.9195 97.9236H58.3349V104.008H55.4099V83.377H61.9195C62.741 83.377 63.5065 83.4888 64.2222 83.7093C64.9441 83.9234 65.6069 84.2174 66.2136 84.5913C67.6886 85.5468 68.6812 86.8858 69.1884 88.605C69.2039 88.7009 69.2195 88.784 69.2382 88.8607C69.2631 88.931 69.2911 89.0109 69.3253 89.1036V89.2442C69.3658 89.34 69.3906 89.4423 69.4 89.551C69.4062 89.6628 69.4187 89.7778 69.4373 89.8961V89.9217C69.4529 90.0335 69.4622 90.1453 69.4622 90.254C69.4622 90.3658 69.4622 90.4905 69.4622 90.6247V90.7014C69.4622 90.8132 69.4622 90.9283 69.4622 91.0465C69.4622 91.1584 69.4529 91.2702 69.4373 91.3789V91.43C69.4187 91.5514 69.4062 91.6601 69.4 91.7623C69.3906 91.8646 69.3658 91.9733 69.3253 92.0819V92.197C69.2506 92.4015 69.2039 92.5772 69.1884 92.721ZM62.2805 95.2776C62.8779 95.2776 63.4256 95.1497 63.9234 94.8941C64.4275 94.632 64.8632 94.2869 65.2303 93.8587C65.5944 93.4241 65.8838 92.932 66.1016 92.3759C66.3163 91.8231 66.4252 91.2478 66.4252 90.6503C66.4252 90.0718 66.3163 89.4998 66.1016 88.9374C65.8838 88.375 65.5944 87.886 65.2303 87.4674C64.8632 87.0424 64.4275 86.7004 63.9234 86.4448C63.4256 86.1827 62.8779 86.0485 62.2805 86.0485H58.3722V95.2776H62.2805Z" fill="#29231B"/>
<path d="M85.5854 83.4023L79.8973 91.2892L86.1829 103.957H83.0961L78.0676 93.8202L75.5783 97.2459V103.957H72.6782V83.4023H75.5783V92.7209L82.2497 83.4023H85.5854Z" fill="#29231B"/>
<path d="M99.681 97.5783L106.265 83.4023L109.987 104.008H107.012L105.07 92.5803L99.681 104.379L94.329 92.5803L92.3873 104.008H89.4001L93.1216 83.4023L99.681 97.5783Z" fill="#29231B"/>
<path d="M113.199 103.982V83.4023H116.124V103.982H113.199Z" fill="#29231B"/>
<path d="M126.354 83.4023C127.698 83.4023 128.955 83.6772 130.125 84.2204C131.301 84.7669 132.328 85.5083 133.199 86.4446C134.077 87.3745 134.771 88.4611 135.278 89.7042C135.791 90.9505 136.05 92.2831 136.05 93.7051C136.05 95.1304 135.804 96.463 135.315 97.7061C134.824 98.9524 134.145 100.039 133.274 100.966C132.409 101.896 131.385 102.634 130.2 103.177C129.02 103.714 127.738 103.982 126.354 103.982H119.346V83.4023H126.354ZM126.018 101.349C127.038 101.349 127.975 101.151 128.831 100.748C129.693 100.339 130.43 99.7897 131.046 99.0994C131.668 98.4091 132.148 97.6006 132.49 96.6707C132.838 95.744 133.013 94.7533 133.013 93.7051C133.013 92.657 132.838 91.6727 132.49 90.7523C132.148 89.8256 131.662 89.0139 131.034 88.3237C130.411 87.627 129.668 87.0773 128.806 86.6747C127.95 86.2752 127.02 86.0739 126.018 86.0739H122.271V101.349H126.018Z" fill="#29231B"/>
<path d="M139.265 103.982V83.4023H142.19V103.982H139.265Z" fill="#29231B"/>
<path d="M145.413 103.957L153.59 83.377L161.768 103.957H158.78L158.183 102.321H149.022L148.4 103.957H145.413ZM150.005 99.7131H157.175L153.59 90.2796L150.005 99.7131Z" fill="#29231B"/>
<defs>
<linearGradient id="paint0_linear_27_302" x1="71.3457" y1="10.6758" x2="73.6022" y2="107.303" gradientUnits="userSpaceOnUse">
<stop offset="0.151042" stop-color="#FDF4F4"/>
<stop offset="1" stop-color="#DCB9A6" stop-opacity="0.2"/>
</linearGradient>
<linearGradient id="paint1_linear_27_302" x1="121.519" y1="86.69" x2="79.5444" y2="128.285" gradientUnits="userSpaceOnUse">
<stop stop-color="#8F7241"/>
<stop offset="0.463542" stop-color="#8F7241" stop-opacity="0"/>
</linearGradient>
<linearGradient id="paint2_linear_27_302" x1="158.322" y1="67.4243" x2="15.5333" y2="66.8426" gradientUnits="userSpaceOnUse">
<stop offset="0.9999" stop-color="#8F7241"/>
<stop offset="1" stop-color="#345E7D" stop-opacity="0"/>
</linearGradient>
</defs>
</svg>
