<svg width="237" height="121" viewBox="0 0 237 121" fill="none" xmlns="http://www.w3.org/2000/svg">
<path d="M180.275 100.549C180.75 100.549 180.988 100.875 180.988 101.521C180.988 102.161 180.75 102.481 180.275 102.481C178.003 102.481 174.478 102.375 169.697 102.161C164.907 101.948 161.378 101.841 159.107 101.841C156.36 101.841 152.953 101.948 148.886 102.161C145.056 102.375 142.065 102.481 139.92 102.481C139.434 102.481 139.193 102.161 139.193 101.521C139.193 100.875 139.434 100.549 139.92 100.549C144.225 100.549 147.301 100.203 149.15 99.5061C151.005 98.8038 151.936 97.5384 151.936 95.713C151.936 94.1098 151.098 91.6946 149.427 88.4704L133.991 59.4882H91.1264L80.5358 81.5478C78.9842 84.772 78.2117 87.7236 78.2117 90.4025C78.2117 97.168 84.0088 100.549 95.603 100.549C96.2005 100.549 96.5009 100.875 96.5009 101.521C96.5009 102.161 96.2005 102.481 95.603 102.481C93.4538 102.481 90.3473 102.375 86.2801 102.161C81.7375 101.948 77.7892 101.841 74.435 101.841C71.4507 101.841 67.806 101.948 63.5011 102.161C59.9093 102.375 56.8589 102.481 54.3499 102.481C53.7524 102.481 53.452 102.161 53.452 101.521C53.452 100.875 53.7524 100.549 54.3499 100.549C57.6941 100.549 60.5333 99.9892 62.8673 98.866C65.198 97.737 67.4396 95.7219 69.5887 92.8207C71.7445 89.9225 74.1379 85.6818 76.7724 80.1017L114.618 0.551753C114.856 0.23763 115.335 0.0776062 116.058 0.0776062C116.771 0.0776062 117.187 0.23763 117.312 0.551753L160.005 80.4217C164.072 88.2629 167.538 93.5763 170.41 96.3649C173.279 99.1565 176.567 100.549 180.275 100.549ZM92.7375 56.1099H132.195L111.396 17.135L92.7375 56.1099Z" fill="#523E27"/>
<path d="M20.1971 50.0396H227.407V77.9194H20.1971V50.0396Z" fill="#E8CFC1"/>
<path d="M25.2594 71.241C26.197 69.8156 26.8077 70.1623 28.1316 70.4349C29.7162 70.9832 31.2018 71.4958 32.5454 71.9344C32.9713 72.0796 33.2585 72.3908 33.3179 72.7909C33.6645 75.0401 34.1927 76.2255 35.0082 76.4625C35.1501 76.5188 35.2921 76.5011 35.4142 76.4448C35.5364 76.3914 35.6387 76.2818 35.6783 76.1721C35.7609 75.9143 35.6189 75.6417 35.3317 75.5498C34.9884 75.4402 34.7243 74.7112 34.5196 73.5969C34.4569 73.3598 34.5592 73.1198 34.7639 72.9746C34.9454 72.8294 35.2327 72.7731 35.477 72.8472C36.8602 73.3035 38.326 73.5791 39.8116 73.6503C39.9304 73.6503 40.0757 73.5969 40.1747 73.505C40.277 73.4132 40.32 73.2858 40.32 73.1583C40.32 73.0309 40.2572 72.9005 40.1549 72.8294C40.0526 72.7375 39.9106 72.6812 39.7686 72.6812C38.1213 72.5716 36.5136 72.2248 34.9686 71.6766C34.5196 71.5492 34.1927 71.1847 34.1531 70.7639C33.8263 66.947 33.7867 61.8143 33.7669 58.9458C33.7471 54.9451 33.7042 53.3953 33.5028 52.9567C33.4202 52.7552 33.2156 52.6277 32.9944 52.6455C32.7501 52.6633 32.5652 52.8085 32.5058 53.01C31.3041 56.901 29.8185 60.7179 28.049 64.4251C27.4581 65.6312 26.8903 66.7277 26.2993 67.7501C26.0352 68.2272 25.3816 68.4435 24.8336 68.2628C18.1583 65.9602 10.529 63.4946 4.68901 63.0945C2.43092 62.9464 0.965146 63.3109 0.334598 64.1703C-0.193611 64.9022 -0.0945719 65.8683 0.618509 67.0566C2.85679 70.7283 11.4864 76.5722 17.5278 76.5722C20.3768 76.5722 23.0013 74.3259 25.2594 71.241ZM3.69202 64.0251C3.97593 64.0251 4.28295 64.0251 4.60648 64.0428C10.1626 64.4251 17.4684 66.7455 23.9389 68.974C24.2624 69.0836 24.5298 69.3414 24.6289 69.6319C24.751 69.943 24.6916 70.272 24.5067 70.5446C22.1265 73.8873 19.7661 75.6061 17.5278 75.6061C12.3183 75.6061 3.85378 70.3816 1.55608 66.6003C1.20944 66.0165 0.862806 65.2134 1.22925 64.7007C1.53297 64.2621 2.41112 64.0251 3.69202 64.0251ZM32.2813 57.0106C32.4232 56.6284 32.6874 56.6995 32.6874 57.1203C32.6874 57.7041 32.6874 58.3264 32.7072 58.9458C32.7303 63.4413 32.8095 67.0211 32.9944 69.7415C33.034 70.0527 32.8722 70.3253 32.6081 70.509C32.3407 70.6928 31.9974 70.7283 31.6904 70.6187C30.4095 70.1801 29.0262 69.7059 27.6 69.2111L26.8077 68.9384C29.0262 65.1215 30.8551 61.1209 32.2813 57.0106Z" fill="#523E27"/>
<path d="M55.5501 71.9521C55.3256 71.7684 54.979 71.7862 54.7974 71.9877C53.1897 73.4872 50.585 73.6324 48.7957 72.3344C48.3665 72.0618 47.7756 72.0796 47.3893 72.4085C47.1681 72.5922 46.9238 72.7908 46.6795 73.0308C45.9037 73.8161 45.7618 73.1583 45.7618 72.7197C45.7618 72.3344 45.6825 71.9344 45.5373 71.5669C45.458 71.3861 45.2534 71.2587 45.0289 71.2587C44.8077 71.2765 44.6228 71.3861 44.5403 71.5876C43.9725 73.0101 42.751 75.0934 41.8959 75.2386C41.8365 75.2593 41.6714 75.2771 41.4272 75.04C41.305 74.5629 41.3875 74.0532 41.6516 73.6146C42.2624 72.1359 43.7678 71.0928 45.5175 70.9475C45.8245 70.9298 46.049 70.6927 46.0259 70.4349C46.0061 70.1622 45.742 69.9607 45.458 69.9785C43.2792 70.1622 41.4073 71.4395 40.6348 73.2857C40.2882 74.0888 40.0868 75.1497 40.6348 75.6772C41.0013 76.0802 41.5493 76.2639 42.1006 76.1721C43.1174 75.9883 44.0319 74.7822 44.6855 73.6857C44.6426 74.1243 44.5832 74.6192 44.5007 75.1289C44.4809 75.2386 44.4412 75.3304 44.3785 75.4045C41.9983 78.1072 39.8425 81.3758 39.7996 83.4413C39.7402 83.9895 39.9647 84.5378 40.3707 84.9378C40.5721 85.1216 40.8164 85.2134 41.0838 85.2134C41.305 85.2134 41.5295 85.1571 41.7144 85.0475C43.0547 84.2444 44.7648 79.5504 45.4382 75.8253C45.458 75.7512 45.4977 75.6772 45.5604 75.606C46.2702 74.8207 47.0229 74.071 47.8185 73.3598C48 73.1938 48.2873 73.176 48.4886 73.3035C50.7269 74.6548 53.6981 74.3644 55.5699 72.6278C55.7548 72.4263 55.7548 72.1359 55.5501 71.9521ZM41.9983 83.1124C41.5295 83.954 41.3677 84.3185 41.1234 84.2444C40.8791 84.1911 40.8593 83.8236 40.8791 83.4591C40.9188 82.0515 43.6456 77.2863 44.0319 77.4315C44.4181 77.5767 42.7708 81.6692 41.9983 83.1124Z" fill="#523E27"/>
<path d="M71.8057 72.3344C71.601 72.1359 71.2544 72.1152 71.0332 72.2989C70.9705 72.3552 64.9291 77.23 61.1821 75.0193C59.6965 74.1451 59.3334 72.0263 59.3334 72.0055C59.3103 71.7862 59.1287 71.6232 58.8844 71.5877C58.6599 71.5669 58.4156 71.6766 58.3133 71.8603C57.3592 73.7599 55.6689 76.1721 55.2001 75.8965C55.1605 75.8965 55.078 75.8254 55.0186 75.6979C54.7743 75.0934 54.8535 74.4355 55.2001 73.8695C55.9727 72.4441 57.3988 71.4217 59.1089 71.0394C59.2905 71.0009 59.4324 70.8735 59.4951 70.7105C59.5546 70.5445 59.4951 70.3638 59.373 70.2363C59.231 70.1267 59.0462 70.0704 58.8646 70.106C56.8277 70.5445 55.1407 71.7862 54.223 73.4694C53.7344 74.2903 53.6749 75.2771 54.0612 76.1336C54.2461 76.5544 54.6917 76.8477 55.2001 76.8477H55.22C56.217 76.83 57.4582 75.7157 58.3133 74.5096C58.4156 74.3644 58.6005 74.2903 58.7821 74.3081C58.9669 74.3081 59.1287 74.4 59.2112 74.5452C59.5546 75.0578 60.0234 75.4964 60.5945 75.8046C65.0281 78.4539 71.4789 73.2294 71.7661 73.0101C71.8651 72.9212 71.9278 72.7908 71.9278 72.6812C71.9477 72.5537 71.8882 72.4263 71.8057 72.3344Z" fill="#523E27"/>
<path d="M85.1897 71.7862C84.9883 71.6054 84.6417 71.6054 84.437 71.8069C84.3974 71.8425 78.8842 76.8299 75.2198 75.5882C73.5922 75.0193 72.899 73.3212 72.6349 71.641C73.0013 70.8379 73.6121 69.5043 74.1832 68.0078C74.2426 67.8241 74.3053 67.8063 74.5496 67.7885C77.2963 67.6048 80.0232 67.5129 81.6309 67.5129C81.9346 67.5129 82.1591 67.2936 82.1591 67.0388C82.1591 66.7632 81.9346 66.5646 81.6309 66.5646C80.0826 66.5646 77.5406 66.6743 74.9359 66.8017C74.8335 66.8195 74.652 66.7632 74.7939 66.4342C75.7711 63.9331 76.4611 61.3935 76.0352 60.6259C75.606 59.8614 75.0382 59.8406 74.751 59.8969C73.2456 60.1518 72.1463 63.6605 71.6577 66.5261C71.6181 66.7839 71.4761 67.0032 71.212 67.021C68.0163 67.2403 65.3918 67.4033 65.3522 67.4033C65.0452 67.4211 64.8207 67.6403 64.8438 67.9159C64.8438 68.1708 65.0881 68.3901 65.3918 68.3723H65.4314C65.4942 68.3723 67.9569 68.2064 71.0271 68.0078C71.1295 67.9871 71.2318 68.0078 71.3143 68.0789C71.3936 68.1352 71.4563 68.2271 71.4563 68.316C71.1493 72.6633 72.3708 75.6416 74.8335 76.4832C75.3617 76.6462 75.9131 76.738 76.4809 76.738C80.5118 76.738 84.9883 72.6633 85.2128 72.4826C85.3119 72.3907 85.3548 72.2633 85.3548 72.1359C85.3548 72.0055 85.2921 71.878 85.1897 71.7862ZM72.7372 66.4905C73.206 63.7138 74.1403 61.5209 74.6916 60.9549C74.751 60.9193 74.8335 60.9015 74.9161 60.9193C74.9755 60.9371 75.0382 60.9756 75.0778 61.0467C75.3221 61.5209 74.6289 63.8412 73.5922 66.6002C73.5526 66.7632 73.4107 66.8936 73.206 66.9113C73.1037 66.9291 73.0013 66.9291 72.8792 66.9291C72.6778 66.9291 72.7174 66.6357 72.7372 66.5083V66.4905ZM72.4929 69.3591C72.2915 69.3591 72.3708 68.0789 72.5556 67.8982C72.7174 67.8063 72.9221 67.7885 73.0838 67.8774C73.2654 68.0256 72.7174 69.3591 72.4929 69.3591Z" fill="#523E27"/>
<path d="M100.286 72.3907C100.084 72.1892 99.7575 72.1715 99.533 72.3552C99.4934 72.373 95.3008 75.6594 92.2273 75.2208C91.3128 75.0934 90.5205 74.6015 90.0715 73.8695C89.6853 73.2294 88.9722 72.8293 88.1799 72.7552C87.1829 72.7019 86.0835 73.2294 84.9248 74.3259C84.8621 74.3822 84.7597 74.3999 84.6805 74.3644C84.598 74.3259 84.5583 74.2547 84.5781 74.1629C84.6376 73.8162 84.8224 72.939 84.9017 72.61C84.9017 72.6634 85.0469 72.4085 85.0469 72.3907C86.7735 70.2719 91.9434 63.5509 89.9296 61.3935C89.6655 61.0646 89.1769 60.9194 88.7279 61.029C88.3218 61.1387 87.0805 61.4854 85.1691 67.587C84.7003 69.0658 84.2711 70.6542 83.9278 72.1537L83.7825 72.3167C83.6406 72.4826 83.6406 72.7019 83.7627 72.8827C83.459 74.234 83.2543 75.4786 83.152 76.4269C83.1322 76.6462 83.2741 76.8477 83.4986 76.9189C83.7231 76.9929 83.9872 76.9189 84.1292 76.7381C86.2057 74.0354 87.5295 73.6858 88.1171 73.7065C88.5463 73.7421 88.9326 73.9791 89.1339 74.3259C89.7447 75.3127 90.8242 76.0061 92.0853 76.1721C95.6276 76.664 100.041 73.2116 100.246 73.0664C100.451 72.8827 100.471 72.5923 100.286 72.3907ZM89.0349 61.9417C89.0745 61.9417 89.0943 61.998 89.1141 62.0158C90.0913 63.0026 86.0439 70.346 85.5322 70.0526C85.0469 69.777 88.1799 61.9417 89.0349 61.9417Z" fill="#523E27"/>
<path d="M116.623 72.3344C116.418 72.1359 116.072 72.1152 115.851 72.2989C115.788 72.3552 109.746 77.23 105.999 75.0193C104.514 74.1451 104.151 72.0263 104.151 72.0055C104.128 71.7862 103.946 71.6232 103.702 71.5877C103.477 71.5669 103.233 71.6766 103.131 71.8603C102.177 73.7599 100.486 76.1721 100.018 75.8965C99.9779 75.8965 99.8954 75.8254 99.836 75.6979C99.5917 75.0934 99.6709 74.4355 100.018 73.8695C100.79 72.4441 102.216 71.4217 103.926 71.0394C104.108 71.0009 104.25 70.8735 104.313 70.7105C104.372 70.5445 104.313 70.3638 104.19 70.2363C104.048 70.1267 103.864 70.0704 103.682 70.106C101.645 70.5445 99.9581 71.7862 99.0403 73.4694C98.5518 74.2903 98.4923 75.2771 98.8786 76.1336C99.0635 76.5544 99.5091 76.8477 100.018 76.8477H100.037C101.034 76.83 102.276 75.7157 103.131 74.5096C103.233 74.3644 103.418 74.2903 103.599 74.3081C103.784 74.3081 103.946 74.4 104.029 74.5452C104.372 75.0578 104.841 75.4964 105.412 75.8046C109.846 78.4539 116.296 73.2294 116.583 73.0101C116.683 72.9212 116.745 72.7908 116.745 72.6812C116.765 72.5537 116.706 72.4263 116.623 72.3344Z" fill="#523E27"/>
<path d="M142.134 66.8372C141.83 66.855 140.688 66.9113 139.285 67.0032C139.123 67.0032 138.958 66.9469 138.859 66.8195C138.757 66.692 138.757 66.5439 138.816 66.3986C140.649 62.4899 141.89 58.4182 140.731 56.0237C140.2 54.9095 139.041 54.1242 137.677 53.9612C131.798 52.9921 126.852 57.2654 125.205 61.7787C123.964 65.1392 124.756 68.0078 127.239 69.1013C127.503 69.2109 127.83 69.122 127.952 68.882C128.074 68.6449 127.972 68.3545 127.708 68.2449C125.327 67.184 125.367 64.3717 126.222 62.0691C127.727 57.9588 132.184 54.0323 137.496 54.9095C138.493 55.0191 139.368 55.5851 139.754 56.409C140.873 58.6908 139.325 62.9107 137.413 66.9113C137.291 67.1484 137.007 67.1662 136.822 67.1662C135.195 67.2403 133.587 67.4388 131.999 67.7885C131.735 67.8774 131.613 68.1708 131.715 68.4078C131.837 68.6449 132.144 68.7723 132.428 68.6627C133.567 68.4256 134.749 68.2804 135.928 68.2063C136.113 68.1886 136.274 68.2626 136.377 68.3901C136.476 68.5175 136.499 68.6834 136.416 68.8286C134.237 72.8293 131.92 76.1335 131.877 76.2076C131.735 76.4269 131.798 76.7202 132.042 76.8477C132.286 76.9929 132.61 76.9395 132.775 76.7202C134.667 73.9968 136.377 71.1846 137.882 68.2804C137.961 68.1352 138.126 68.0433 138.288 68.0256C139.671 67.9337 141.055 67.8418 142.197 67.7885C142.339 67.7885 142.461 67.7322 142.56 67.6225C142.662 67.5307 142.705 67.4032 142.705 67.2758C142.662 67.021 142.418 66.8372 142.134 66.8372Z" fill="#523E27"/>
<path d="M158.755 71.6233C158.653 71.5314 158.511 71.4958 158.369 71.4958C158.227 71.4958 158.105 71.5492 158.002 71.641C156.17 73.3776 152.06 75.9143 149.049 75.9143H149.01C148.174 75.9528 147.379 75.6594 146.811 75.129C146.078 74.4178 146.586 72.4826 146.831 71.8603C146.933 71.6233 146.811 71.3684 146.567 71.2765C146.342 71.1669 146.038 71.2202 145.893 71.4217C144.328 73.4695 142.09 75.4579 141.357 75.0756C141.113 74.9304 141.479 73.5228 142.476 71.9344C142.598 71.7151 142.516 71.4395 142.272 71.3121C142.027 71.1847 141.704 71.241 141.562 71.4603C140.869 72.536 139.423 75.1497 140.809 75.8965C141.905 76.4833 143.391 75.532 144.632 74.3822C144.754 74.2548 144.939 74.2162 145.101 74.2725C145.263 74.3081 145.385 74.4355 145.428 74.6015C145.487 75.0401 145.692 75.4401 146.015 75.7869C146.791 76.5188 147.867 76.9189 148.986 76.8833H149.049C152.407 76.8833 156.761 74.2162 158.775 72.3167C158.877 72.207 158.917 72.0974 158.917 71.97C158.917 71.8425 158.857 71.7151 158.755 71.6233Z" fill="#523E27"/>
<path d="M171.938 72.0796C171.836 71.9878 171.694 71.9344 171.552 71.9344C171.407 71.9344 171.265 71.9878 171.162 72.0796C171.123 72.1152 165.771 76.8478 161.925 75.8046C160.562 75.4401 159.809 74.2726 159.383 73.0309C159.261 72.6279 159.301 72.1893 159.505 71.807C160.928 69.211 164.428 62.4159 162.698 60.7564C162.292 60.2971 161.622 60.1519 161.031 60.3712C158.974 61.1742 157.61 66.5647 157.855 70.4912C157.898 71.0928 157.977 71.6973 158.099 72.2989C158.099 72.373 158.099 72.4263 158.142 72.4827C158.67 74.7823 159.872 76.264 161.622 76.7203C162.11 76.8478 162.599 76.9189 163.084 76.9189C167.217 76.9189 171.714 72.939 171.918 72.7553C172.017 72.6634 172.08 72.5538 172.08 72.4263C172.08 72.2811 172.037 72.1715 171.938 72.0796ZM158.974 70.2156C158.343 67.1663 160.44 61.6306 161.456 61.2483C161.499 61.2306 161.539 61.2128 161.579 61.2128C161.661 61.2128 161.764 61.2483 161.905 61.3935C162.718 62.1611 160.4 68.7725 159.321 70.3253C159.218 70.4912 159.017 70.3994 158.974 70.2156Z" fill="#523E27"/>
<path d="M188.497 72.207C188.293 72.0055 187.949 71.9878 187.745 72.1715C187.685 72.207 181.822 76.9011 173.622 75.5676C172.239 75.3483 171.525 74.8741 171.525 74.1807C171.506 72.9005 173.724 71.0395 175.19 70.7816C175.639 70.6542 176.124 70.7283 176.534 70.9654C176.817 71.2202 176.979 71.5877 176.979 71.97C176.979 72.2248 177.204 72.4441 177.488 72.4441C177.795 72.4441 178.019 72.2456 178.039 71.9878C178.059 71.3299 177.755 70.6927 177.224 70.2364C176.573 69.7978 175.761 69.6496 174.985 69.8511C173.216 70.1445 170.449 72.2634 170.469 74.1985C170.469 74.8919 170.855 76.098 173.44 76.5188C174.477 76.6818 175.537 76.7737 176.613 76.7737C180.928 76.7381 185.12 75.369 188.458 72.8827C188.56 72.7908 188.62 72.6634 188.639 72.5538C188.639 72.4263 188.58 72.2989 188.497 72.207Z" fill="#523E27"/>
<path d="M203.693 72.3907C203.492 72.1892 203.165 72.1715 202.941 72.3552C202.901 72.373 198.708 75.6594 195.635 75.2208C194.721 75.0934 193.928 74.6015 193.479 73.8695C193.093 73.2294 192.38 72.8293 191.588 72.7552C190.591 72.7019 189.491 73.2294 188.332 74.3259C188.27 74.3822 188.167 74.3999 188.088 74.3644C188.006 74.3259 187.966 74.2547 187.986 74.1629C188.045 73.8162 188.23 72.939 188.309 72.61C188.309 72.6634 188.455 72.4085 188.455 72.3907C190.181 70.2719 195.351 63.5509 193.337 61.3935C193.073 61.0646 192.585 60.9194 192.136 61.029C191.73 61.1387 190.488 61.4854 188.577 67.587C188.108 69.0658 187.679 70.6542 187.336 72.1537L187.19 72.3167C187.048 72.4826 187.048 72.7019 187.17 72.8827C186.867 74.234 186.662 75.4786 186.56 76.4269C186.54 76.6462 186.682 76.8477 186.906 76.9189C187.131 76.9929 187.395 76.9189 187.537 76.7381C189.613 74.0354 190.937 73.6858 191.525 73.7065C191.954 73.7421 192.34 73.9791 192.542 74.3259C193.152 75.3127 194.232 76.0061 195.493 76.1721C199.035 76.664 203.449 73.2116 203.654 73.0664C203.859 72.8827 203.878 72.5923 203.693 72.3907ZM192.443 61.9417C192.482 61.9417 192.502 61.998 192.522 62.0158C193.499 63.0026 189.452 70.346 188.94 70.0526C188.455 69.777 191.588 61.9417 192.443 61.9417Z" fill="#523E27"/>
<path d="M220.09 72.0618C219.991 71.9699 219.869 71.8958 219.724 71.8958C219.582 71.8781 219.44 71.9166 219.337 71.9877C219.258 72.044 211.424 77.633 204.891 75.2208C203.567 74.7289 203.508 74.0888 203.547 73.742C203.547 73.6857 203.567 73.6324 203.63 73.5968C203.67 73.5583 203.752 73.5583 203.811 73.5791C205.135 73.6502 206.459 73.339 207.598 72.7019C208.575 72.1359 208.737 71.5136 208.678 71.1105C208.635 70.4556 208.044 69.9252 207.291 69.9074C205.683 69.8333 202.999 71.5491 202.55 73.3775C202.369 74.0532 202.389 75.3304 204.485 76.098C205.766 76.5721 207.109 76.7914 208.473 76.7914C214.313 76.7914 219.724 72.939 220.011 72.7374C220.113 72.6634 220.193 72.5359 220.193 72.4263C220.212 72.2989 220.173 72.1714 220.09 72.0618ZM204.28 72.4648C205.076 71.478 206.396 70.8201 207.232 70.8735C207.456 70.8735 207.578 70.9475 207.618 71.2202C207.638 71.4039 207.413 71.6588 207.007 71.8958C206.172 72.3907 203.67 73.1938 204.28 72.4648Z" fill="#523E27"/>
<path d="M236.854 71.9522C236.752 71.8603 236.63 71.807 236.488 71.807C236.346 71.807 236.204 71.8603 236.102 71.9522C232.582 75.0401 226.333 75.698 224.993 74.9838C224.075 74.5096 224.177 73.9436 224.828 72.8116C225.135 72.2634 225.481 71.6233 224.89 71.241C224.339 70.8735 223.811 71.1106 223.342 71.3299C222.672 71.6766 221.919 71.8603 221.127 71.8603C220.942 71.8603 220.78 71.567 220.82 71.4603C221.959 69.211 221.45 68.7932 221.269 68.6273C220.962 68.3546 220.493 68.3724 219.925 68.6836C218.988 69.2851 218.582 70.3638 218.908 71.3684C218.988 71.641 219.133 71.8959 219.334 72.1152C219.314 72.3167 219.417 72.5004 219.618 72.5923C219.74 72.6456 219.886 72.6456 220.028 72.6101C220.374 72.7553 220.76 72.8294 221.147 72.8294C221.979 72.8472 222.794 72.6812 223.527 72.3167C223.811 72.1893 223.913 72.2989 223.874 72.373C223.385 73.2294 222.51 74.8001 224.461 75.8254C225.154 76.1158 225.927 76.2432 226.699 76.1899C229.548 76.1899 234.025 75.0934 236.834 72.6279C236.937 72.5538 236.996 72.4264 236.996 72.2989C237.016 72.1715 236.957 72.0441 236.854 71.9522ZM219.905 70.9476C219.783 70.4172 219.985 69.8689 220.453 69.5222C220.311 70.0171 220.13 70.4912 219.905 70.9654V70.9476Z" fill="#523E27"/>
<path d="M50.2528 120.463C50.2792 120.463 50.2924 120.487 50.2924 120.535C50.2924 120.582 50.2792 120.606 50.2528 120.606C49.9623 120.606 49.7279 120.603 49.5529 120.594L48.6285 120.582L47.7174 120.594C47.5754 120.603 47.3741 120.606 47.1099 120.606C47.0901 120.606 47.0835 120.582 47.0835 120.535C47.0835 120.487 47.0901 120.463 47.1099 120.463C47.417 120.463 47.6415 120.44 47.7834 120.392C47.932 120.345 48.0277 120.268 48.0739 120.155C48.1267 120.046 48.1433 119.868 48.1267 119.622L47.8626 114.217L44.8387 120.523C44.8188 120.555 44.7858 120.57 44.733 120.57C44.6868 120.57 44.6472 120.555 44.6142 120.523L41.2732 114.24L41.1544 119.242C41.1445 119.678 41.227 119.989 41.4053 120.179C41.5803 120.369 41.8741 120.463 42.29 120.463C42.3165 120.463 42.3297 120.487 42.3297 120.535C42.3297 120.582 42.3165 120.606 42.29 120.606C42.0424 120.606 41.8477 120.603 41.709 120.594L40.9827 120.582L40.2564 120.594C40.131 120.603 39.9527 120.606 39.715 120.606C39.6886 120.606 39.6754 120.582 39.6754 120.535C39.6754 120.487 39.6886 120.463 39.715 120.463C40.0848 120.463 40.3555 120.369 40.5338 120.179C40.7186 119.983 40.8144 119.669 40.8243 119.242L40.9431 113.719C40.6691 113.348 40.2895 113.162 39.8075 113.162C39.7811 113.162 39.7679 113.138 39.7679 113.09C39.7679 113.043 39.7811 113.019 39.8075 113.019L40.3357 113.031C40.4314 113.04 40.5635 113.043 40.7318 113.043C40.9068 113.043 41.0554 113.04 41.1808 113.031C41.303 113.025 41.3987 113.019 41.4713 113.019C41.5836 113.019 41.676 113.055 41.7486 113.126C41.8279 113.197 41.9401 113.372 42.092 113.648L45.1028 119.231L47.9815 113.328C48.0772 113.123 48.2093 113.019 48.3776 113.019C48.4206 113.019 48.4866 113.025 48.5757 113.031C48.6715 113.04 48.7903 113.043 48.9323 113.043L49.6057 113.031C49.7114 113.025 49.8632 113.019 50.0679 113.019C50.0844 113.019 50.0943 113.043 50.0943 113.09C50.0943 113.138 50.0844 113.162 50.0679 113.162C49.6189 113.162 49.2954 113.227 49.1039 113.351C48.9092 113.479 48.8167 113.704 48.8266 114.027L49.1171 119.622C49.1336 119.877 49.17 120.057 49.2228 120.167C49.2756 120.28 49.3746 120.357 49.5265 120.404C49.6751 120.446 49.9161 120.463 50.2528 120.463Z" fill="#523E27"/>
<path d="M57.0261 118.78C57.0261 118.756 57.0525 118.751 57.1053 118.756C57.1648 118.756 57.1978 118.768 57.1978 118.792C57.1185 119.322 57.0789 119.868 57.0789 120.428C57.0789 120.493 57.0591 120.54 57.0261 120.57C56.9898 120.594 56.9337 120.606 56.8544 120.606H51.1366C51.1168 120.606 51.1102 120.582 51.1102 120.535C51.1102 120.487 51.1168 120.463 51.1366 120.463C51.47 120.463 51.711 120.446 51.8629 120.404C52.0213 120.357 52.127 120.28 52.1798 120.167C52.2326 120.049 52.259 119.868 52.259 119.622V114.003C52.259 113.76 52.2326 113.582 52.1798 113.47C52.127 113.36 52.0213 113.28 51.8629 113.233C51.711 113.185 51.47 113.162 51.1366 113.162C51.1168 113.162 51.1102 113.138 51.1102 113.09C51.1102 113.043 51.1168 113.019 51.1366 113.019H56.6299C56.7092 113.019 56.7488 113.055 56.7488 113.126L56.7752 114.643C56.7752 114.667 56.7488 114.679 56.696 114.679C56.6498 114.679 56.6299 114.667 56.6299 114.643C56.5771 114.211 56.4088 113.879 56.1281 113.648C55.8442 113.41 55.4811 113.292 55.0321 113.292H54.2926C53.8602 113.292 53.5795 113.345 53.4475 113.446C53.3154 113.55 53.2494 113.751 53.2494 114.051V116.528H54.8076C55.2566 116.528 55.5801 116.463 55.7848 116.326C55.9862 116.184 56.0885 115.959 56.0885 115.651C56.0885 115.636 56.1149 115.627 56.1678 115.627C56.2206 115.627 56.247 115.636 56.247 115.651L56.2338 116.658C56.2338 116.895 56.2371 117.073 56.247 117.192L56.2602 117.796C56.2602 117.82 56.2338 117.832 56.181 117.832C56.1281 117.832 56.1017 117.82 56.1017 117.796C56.1017 117.441 55.9961 117.186 55.7848 117.026C55.5801 116.869 55.2434 116.789 54.768 116.789H53.2494V119.574C53.2494 119.788 53.2758 119.948 53.3286 120.049C53.3815 120.152 53.4739 120.226 53.606 120.274C53.7446 120.315 53.9559 120.333 54.2398 120.333H55.1906C55.6726 120.333 56.0687 120.2 56.379 119.93C56.696 119.663 56.9106 119.278 57.0261 118.78Z" fill="#523E27"/>
<path d="M67.4163 113.019C67.4427 113.019 67.4559 113.043 67.4559 113.09C67.4559 113.138 67.4427 113.162 67.4163 113.162C67.0466 113.162 66.7725 113.262 66.5976 113.458C66.4193 113.656 66.3335 113.968 66.3335 114.394V120.748C66.3335 120.772 66.3104 120.786 66.2674 120.795C66.2212 120.801 66.1915 120.798 66.175 120.783L59.8761 114.015L59.8365 113.968V119.242C59.8365 119.669 59.919 119.983 60.0874 120.179C60.2525 120.369 60.5166 120.463 60.8797 120.463C60.9061 120.463 60.9193 120.487 60.9193 120.535C60.9193 120.582 60.9061 120.606 60.8797 120.606C60.6684 120.606 60.4968 120.603 60.3647 120.594L59.678 120.582L58.965 120.594C58.8329 120.603 58.6381 120.606 58.3839 120.606C58.3641 120.606 58.3575 120.582 58.3575 120.535C58.3575 120.487 58.3641 120.463 58.3839 120.463C58.7702 120.463 59.0508 120.369 59.2291 120.179C59.404 119.983 59.4932 119.669 59.4932 119.242V113.648C59.1234 113.325 58.7471 113.162 58.3707 113.162C58.3443 113.162 58.3311 113.138 58.3311 113.09C58.3311 113.043 58.3443 113.019 58.3707 113.019L58.8725 113.031C58.9782 113.04 59.13 113.043 59.3347 113.043L59.9686 113.031C60.0379 113.025 60.1303 113.019 60.2459 113.019C60.3152 113.019 60.368 113.037 60.4043 113.067C60.4373 113.09 60.4902 113.15 60.5628 113.245C60.6684 113.396 60.7741 113.529 60.8797 113.648L65.9901 119.207V114.394C65.9901 113.968 65.9109 113.656 65.7524 113.458C65.594 113.262 65.3299 113.162 64.9601 113.162C64.9403 113.162 64.9337 113.138 64.9337 113.09C64.9337 113.043 64.9403 113.019 64.9601 113.019L65.4883 113.031C65.7689 113.049 65.9967 113.055 66.175 113.055C66.3401 113.055 66.5712 113.049 66.8617 113.031L67.4163 113.019Z" fill="#523E27"/>
<path d="M70.3254 113.245C69.7608 113.245 69.3284 113.384 69.0312 113.659C68.7308 113.929 68.5096 114.371 68.371 114.987C68.3611 115.011 68.3314 115.023 68.2786 115.023C68.2323 115.017 68.2125 115.005 68.2125 114.987C68.2455 114.759 68.2852 114.394 68.3314 113.896C68.3743 113.393 68.3974 113.007 68.3974 112.747C68.3974 112.708 68.4238 112.687 68.4766 112.687C68.5361 112.687 68.5691 112.708 68.5691 112.747C68.5691 112.93 68.8101 113.019 69.2954 113.019C70.0679 113.043 70.9757 113.055 72.0156 113.055C72.5438 113.055 73.1051 113.049 73.7059 113.031L74.617 113.019C74.9406 113.019 75.1849 113.002 75.3433 112.96C75.5018 112.922 75.6008 112.839 75.6471 112.711C75.6537 112.681 75.6801 112.664 75.7263 112.664C75.7692 112.664 75.7923 112.681 75.7923 112.711C75.7659 112.948 75.7395 113.313 75.7131 113.802C75.6867 114.294 75.6735 114.688 75.6735 114.987C75.6735 115.005 75.6471 115.011 75.5942 115.011C75.548 115.011 75.5216 115.005 75.515 114.987C75.4787 114.365 75.3169 113.917 75.0264 113.648C74.7425 113.381 74.3067 113.245 73.7191 113.245C73.356 113.245 73.0985 113.265 72.94 113.304C72.7815 113.336 72.6693 113.405 72.6099 113.505C72.557 113.609 72.5306 113.784 72.5306 114.027V119.622C72.5306 119.877 72.557 120.057 72.6099 120.167C72.6693 120.28 72.7881 120.357 72.9664 120.404C73.1414 120.446 73.422 120.463 73.8115 120.463C73.828 120.463 73.8379 120.487 73.8379 120.535C73.8379 120.582 73.828 120.606 73.8115 120.606C73.5012 120.606 73.2602 120.603 73.0852 120.594L72.0156 120.582L70.9856 120.594C70.8007 120.603 70.5432 120.606 70.2197 120.606C70.1999 120.606 70.1933 120.582 70.1933 120.535C70.1933 120.487 70.1999 120.463 70.2197 120.463C70.5961 120.463 70.8734 120.446 71.0516 120.404C71.2365 120.357 71.3587 120.28 71.4214 120.167C71.4907 120.049 71.527 119.868 71.527 119.622V114.003C71.527 113.766 71.494 113.6 71.4346 113.505C71.3719 113.405 71.2629 113.336 71.1045 113.304C70.9526 113.265 70.6951 113.245 70.3254 113.245Z" fill="#523E27"/>
<path d="M81.2475 120.748C80.409 120.748 79.6629 120.576 79.0026 120.226C78.349 119.871 77.8439 119.394 77.484 118.792C77.1308 118.193 76.9558 117.535 76.9558 116.824C76.9558 115.989 77.1869 115.271 77.6557 114.679C78.1311 114.086 78.7319 113.642 79.4648 113.339C80.2043 113.04 80.957 112.889 81.7229 112.889C82.5746 112.889 83.324 113.073 83.9678 113.434C84.6181 113.79 85.1166 114.264 85.46 114.857C85.8099 115.443 85.9882 116.066 85.9882 116.729C85.9882 117.473 85.7703 118.152 85.3411 118.768C84.9086 119.379 84.3276 119.859 83.598 120.214C82.875 120.57 82.0926 120.748 81.2475 120.748ZM81.7229 120.487C82.3105 120.487 82.8453 120.354 83.3207 120.084C83.7961 119.817 84.1692 119.426 84.4432 118.911C84.7139 118.398 84.8525 117.784 84.8525 117.073C84.8525 116.323 84.7007 115.651 84.4035 115.058C84.1031 114.465 83.6707 114.003 83.1094 113.671C82.5548 113.339 81.9078 113.173 81.1683 113.173C80.1977 113.173 79.4417 113.464 78.897 114.039C78.3589 114.608 78.0915 115.396 78.0915 116.398C78.0915 117.156 78.2433 117.85 78.5536 118.472C78.8607 119.097 79.2865 119.592 79.8345 119.954C80.3892 120.309 81.0164 120.487 81.7229 120.487Z" fill="#523E27"/>
<path d="M95.9343 120.463C95.9673 120.463 95.9871 120.487 95.9871 120.535C95.9871 120.582 95.9673 120.606 95.9343 120.606H94.0855C93.8743 120.606 93.4649 120.28 92.8575 119.622C92.2566 118.958 91.527 118.039 90.6654 116.86C90.4178 116.901 90.1933 116.919 89.9919 116.919C89.9457 116.919 89.7344 116.907 89.3581 116.884V119.622C89.3581 119.877 89.3845 120.057 89.4373 120.167C89.4901 120.28 89.5892 120.357 89.741 120.404C89.8995 120.446 90.1438 120.463 90.4805 120.463C90.5069 120.463 90.5201 120.487 90.5201 120.535C90.5201 120.582 90.5069 120.606 90.4805 120.606C90.19 120.606 89.9688 120.603 89.8203 120.594L88.8563 120.582L87.9187 120.594C87.7503 120.603 87.5226 120.606 87.232 120.606C87.2122 120.606 87.2056 120.582 87.2056 120.535C87.2056 120.487 87.2122 120.463 87.232 120.463C87.5655 120.463 87.8065 120.446 87.9583 120.404C88.1168 120.357 88.2224 120.28 88.2752 120.167C88.3347 120.049 88.3677 119.868 88.3677 119.622V114.003C88.3677 113.76 88.3413 113.582 88.2885 113.47C88.2356 113.36 88.13 113.28 87.9715 113.233C87.8197 113.185 87.582 113.162 87.2584 113.162C87.232 113.162 87.2188 113.138 87.2188 113.09C87.2188 113.043 87.232 113.019 87.2584 113.019L87.9187 113.031C88.2951 113.049 88.6087 113.055 88.8563 113.055C89.0412 113.055 89.2161 113.052 89.3845 113.043C89.5595 113.037 89.7146 113.028 89.8467 113.019C90.1801 112.996 90.4871 112.984 90.771 112.984C91.4907 112.984 92.0519 113.132 92.4481 113.422C92.8509 113.707 93.0555 114.092 93.0555 114.572C93.0555 115.008 92.9136 115.402 92.633 115.758C92.3491 116.113 91.976 116.395 91.5105 116.599C92.2665 117.58 92.8971 118.348 93.3989 118.899C93.9073 119.444 94.3628 119.844 94.759 120.096C95.1618 120.342 95.5546 120.463 95.9343 120.463ZM89.3581 116.587C89.6024 116.611 89.8665 116.623 90.1504 116.623C90.8272 116.623 91.3124 116.49 91.603 116.22C91.8935 115.953 92.0387 115.529 92.0387 114.952C92.0387 114.311 91.8869 113.858 91.5898 113.588C91.2893 113.313 90.8569 113.173 90.2956 113.173C89.9523 113.173 89.708 113.233 89.5694 113.351C89.4274 113.47 89.3581 113.695 89.3581 114.027V116.587Z" fill="#523E27"/>
<path d="M105.311 120.463C105.344 120.463 105.364 120.487 105.364 120.534C105.364 120.582 105.344 120.606 105.311 120.606C105.133 120.606 104.866 120.6 104.506 120.582C104.143 120.567 103.879 120.558 103.714 120.558C103.502 120.558 103.245 120.567 102.948 120.582C102.657 120.6 102.426 120.606 102.261 120.606C102.225 120.606 102.208 120.582 102.208 120.534C102.208 120.487 102.225 120.463 102.261 120.463C102.585 120.463 102.819 120.437 102.961 120.38C103.1 120.327 103.172 120.232 103.172 120.096C103.172 119.977 103.109 119.797 102.987 119.551L101.825 117.37H98.5899L97.7976 119.029C97.6722 119.275 97.6128 119.497 97.6128 119.693C97.6128 120.208 98.0518 120.463 98.9333 120.463C98.9762 120.463 98.9993 120.487 98.9993 120.534C98.9993 120.582 98.9762 120.606 98.9333 120.606C98.7649 120.606 98.5272 120.6 98.2202 120.582C97.8769 120.567 97.5797 120.558 97.3354 120.558C97.1044 120.558 96.827 120.567 96.5035 120.582C96.2394 120.6 96.0083 120.606 95.8169 120.606C95.7739 120.606 95.7508 120.582 95.7508 120.534C95.7508 120.487 95.7739 120.463 95.8169 120.463C96.0711 120.463 96.2856 120.422 96.4639 120.333C96.6389 120.247 96.8072 120.096 96.9657 119.883C97.1242 119.663 97.3024 119.343 97.5071 118.922L100.359 112.924C100.376 112.901 100.412 112.889 100.465 112.889C100.518 112.889 100.548 112.901 100.558 112.924L103.78 118.946C104.087 119.533 104.347 119.93 104.559 120.143C104.777 120.357 105.027 120.463 105.311 120.463ZM98.7088 117.109H101.68L100.122 114.169L98.7088 117.109Z" fill="#523E27"/>
<path d="M114.968 118.78C114.968 118.756 114.994 118.751 115.047 118.756C115.107 118.756 115.14 118.768 115.14 118.792C115.061 119.322 115.021 119.868 115.021 120.428C115.021 120.493 115.001 120.54 114.968 120.57C114.932 120.594 114.876 120.606 114.796 120.606H109.079C109.059 120.606 109.052 120.582 109.052 120.535C109.052 120.487 109.059 120.463 109.079 120.463C109.412 120.463 109.653 120.446 109.805 120.404C109.963 120.357 110.069 120.28 110.122 120.167C110.175 120.049 110.201 119.868 110.201 119.622V114.003C110.201 113.76 110.175 113.582 110.122 113.47C110.069 113.36 109.963 113.28 109.805 113.233C109.653 113.185 109.412 113.162 109.079 113.162C109.059 113.162 109.052 113.138 109.052 113.09C109.052 113.043 109.059 113.019 109.079 113.019H114.572C114.651 113.019 114.691 113.055 114.691 113.126L114.717 114.643C114.717 114.667 114.691 114.679 114.638 114.679C114.592 114.679 114.572 114.667 114.572 114.643C114.519 114.211 114.351 113.879 114.07 113.648C113.786 113.41 113.423 113.292 112.974 113.292H112.235C111.802 113.292 111.522 113.345 111.389 113.446C111.257 113.55 111.191 113.751 111.191 114.051V116.528H112.75C113.199 116.528 113.522 116.463 113.727 116.326C113.928 116.184 114.031 115.959 114.031 115.651C114.031 115.636 114.057 115.627 114.11 115.627C114.163 115.627 114.189 115.636 114.189 115.651L114.176 116.658C114.176 116.895 114.179 117.073 114.189 117.192L114.202 117.796C114.202 117.82 114.176 117.832 114.123 117.832C114.07 117.832 114.044 117.82 114.044 117.796C114.044 117.441 113.938 117.186 113.727 117.026C113.522 116.869 113.185 116.789 112.71 116.789H111.191V119.574C111.191 119.788 111.218 119.948 111.271 120.049C111.323 120.152 111.416 120.226 111.548 120.274C111.687 120.315 111.898 120.333 112.182 120.333H113.133C113.615 120.333 114.011 120.2 114.321 119.93C114.638 119.663 114.853 119.278 114.968 118.78Z" fill="#523E27"/>
<path d="M121.589 113.245C121.024 113.245 120.592 113.384 120.295 113.659C119.994 113.929 119.773 114.371 119.635 114.987C119.625 115.011 119.595 115.023 119.542 115.023C119.496 115.017 119.476 115.005 119.476 114.987C119.509 114.759 119.549 114.394 119.595 113.896C119.638 113.393 119.661 113.007 119.661 112.747C119.661 112.708 119.687 112.687 119.74 112.687C119.8 112.687 119.833 112.708 119.833 112.747C119.833 112.93 120.074 113.019 120.559 113.019C121.331 113.043 122.239 113.055 123.279 113.055C123.807 113.055 124.369 113.049 124.97 113.031L125.881 113.019C126.204 113.019 126.448 113.002 126.607 112.96C126.765 112.922 126.864 112.839 126.911 112.711C126.917 112.681 126.944 112.664 126.99 112.664C127.033 112.664 127.056 112.681 127.056 112.711C127.03 112.948 127.003 113.313 126.977 113.802C126.95 114.294 126.937 114.688 126.937 114.987C126.937 115.005 126.911 115.011 126.858 115.011C126.812 115.011 126.785 115.005 126.779 114.987C126.742 114.365 126.581 113.917 126.29 113.648C126.006 113.381 125.57 113.245 124.983 113.245C124.62 113.245 124.362 113.265 124.204 113.304C124.045 113.336 123.933 113.405 123.873 113.505C123.821 113.609 123.794 113.784 123.794 114.027V119.622C123.794 119.877 123.821 120.057 123.873 120.167C123.933 120.28 124.052 120.357 124.23 120.404C124.405 120.446 124.686 120.463 125.075 120.463C125.092 120.463 125.102 120.487 125.102 120.535C125.102 120.582 125.092 120.606 125.075 120.606C124.765 120.606 124.524 120.603 124.349 120.594L123.279 120.582L122.249 120.594C122.064 120.603 121.807 120.606 121.483 120.606C121.464 120.606 121.457 120.582 121.457 120.535C121.457 120.487 121.464 120.463 121.483 120.463C121.86 120.463 122.137 120.446 122.315 120.404C122.5 120.357 122.622 120.28 122.685 120.167C122.754 120.049 122.791 119.868 122.791 119.622V114.003C122.791 113.766 122.758 113.6 122.698 113.505C122.635 113.405 122.527 113.336 122.368 113.304C122.216 113.265 121.959 113.245 121.589 113.245Z" fill="#523E27"/>
<path d="M134.03 118.78C134.03 118.756 134.056 118.751 134.109 118.756C134.168 118.756 134.201 118.768 134.201 118.792C134.122 119.322 134.082 119.868 134.082 120.428C134.082 120.493 134.063 120.54 134.03 120.57C133.993 120.594 133.937 120.606 133.858 120.606H128.14C128.12 120.606 128.114 120.582 128.114 120.535C128.114 120.487 128.12 120.463 128.14 120.463C128.474 120.463 128.715 120.446 128.866 120.404C129.025 120.357 129.131 120.28 129.183 120.167C129.236 120.049 129.263 119.868 129.263 119.622V114.003C129.263 113.76 129.236 113.582 129.183 113.47C129.131 113.36 129.025 113.28 128.866 113.233C128.715 113.185 128.474 113.162 128.14 113.162C128.12 113.162 128.114 113.138 128.114 113.09C128.114 113.043 128.12 113.019 128.14 113.019H133.634C133.713 113.019 133.752 113.055 133.752 113.126L133.779 114.643C133.779 114.667 133.752 114.679 133.7 114.679C133.653 114.679 133.634 114.667 133.634 114.643C133.581 114.211 133.412 113.879 133.132 113.648C132.848 113.41 132.485 113.292 132.036 113.292H131.296C130.864 113.292 130.583 113.345 130.451 113.446C130.319 113.55 130.253 113.751 130.253 114.051V116.528H131.811C132.26 116.528 132.584 116.463 132.788 116.326C132.99 116.184 133.092 115.959 133.092 115.651C133.092 115.636 133.119 115.627 133.171 115.627C133.224 115.627 133.251 115.636 133.251 115.651L133.237 116.658C133.237 116.895 133.241 117.073 133.251 117.192L133.264 117.796C133.264 117.82 133.237 117.832 133.185 117.832C133.132 117.832 133.105 117.82 133.105 117.796C133.105 117.441 133 117.186 132.788 117.026C132.584 116.869 132.247 116.789 131.772 116.789H130.253V119.574C130.253 119.788 130.279 119.948 130.332 120.049C130.385 120.152 130.477 120.226 130.61 120.274C130.748 120.315 130.959 120.333 131.243 120.333H132.194C132.676 120.333 133.072 120.2 133.383 119.93C133.7 119.663 133.914 119.278 134.03 118.78Z" fill="#523E27"/>
<path d="M144.143 120.463C144.176 120.463 144.195 120.487 144.195 120.535C144.195 120.582 144.176 120.606 144.143 120.606H142.294C142.083 120.606 141.673 120.28 141.066 119.622C140.465 118.958 139.735 118.039 138.874 116.86C138.626 116.901 138.402 116.919 138.2 116.919C138.154 116.919 137.943 116.907 137.566 116.884V119.622C137.566 119.877 137.593 120.057 137.646 120.167C137.699 120.28 137.798 120.357 137.949 120.404C138.108 120.446 138.352 120.463 138.689 120.463C138.715 120.463 138.729 120.487 138.729 120.535C138.729 120.582 138.715 120.606 138.689 120.606C138.398 120.606 138.177 120.603 138.029 120.594L137.065 120.582L136.127 120.594C135.959 120.603 135.731 120.606 135.44 120.606C135.421 120.606 135.414 120.582 135.414 120.535C135.414 120.487 135.421 120.463 135.44 120.463C135.774 120.463 136.015 120.446 136.167 120.404C136.325 120.357 136.431 120.28 136.484 120.167C136.543 120.049 136.576 119.868 136.576 119.622V114.003C136.576 113.76 136.55 113.582 136.497 113.47C136.444 113.36 136.338 113.28 136.18 113.233C136.028 113.185 135.79 113.162 135.467 113.162C135.44 113.162 135.427 113.138 135.427 113.09C135.427 113.043 135.44 113.019 135.467 113.019L136.127 113.031C136.503 113.049 136.817 113.055 137.065 113.055C137.25 113.055 137.424 113.052 137.593 113.043C137.768 113.037 137.923 113.028 138.055 113.019C138.388 112.996 138.695 112.984 138.979 112.984C139.699 112.984 140.26 113.132 140.656 113.422C141.059 113.707 141.264 114.092 141.264 114.572C141.264 115.008 141.122 115.402 140.841 115.758C140.557 116.113 140.184 116.395 139.719 116.599C140.475 117.58 141.105 118.348 141.607 118.899C142.116 119.444 142.571 119.844 142.967 120.096C143.37 120.342 143.763 120.463 144.143 120.463ZM137.566 116.587C137.811 116.611 138.075 116.623 138.359 116.623C139.036 116.623 139.521 116.49 139.811 116.22C140.102 115.953 140.247 115.529 140.247 114.952C140.247 114.311 140.095 113.858 139.798 113.588C139.498 113.313 139.065 113.173 138.504 113.173C138.161 113.173 137.916 113.233 137.778 113.351C137.636 113.47 137.566 113.695 137.566 114.027V116.587Z" fill="#523E27"/>
<path d="M153.52 120.463C153.553 120.463 153.572 120.487 153.572 120.534C153.572 120.582 153.553 120.606 153.52 120.606C153.341 120.606 153.074 120.6 152.714 120.582C152.351 120.567 152.087 120.558 151.922 120.558C151.711 120.558 151.453 120.567 151.156 120.582C150.865 120.6 150.634 120.606 150.469 120.606C150.433 120.606 150.416 120.582 150.416 120.534C150.416 120.487 150.433 120.463 150.469 120.463C150.793 120.463 151.027 120.437 151.169 120.38C151.308 120.327 151.38 120.232 151.38 120.096C151.38 119.977 151.318 119.797 151.196 119.551L150.034 117.37H146.798L146.006 119.029C145.88 119.275 145.821 119.497 145.821 119.693C145.821 120.208 146.26 120.463 147.142 120.463C147.184 120.463 147.208 120.487 147.208 120.534C147.208 120.582 147.184 120.606 147.142 120.606C146.973 120.606 146.736 120.6 146.428 120.582C146.085 120.567 145.788 120.558 145.544 120.558C145.313 120.558 145.035 120.567 144.712 120.582C144.448 120.6 144.217 120.606 144.025 120.606C143.982 120.606 143.959 120.582 143.959 120.534C143.959 120.487 143.982 120.463 144.025 120.463C144.279 120.463 144.494 120.422 144.672 120.333C144.847 120.247 145.016 120.096 145.174 119.883C145.332 119.663 145.511 119.343 145.715 118.922L148.568 112.924C148.584 112.901 148.621 112.889 148.673 112.889C148.726 112.889 148.756 112.901 148.766 112.924L151.988 118.946C152.295 119.533 152.556 119.93 152.767 120.143C152.985 120.357 153.236 120.463 153.52 120.463ZM146.917 117.109H149.888L148.33 114.169L146.917 117.109Z" fill="#523E27"/>
<path d="M156.197 119.574C156.197 119.835 156.23 120.025 156.302 120.143C156.372 120.256 156.513 120.339 156.725 120.392C156.943 120.44 157.283 120.463 157.742 120.463C157.775 120.463 157.794 120.487 157.794 120.535C157.794 120.582 157.775 120.606 157.742 120.606C157.372 120.606 157.085 120.603 156.883 120.594L155.708 120.582L154.784 120.594C154.625 120.603 154.394 120.606 154.097 120.606C154.071 120.606 154.057 120.582 154.057 120.535C154.057 120.487 154.071 120.463 154.097 120.463C154.42 120.463 154.658 120.446 154.81 120.404C154.968 120.357 155.074 120.28 155.127 120.167C155.18 120.049 155.206 119.868 155.206 119.622V114.003C155.206 113.76 155.18 113.582 155.127 113.47C155.074 113.36 154.968 113.28 154.81 113.233C154.658 113.185 154.42 113.162 154.097 113.162C154.071 113.162 154.057 113.138 154.057 113.09C154.057 113.043 154.071 113.019 154.097 113.019L154.784 113.031C155.16 113.049 155.464 113.055 155.695 113.055C155.906 113.055 156.16 113.043 156.461 113.019C156.566 113.019 156.731 113.016 156.962 113.008C157.2 112.993 157.402 112.984 157.57 112.984C158.405 112.984 159.079 113.156 159.59 113.494C160.099 113.825 160.356 114.332 160.356 115.011C160.356 115.532 160.211 115.98 159.92 116.35C159.63 116.715 159.254 116.987 158.798 117.168C158.339 117.343 157.867 117.429 157.385 117.429C157.121 117.429 156.9 117.411 156.725 117.37C156.705 117.37 156.698 117.346 156.698 117.299C156.698 117.275 156.702 117.251 156.712 117.227C156.728 117.204 156.745 117.198 156.764 117.204C156.896 117.236 157.055 117.251 157.24 117.251C157.794 117.251 158.263 117.079 158.653 116.73C159.039 116.383 159.234 115.882 159.234 115.224C159.234 114.584 159.049 114.083 158.679 113.719C158.309 113.357 157.824 113.173 157.227 113.173C156.926 113.173 156.705 113.194 156.566 113.233C156.434 113.274 156.335 113.351 156.276 113.47C156.223 113.582 156.197 113.766 156.197 114.027V119.574Z" fill="#523E27"/>
<path d="M167.367 118.78C167.367 118.756 167.394 118.751 167.446 118.756C167.506 118.756 167.539 118.768 167.539 118.792C167.46 119.322 167.42 119.868 167.42 120.428C167.42 120.493 167.4 120.54 167.367 120.57C167.331 120.594 167.275 120.606 167.196 120.606H161.478C161.458 120.606 161.451 120.582 161.451 120.535C161.451 120.487 161.458 120.463 161.478 120.463C161.811 120.463 162.052 120.446 162.204 120.404C162.362 120.357 162.468 120.28 162.521 120.167C162.574 120.049 162.6 119.868 162.6 119.622V114.003C162.6 113.76 162.574 113.582 162.521 113.47C162.468 113.36 162.362 113.28 162.204 113.233C162.052 113.185 161.811 113.162 161.478 113.162C161.458 113.162 161.451 113.138 161.451 113.09C161.451 113.043 161.458 113.019 161.478 113.019H166.971C167.05 113.019 167.09 113.055 167.09 113.126L167.116 114.643C167.116 114.667 167.09 114.679 167.037 114.679C166.991 114.679 166.971 114.667 166.971 114.643C166.918 114.211 166.75 113.879 166.469 113.648C166.185 113.41 165.822 113.292 165.373 113.292H164.634C164.201 113.292 163.921 113.345 163.789 113.446C163.657 113.55 163.591 113.751 163.591 114.051V116.528H165.149C165.598 116.528 165.921 116.463 166.126 116.326C166.327 116.184 166.43 115.959 166.43 115.651C166.43 115.636 166.456 115.627 166.509 115.627C166.562 115.627 166.588 115.636 166.588 115.651L166.575 116.658C166.575 116.895 166.578 117.073 166.588 117.192L166.601 117.796C166.601 117.82 166.575 117.832 166.522 117.832C166.469 117.832 166.443 117.82 166.443 117.796C166.443 117.441 166.337 117.186 166.126 117.026C165.921 116.869 165.585 116.789 165.109 116.789H163.591V119.574C163.591 119.788 163.617 119.948 163.67 120.049C163.723 120.152 163.815 120.226 163.947 120.274C164.086 120.315 164.297 120.333 164.581 120.333H165.532C166.014 120.333 166.41 120.2 166.72 119.93C167.037 119.663 167.252 119.278 167.367 118.78Z" fill="#523E27"/>
<path d="M175.935 114.394C175.935 113.991 175.833 113.689 175.631 113.482C175.427 113.268 175.133 113.162 174.747 113.162C174.72 113.162 174.707 113.138 174.707 113.09C174.707 113.043 174.72 113.019 174.747 113.019L175.341 113.031C175.638 113.049 175.895 113.055 176.107 113.055C176.272 113.055 176.503 113.049 176.793 113.031L177.361 113.019C177.378 113.019 177.388 113.043 177.388 113.09C177.388 113.138 177.378 113.162 177.361 113.162C176.998 113.162 176.727 113.268 176.543 113.482C176.364 113.689 176.278 113.991 176.278 114.394V117.832C176.278 118.742 175.981 119.456 175.394 119.977C174.813 120.499 174.034 120.76 173.056 120.76C172.386 120.76 171.802 120.644 171.3 120.416C170.798 120.179 170.405 119.844 170.125 119.408C169.851 118.976 169.715 118.469 169.715 117.891V114.003C169.715 113.76 169.682 113.582 169.623 113.47C169.57 113.36 169.468 113.28 169.319 113.233C169.167 113.185 168.926 113.162 168.593 113.162C168.573 113.162 168.567 113.138 168.567 113.09C168.567 113.043 168.573 113.019 168.593 113.019L169.266 113.031C169.663 113.049 169.973 113.055 170.204 113.055C170.448 113.055 170.772 113.049 171.168 113.031L171.802 113.019C171.828 113.019 171.841 113.043 171.841 113.09C171.841 113.138 171.828 113.162 171.802 113.162C171.485 113.162 171.247 113.191 171.089 113.245C170.937 113.292 170.831 113.375 170.772 113.493C170.719 113.606 170.693 113.784 170.693 114.027V117.464C170.693 118.422 170.924 119.148 171.393 119.646C171.868 120.143 172.531 120.392 173.386 120.392C174.185 120.392 174.813 120.167 175.262 119.717C175.711 119.266 175.935 118.644 175.935 117.844V114.394Z" fill="#523E27"/>
<path d="M180.274 113.245C179.71 113.245 179.277 113.384 178.98 113.659C178.68 113.929 178.459 114.371 178.32 114.987C178.31 115.011 178.28 115.023 178.228 115.023C178.181 115.017 178.161 115.005 178.161 114.987C178.195 114.759 178.234 114.394 178.28 113.896C178.323 113.393 178.346 113.007 178.346 112.747C178.346 112.708 178.373 112.687 178.426 112.687C178.485 112.687 178.518 112.708 178.518 112.747C178.518 112.93 178.759 113.019 179.244 113.019C180.017 113.043 180.925 113.055 181.965 113.055C182.493 113.055 183.054 113.049 183.655 113.031L184.566 113.019C184.89 113.019 185.134 113.002 185.292 112.96C185.451 112.922 185.55 112.839 185.596 112.711C185.603 112.681 185.629 112.664 185.675 112.664C185.718 112.664 185.741 112.681 185.741 112.711C185.715 112.948 185.688 113.313 185.662 113.802C185.636 114.294 185.622 114.688 185.622 114.987C185.622 115.005 185.596 115.011 185.543 115.011C185.497 115.011 185.471 115.005 185.464 114.987C185.428 114.365 185.266 113.917 184.975 113.648C184.691 113.381 184.256 113.245 183.668 113.245C183.305 113.245 183.047 113.265 182.889 113.304C182.731 113.336 182.618 113.405 182.559 113.505C182.506 113.609 182.48 113.784 182.48 114.027V119.622C182.48 119.877 182.506 120.057 182.559 120.167C182.618 120.28 182.737 120.357 182.915 120.404C183.09 120.446 183.371 120.463 183.761 120.463C183.777 120.463 183.787 120.487 183.787 120.535C183.787 120.582 183.777 120.606 183.761 120.606C183.45 120.606 183.209 120.603 183.034 120.594L181.965 120.582L180.935 120.594C180.75 120.603 180.492 120.606 180.169 120.606C180.149 120.606 180.142 120.582 180.142 120.535C180.142 120.487 180.149 120.463 180.169 120.463C180.545 120.463 180.822 120.446 181.001 120.404C181.185 120.357 181.308 120.28 181.37 120.167C181.44 120.049 181.476 119.868 181.476 119.622V114.003C181.476 113.766 181.443 113.6 181.384 113.505C181.321 113.405 181.212 113.336 181.053 113.304C180.902 113.265 180.644 113.245 180.274 113.245Z" fill="#523E27"/>
<path d="M195.739 120.463C195.772 120.463 195.792 120.487 195.792 120.534C195.792 120.582 195.772 120.606 195.739 120.606C195.561 120.606 195.293 120.6 194.934 120.582C194.57 120.567 194.306 120.558 194.141 120.558C193.93 120.558 193.672 120.567 193.375 120.582C193.085 120.6 192.854 120.606 192.689 120.606C192.652 120.606 192.636 120.582 192.636 120.534C192.636 120.487 192.652 120.463 192.689 120.463C193.012 120.463 193.247 120.437 193.389 120.38C193.527 120.327 193.6 120.232 193.6 120.096C193.6 119.977 193.537 119.797 193.415 119.551L192.253 117.37H189.018L188.225 119.029C188.1 119.275 188.04 119.497 188.04 119.693C188.04 120.208 188.48 120.463 189.361 120.463C189.404 120.463 189.427 120.487 189.427 120.534C189.427 120.582 189.404 120.606 189.361 120.606C189.193 120.606 188.955 120.6 188.648 120.582C188.305 120.567 188.007 120.558 187.763 120.558C187.532 120.558 187.255 120.567 186.931 120.582C186.667 120.6 186.436 120.606 186.245 120.606C186.202 120.606 186.179 120.582 186.179 120.534C186.179 120.487 186.202 120.463 186.245 120.463C186.499 120.463 186.713 120.422 186.892 120.333C187.067 120.247 187.235 120.096 187.393 119.883C187.552 119.663 187.73 119.343 187.935 118.922L190.787 112.924C190.804 112.901 190.84 112.889 190.893 112.889C190.946 112.889 190.975 112.901 190.985 112.924L194.207 118.946C194.514 119.533 194.775 119.93 194.986 120.143C195.204 120.357 195.455 120.463 195.739 120.463ZM189.136 117.109H192.108L190.549 114.169L189.136 117.109Z" fill="#523E27"/>
</svg>
