<svg width="405" height="67" viewBox="0 0 405 67" fill="none" xmlns="http://www.w3.org/2000/svg">
<path d="M34.5141 0.804108H388.606V53.2729H34.5141V0.804108Z" fill="#E8CFC1"/>
<path d="M43.1648 40.7042C44.767 38.0216 45.8107 38.6742 48.0729 39.1872C50.7808 40.219 53.3195 41.1838 55.6156 42.0092C56.3433 42.2825 56.8341 42.8681 56.9357 43.621C57.528 47.854 58.4306 50.0848 59.8241 50.5309C60.0667 50.6369 60.3092 50.6034 60.518 50.4975C60.7267 50.3971 60.9016 50.1907 60.9693 49.9844C61.1103 49.4992 60.8678 48.9861 60.3769 48.8132C59.7902 48.6068 59.3389 47.2349 58.9891 45.1379C58.882 44.6918 59.0568 44.24 59.4066 43.9668C59.7169 43.6935 60.2077 43.5875 60.6252 43.7269C62.9889 44.5858 65.4938 45.1045 68.0324 45.2383C68.2355 45.2383 68.4837 45.1379 68.653 44.965C68.8279 44.7922 68.9012 44.5523 68.9012 44.3125C68.9012 44.0727 68.794 43.8273 68.6191 43.6935C68.4442 43.5206 68.2017 43.4146 67.9591 43.4146C65.144 43.2083 62.3966 42.5558 59.7564 41.524C58.9891 41.2842 58.4306 40.5982 58.3629 39.8063C57.8044 32.6231 57.7367 22.9637 57.7029 17.5651C57.669 10.0361 57.5957 7.11931 57.2516 6.29391C57.1105 5.91467 56.7608 5.67486 56.3828 5.70832C55.9653 5.74178 55.6494 6.01506 55.5479 6.39429C53.4944 13.7169 50.9557 20.9002 47.9319 27.877C46.9221 30.1469 45.9517 32.2104 44.9419 34.1345C44.4906 35.0324 43.3736 35.4395 42.4371 35.0993C31.03 30.7659 17.9926 26.1258 8.01287 25.3729C4.15411 25.0941 1.6493 25.7801 0.571781 27.3974C-0.330853 28.7749 -0.16161 30.593 1.05695 32.8294C4.88186 39.7394 19.6286 50.7373 29.9525 50.7373C34.8211 50.7373 39.3061 46.5099 43.1648 40.7042ZM6.30915 27.1241C6.79432 27.1241 7.31897 27.1241 7.87183 27.1576C17.3664 27.877 29.851 32.2438 40.9083 36.4378C41.4611 36.6441 41.9181 37.1293 42.0873 37.6759C42.2961 38.2615 42.1945 38.8805 41.8786 39.3936C37.8111 45.6845 33.7774 48.9192 29.9525 48.9192C21.0503 48.9192 6.58558 39.0869 2.65912 31.9706C2.06677 30.8719 1.47442 29.3605 2.10062 28.3957C2.61963 27.5703 4.12026 27.1241 6.30915 27.1241ZM55.1642 13.9233C55.4068 13.2039 55.8581 13.3377 55.8581 14.1296C55.8581 15.2283 55.8581 16.3995 55.892 17.5651C55.9315 26.0254 56.0669 32.7625 56.3828 37.8822C56.4505 38.4678 56.1741 38.9809 55.7227 39.3267C55.2658 39.6724 54.6791 39.7394 54.1544 39.533C51.9655 38.7076 49.6017 37.8153 47.1646 36.8839L45.8107 36.3708C49.6017 29.1876 52.7271 21.6586 55.1642 13.9233Z" fill="#523E27"/>
<path d="M94.9274 42.0428C94.5438 41.697 93.9515 41.7305 93.6412 42.1097C90.8938 44.9317 86.4427 45.205 83.385 42.7622C82.6516 42.2491 81.6418 42.2826 80.9817 42.9016C80.6037 43.2474 80.1863 43.6211 79.7688 44.0728C78.4431 45.5507 78.2005 44.3126 78.2005 43.4872C78.2005 42.7622 78.0651 42.0093 77.8169 41.3178C77.6815 40.9776 77.3317 40.7377 76.9481 40.7377C76.5701 40.7712 76.2542 40.9776 76.1131 41.3568C75.1428 44.0338 73.0555 47.9544 71.5943 48.2277C71.4928 48.2667 71.2107 48.3002 70.7932 47.854C70.5845 46.9561 70.7255 45.9969 71.1769 45.1715C72.2205 42.3885 74.793 40.4254 77.783 40.1522C78.3077 40.1187 78.6913 39.6725 78.6518 39.1873C78.618 38.6742 78.1666 38.295 77.6815 38.3285C73.9581 38.6742 70.7594 41.0779 69.4393 44.5524C68.8469 46.0638 68.5028 48.0604 69.4393 49.0531C70.0655 49.8116 71.002 50.1574 71.9441 49.9845C73.6817 49.6387 75.2444 47.3688 76.3614 45.3053C76.288 46.1307 76.1865 47.0621 76.0454 48.0214C76.0116 48.2277 75.9439 48.4006 75.8367 48.54C71.7692 53.6263 68.0853 59.7777 68.012 63.6649C67.9104 64.6967 68.2941 65.7284 68.988 66.4813C69.3321 66.8271 69.7496 67 70.2065 67C70.5845 67 70.9681 66.894 71.284 66.6877C73.5745 65.1763 76.4968 56.3423 77.6476 49.332C77.6815 49.1925 77.7492 49.0531 77.8564 48.9193C79.0693 47.4413 80.3555 46.0304 81.7151 44.6919C82.0254 44.3796 82.5162 44.3461 82.8603 44.5859C86.6852 47.129 91.7626 46.5825 94.9613 43.3143C95.2772 42.9351 95.2772 42.3885 94.9274 42.0428ZM71.7692 63.0459C70.9681 64.6298 70.6917 65.3157 70.2742 65.1763C69.8568 65.0759 69.8229 64.3844 69.8568 63.6984C69.9245 61.0493 74.5843 52.0814 75.2444 52.3547C75.9044 52.628 73.0893 60.3299 71.7692 63.0459Z" fill="#523E27"/>
<path d="M122.706 42.7622C122.356 42.3885 121.764 42.3495 121.386 42.6952C121.279 42.8012 110.955 51.9754 104.552 47.8149C102.013 46.1697 101.392 42.1821 101.392 42.1431C101.353 41.7304 101.043 41.4237 100.625 41.3567C100.242 41.3177 99.8242 41.5241 99.6493 41.8698C98.0189 45.4447 95.1305 49.9844 94.3294 49.4658C94.2617 49.4658 94.1207 49.3319 94.0191 49.0921C93.6016 47.9544 93.737 46.7163 94.3294 45.6511C95.6495 42.9685 98.0866 41.0444 101.009 40.325C101.319 40.2525 101.562 40.0127 101.669 39.7059C101.77 39.3936 101.669 39.0534 101.46 38.8136C101.218 38.6073 100.902 38.5013 100.591 38.5682C97.1106 39.3936 94.2278 41.7304 92.6595 44.8982C91.8246 46.443 91.723 48.3002 92.3831 49.9119C92.699 50.7039 93.4606 51.256 94.3294 51.256H94.3632C96.067 51.2225 98.1881 49.1256 99.6493 46.8557C99.8242 46.5824 100.14 46.443 100.45 46.4765C100.766 46.4765 101.043 46.6493 101.184 46.9226C101.77 47.8875 102.572 48.7129 103.548 49.2929C111.124 54.2787 122.147 44.4464 122.638 44.0337C122.808 43.8664 122.915 43.621 122.915 43.4147C122.949 43.1749 122.847 42.935 122.706 42.7622Z" fill="#523E27"/>
<path d="M145.577 41.7304C145.233 41.3902 144.641 41.3902 144.291 41.7695C144.223 41.8364 134.802 51.2226 128.54 48.8858C125.759 47.815 124.574 44.6193 124.123 41.4572C124.749 39.9458 125.793 37.4361 126.769 34.6197C126.87 34.2739 126.977 34.2405 127.395 34.207C132.089 33.8612 136.748 33.6883 139.496 33.6883C140.015 33.6883 140.398 33.2756 140.398 32.796C140.398 32.2773 140.015 31.9037 139.496 31.9037C136.85 31.9037 132.506 32.11 128.055 32.3498C127.88 32.3833 127.57 32.2773 127.812 31.6583C129.482 26.9513 130.661 22.1717 129.934 20.7273C129.2 19.2884 128.23 19.2494 127.739 19.3553C125.167 19.835 123.288 26.4382 122.453 31.8312C122.385 32.3164 122.143 32.7291 121.691 32.7625C116.23 33.1752 111.745 33.482 111.678 33.482C111.153 33.5154 110.77 33.9281 110.809 34.4468C110.809 34.9264 111.226 35.3391 111.745 35.3057H111.813C111.92 35.3057 116.129 34.9934 121.375 34.6197C121.55 34.5807 121.725 34.6197 121.866 34.7535C122.002 34.8595 122.109 35.0324 122.109 35.1997C121.584 43.3812 123.672 48.9862 127.88 50.57C128.783 50.8768 129.725 51.0497 130.695 51.0497C137.583 51.0497 145.233 43.3812 145.617 43.041C145.786 42.8681 145.859 42.6283 145.859 42.3885C145.859 42.1431 145.752 41.9033 145.577 41.7304ZM124.298 31.7643C125.099 26.5386 126.695 22.4116 127.637 21.3463C127.739 21.2794 127.88 21.2459 128.021 21.2794C128.123 21.3129 128.23 21.3854 128.298 21.5192C128.715 22.4116 127.53 26.7784 125.759 31.9706C125.691 32.2773 125.449 32.5227 125.099 32.5562C124.924 32.5897 124.749 32.5897 124.54 32.5897C124.196 32.5897 124.264 32.0375 124.298 31.7977V31.7643ZM123.88 37.1628C123.536 37.1628 123.672 34.7535 123.987 34.4133C124.264 34.2405 124.614 34.207 124.89 34.3743C125.2 34.6532 124.264 37.1628 123.88 37.1628Z" fill="#523E27"/>
<path d="M171.374 42.8681C171.03 42.4889 170.472 42.4554 170.088 42.8012C170.02 42.8347 162.856 49.0196 157.604 48.1942C156.041 47.9544 154.687 47.0286 153.92 45.6511C153.26 44.4464 152.041 43.6935 150.687 43.5541C148.983 43.4537 147.105 44.4464 145.125 46.5099C145.017 46.6159 144.843 46.6494 144.707 46.5825C144.566 46.5099 144.498 46.3761 144.532 46.2032C144.634 45.5507 144.95 43.8999 145.085 43.2808C145.085 43.3812 145.333 42.9016 145.333 42.8681C148.284 38.8806 157.118 26.2318 153.677 22.1717C153.226 21.5527 152.391 21.2794 151.624 21.4858C150.93 21.6921 148.809 22.3446 145.542 33.8278C144.741 36.6107 144.008 39.6 143.421 42.422L143.173 42.7287C142.93 43.041 142.93 43.4537 143.139 43.7939C142.62 46.3371 142.27 48.6794 142.095 50.4641C142.061 50.8768 142.304 51.256 142.688 51.3899C143.071 51.5293 143.522 51.3899 143.765 51.0497C147.314 45.9634 149.576 45.3053 150.58 45.3443C151.313 45.4113 151.973 45.8574 152.317 46.5099C153.361 48.3671 155.206 49.6721 157.361 49.9844C163.414 50.9102 170.957 44.413 171.307 44.1397C171.656 43.7939 171.69 43.2474 171.374 42.8681ZM152.148 23.2035C152.216 23.2035 152.25 23.3095 152.284 23.3429C153.954 25.2001 147.037 39.02 146.163 38.4679C145.333 37.9492 150.687 23.2035 152.148 23.2035Z" fill="#523E27"/>
<path d="M199.293 42.7622C198.943 42.3885 198.35 42.3495 197.973 42.6952C197.865 42.8012 187.541 51.9754 181.138 47.8149C178.6 46.1697 177.979 42.1821 177.979 42.1431C177.94 41.7304 177.629 41.4237 177.212 41.3567C176.828 41.3177 176.411 41.5241 176.236 41.8698C174.606 45.4447 171.717 49.9844 170.916 49.4658C170.848 49.4658 170.707 49.3319 170.606 49.0921C170.188 47.9544 170.324 46.7163 170.916 45.6511C172.236 42.9685 174.673 41.0444 177.596 40.325C177.906 40.2525 178.148 40.0127 178.256 39.7059C178.357 39.3936 178.256 39.0534 178.047 38.8136C177.804 38.6073 177.488 38.5013 177.178 38.5682C173.697 39.3936 170.814 41.7304 169.246 44.8982C168.411 46.443 168.31 48.3002 168.97 49.9119C169.286 50.7039 170.047 51.256 170.916 51.256H170.95C172.654 51.2225 174.775 49.1256 176.236 46.8557C176.411 46.5824 176.727 46.443 177.037 46.4765C177.353 46.4765 177.629 46.6493 177.77 46.9226C178.357 47.8875 179.158 48.7129 180.134 49.2929C187.711 54.2787 198.734 44.4464 199.225 44.0337C199.394 43.8664 199.501 43.621 199.501 43.4147C199.535 43.1749 199.434 42.935 199.293 42.7622Z" fill="#523E27"/>
<path d="M242.888 32.4168C242.369 32.4503 240.417 32.5562 238.019 32.7291C237.743 32.7291 237.46 32.6231 237.291 32.3833C237.116 32.1435 237.116 31.8647 237.218 31.5914C240.349 24.2353 242.47 16.5724 240.49 12.0662C239.582 9.9692 237.601 8.49128 235.272 8.18454C225.224 6.36085 216.773 14.4029 213.958 22.8968C211.837 29.2212 213.191 34.6197 217.433 36.6777C217.885 36.884 218.443 36.7167 218.652 36.265C218.861 35.8188 218.686 35.2722 218.234 35.0659C214.167 33.0693 214.235 27.7767 215.696 23.4433C218.268 15.708 225.884 8.31839 234.961 9.9692C236.665 10.1755 238.16 11.2408 238.82 12.7912C240.733 17.0855 238.087 25.0272 234.82 32.5562C234.612 33.0024 234.126 33.0359 233.81 33.0359C231.029 33.1753 228.282 33.5489 225.568 34.207C225.117 34.3743 224.908 34.9265 225.083 35.3726C225.292 35.8188 225.816 36.0586 226.302 35.8523C228.248 35.4061 230.268 35.1328 232.282 34.9934C232.598 34.9599 232.874 35.0994 233.049 35.3392C233.218 35.579 233.258 35.8913 233.117 36.1646C229.393 43.6936 225.433 49.912 225.36 50.0514C225.117 50.4641 225.224 51.0162 225.642 51.2561C226.059 51.5293 226.612 51.4289 226.894 51.0162C230.127 45.8909 233.049 40.5983 235.621 35.1328C235.757 34.8595 236.039 34.6867 236.315 34.6532C238.679 34.4803 241.043 34.3074 242.995 34.207C243.237 34.207 243.446 34.1011 243.615 33.8947C243.79 33.7218 243.864 33.482 243.864 33.2422C243.79 32.7626 243.373 32.4168 242.888 32.4168Z" fill="#523E27"/>
<path d="M271.29 41.4237C271.115 41.2508 270.873 41.1839 270.63 41.1839C270.387 41.1839 270.179 41.2842 270.004 41.4571C266.873 44.7253 259.849 49.4992 254.704 49.4992H254.637C253.209 49.5717 251.85 49.0196 250.879 48.0213C249.627 46.6828 250.496 43.041 250.913 41.8698C251.088 41.4237 250.879 40.944 250.462 40.7712C250.078 40.5648 249.559 40.6652 249.311 41.0444C246.637 44.8982 242.812 48.6404 241.56 47.9209C241.142 47.6476 241.768 44.9985 243.472 42.0093C243.681 41.5966 243.54 41.0779 243.122 40.8381C242.705 40.5983 242.152 40.7042 241.909 41.1169C240.725 43.1414 238.254 48.0603 240.623 49.4658C242.496 50.57 245.035 48.7798 247.156 46.6159C247.365 46.3761 247.681 46.3036 247.957 46.4095C248.233 46.4765 248.442 46.7163 248.516 47.0286C248.617 47.854 248.967 48.6069 249.52 49.2594C250.845 50.6369 252.685 51.3898 254.597 51.3229H254.704C260.442 51.3229 267.883 46.3036 271.324 42.7287C271.499 42.5223 271.567 42.316 271.567 42.0762C271.567 41.8364 271.465 41.5966 271.29 41.4237Z" fill="#523E27"/>
<path d="M293.818 42.2826C293.643 42.1097 293.401 42.0093 293.158 42.0093C292.91 42.0093 292.667 42.1097 292.493 42.2826C292.425 42.3495 283.28 51.256 276.708 49.2929C274.378 48.6069 273.092 46.4096 272.364 44.0728C272.155 43.3143 272.223 42.4889 272.573 41.7695C275.004 36.884 280.984 24.0959 278.028 20.9727C277.334 20.1083 276.189 19.835 275.179 20.2477C271.664 21.7591 269.334 31.9037 269.752 39.2933C269.825 40.4254 269.961 41.5631 270.169 42.6953C270.169 42.8347 270.169 42.9351 270.243 43.0411C271.145 47.3688 273.199 50.1574 276.189 51.0162C277.024 51.256 277.859 51.3899 278.688 51.3899C285.751 51.3899 293.435 43.8999 293.784 43.5541C293.954 43.3813 294.061 43.1749 294.061 42.9351C294.061 42.6618 293.988 42.4555 293.818 42.2826ZM271.664 38.7746C270.587 33.0359 274.169 22.6179 275.907 21.8985C275.98 21.865 276.048 21.8316 276.115 21.8316C276.256 21.8316 276.431 21.8985 276.674 22.1718C278.062 23.6162 274.101 36.0586 272.257 38.981C272.082 39.2933 271.738 39.1204 271.664 38.7746Z" fill="#523E27"/>
<path d="M322.116 42.5223C321.766 42.1431 321.179 42.1096 320.83 42.4554C320.728 42.5223 310.709 51.3564 296.695 48.8467C294.332 48.434 293.113 47.5417 293.113 46.2366C293.079 43.8274 296.87 40.325 299.375 39.8398C300.142 39.6 300.972 39.7394 301.671 40.1856C302.156 40.6652 302.433 41.3567 302.433 42.0762C302.433 42.5558 302.816 42.9685 303.302 42.9685C303.826 42.9685 304.21 42.5948 304.244 42.1096C304.278 40.8715 303.759 39.6725 302.85 38.8136C301.739 37.9882 300.351 37.7094 299.025 38.0886C296.002 38.6407 291.274 42.6283 291.308 46.2701C291.308 47.5751 291.968 49.845 296.385 50.6369C298.157 50.9437 299.968 51.1166 301.807 51.1166C309.18 51.0496 316.345 48.473 322.048 43.7939C322.223 43.621 322.325 43.3812 322.358 43.1749C322.358 42.935 322.257 42.6952 322.116 42.5223Z" fill="#523E27"/>
<path d="M348.084 42.8681C347.74 42.4889 347.181 42.4554 346.798 42.8012C346.73 42.8347 339.565 49.0196 334.313 48.1942C332.75 47.9544 331.396 47.0286 330.629 45.6511C329.969 44.4464 328.75 43.6935 327.397 43.5541C325.693 43.4537 323.814 44.4464 321.834 46.5099C321.727 46.6159 321.552 46.6494 321.417 46.5825C321.276 46.5099 321.208 46.3761 321.242 46.2032C321.343 45.5507 321.659 43.8999 321.795 43.2808C321.795 43.3812 322.043 42.9016 322.043 42.8681C324.993 38.8806 333.828 26.2318 330.386 22.1717C329.935 21.5527 329.1 21.2794 328.333 21.4858C327.639 21.6921 325.518 22.3446 322.251 33.8278C321.45 36.6107 320.717 39.6 320.13 42.422L319.882 42.7287C319.639 43.041 319.639 43.4537 319.848 43.7939C319.329 46.3371 318.979 48.6794 318.805 50.4641C318.771 50.8768 319.013 51.256 319.397 51.3899C319.781 51.5293 320.232 51.3899 320.474 51.0497C324.023 45.9634 326.285 45.3053 327.289 45.3443C328.023 45.4113 328.683 45.8574 329.027 46.5099C330.071 48.3671 331.915 49.6721 334.07 49.9844C340.124 50.9102 347.666 44.413 348.016 44.1397C348.366 43.7939 348.4 43.2474 348.084 42.8681ZM328.858 23.2035C328.925 23.2035 328.959 23.3095 328.993 23.3429C330.663 25.2001 323.746 39.02 322.872 38.4679C322.043 37.9492 327.397 23.2035 328.858 23.2035Z" fill="#523E27"/>
<path d="M376.103 42.2491C375.934 42.0762 375.726 41.9368 375.477 41.9368C375.235 41.9033 374.992 41.9758 374.817 42.1097C374.682 42.2157 361.295 52.734 350.13 48.1942C347.868 47.2684 347.766 46.0638 347.834 45.4113C347.834 45.3053 347.868 45.2049 347.975 45.138C348.043 45.0655 348.184 45.0655 348.285 45.1046C350.548 45.2384 352.81 44.6528 354.756 43.4538C356.426 42.3885 356.702 41.2174 356.601 40.4589C356.528 39.2264 355.518 38.2281 354.232 38.1946C351.484 38.0552 346.898 41.2843 346.13 44.7253C345.82 45.9969 345.854 48.4006 349.436 49.845C351.625 50.7374 353.921 51.1501 356.251 51.1501C366.231 51.1501 375.477 43.8999 375.968 43.5207C376.143 43.3813 376.278 43.1414 376.278 42.9351C376.312 42.6953 376.245 42.4555 376.103 42.2491ZM349.087 43.0076C350.446 41.1504 352.703 39.9123 354.13 40.0127C354.514 40.0127 354.722 40.1521 354.79 40.6652C354.824 41.011 354.44 41.4906 353.746 41.9368C352.319 42.8682 348.043 44.3795 349.087 43.0076Z" fill="#523E27"/>
<path d="M404.751 42.0428C404.576 41.8699 404.367 41.7695 404.125 41.7695C403.882 41.7695 403.64 41.8699 403.465 42.0428C397.451 47.854 386.772 49.0921 384.481 47.7481C382.913 46.8558 383.088 45.7905 384.199 43.6601C384.724 42.6284 385.316 41.4237 384.306 40.7043C383.364 40.0127 382.462 40.4589 381.66 40.8716C380.515 41.5241 379.229 41.8699 377.875 41.8699C377.559 41.8699 377.283 41.3178 377.35 41.117C379.297 36.884 378.428 36.0976 378.118 35.7853C377.593 35.2722 376.792 35.3057 375.821 35.8913C374.219 37.0234 373.525 39.0535 374.084 40.9441C374.219 41.4572 374.468 41.9368 374.812 42.3495C374.778 42.7287 374.953 43.0745 375.297 43.2474C375.506 43.3478 375.754 43.3478 375.996 43.2809C376.589 43.5541 377.249 43.6936 377.909 43.6936C379.33 43.727 380.724 43.4147 381.976 42.7287C382.462 42.4889 382.636 42.6953 382.569 42.8347C381.734 44.4465 380.239 47.4023 383.573 49.332C384.758 49.8785 386.078 50.1183 387.398 50.0179C392.266 50.0179 399.916 47.9544 404.717 43.3143C404.892 43.1749 404.994 42.9351 404.994 42.6953C405.027 42.4555 404.926 42.2157 404.751 42.0428ZM375.788 40.1522C375.579 39.1539 375.923 38.1221 376.724 37.4696C376.482 38.401 376.171 39.2933 375.788 40.1856V40.1522Z" fill="#523E27"/>
</svg>
