<svg width="46" height="41" viewBox="0 0 46 41" fill="none" xmlns="http://www.w3.org/2000/svg">
<path d="M45.3851 14.3817C43.0691 14.393 34.6038 14.9319 28.3028 21.7579C25.6514 24.5071 24.0382 27.5259 23 30.3649C21.9618 27.5232 20.3446 24.5026 17.6988 21.8415C11.4042 14.9388 2.9349 14.3997 0.618924 14.3817C0.269531 14.3817 0 14.6872 0 15.0915C0.0199653 17.5963 0.56901 26.4298 7.08767 32.9974C13.8 40.3466 20.4444 40.1759 23 40.1759C25.5556 40.1759 32.2 40.268 38.9163 32.912C45.433 26.4208 45.984 17.5892 46 15.0915C46 14.6872 45.7285 14.3817 45.3851 14.3817ZM23 24.3185C24.0182 22.6231 25.2058 21.1065 26.5243 19.7813C28.0416 18.1085 29.6788 16.7833 31.3359 15.7159C30.0182 9.38193 27.2031 3.7667 23.6093 0.23584C23.2799 -0.0786133 22.7309 -0.0786133 22.4018 0.23584C18.8081 3.76221 15.993 9.36396 14.6753 15.6979C16.302 16.7536 17.9097 18.0447 19.407 19.6843C20.7639 21.0661 21.9698 22.6204 23 24.3185Z" fill="#8F7241"/>
</svg>
